<?xml version="1.0" encoding="UTF-8"?>
<svg id="_Слой_2" data-name="Слой 2" xmlns="http://www.w3.org/2000/svg" viewBox="0 0 479.76 137.49">
  <defs>
    <style>
      .cls-1 {
        fill: #fff;
      }
    </style>
  </defs>
  <g id="_Слой_1-2" data-name="Слой 1">
    <g>
      <path class="cls-1" d="m76.14.15c4.34.37,10.53,1.31,17.5,3.92,17.42,6.53,27.25,18.82,30.5,23.26,16.69,22.84,12.81,48.29,11.83,53.74-2.29,12.77-7.64,21.75-9.97,25.34-8.73,13.43-19.99,20.31-25.5,23.2-3.75,1.97-13.55,6.67-27.15,7.68-15.68,1.16-27.4-3.26-30.5-4.5-3.76-1.5-17.29-7.33-28.34-21.65C.51,92.99-.05,73.43,0,67.5c.03-3.56.53-25.38,14.81-42.58,6.83-8.23,15.24-13.5,16.41-14.22,1.32-.81,5.61-3.4,11.62-5.7C48.94,2.66,60.38-.77,76.14.15Zm54.87,68.33c.8-34.51-28.6-63.75-63.87-62.79C32.87,6.63,5.14,34.46,5.74,70.31c.57,34.02,29.59,61.9,64.45,61.15,35-.75,61.82-30.54,60.82-62.98Z"/>
      <path class="cls-1" d="m479.76,51.54c-2.58,4.23-6.85,4.7-11.18,4.95q-9.87.58-9.87,10.54c0,8.14.08,16.29-.04,24.43-.03,2.11-.03,4.76-1.22,6.18-1.74,2.08-4.54,4.51-6.88,4.49-2.28-.01-4.87-2.61-6.7-4.64-1.03-1.15-1.08-3.44-1.09-5.21-.08-14.46-.14-28.92.01-43.38.08-7.11,3.79-10.69,9.67-9.22,2.29.57,4.16,2.8,6.78,4.67,6.29-.43,13.81-7.2,20.51,1.2v6Z"/>
      <path class="cls-1" d="m362.45,81.33c1.45-8.74,2.97-17.48,4.33-26.24.45-2.94.29-5.97.75-8.9.84-5.31,2.94-7,7.86-6.76,4.39.21,7.66,2.98,7.08,7.84-1.29,10.81-2.92,21.64-5.49,32.2-1.46,6.01-4.78,11.64-7.75,17.18-4.11,7.65-11.77,7.89-16.55.61-2.17-3.3-3.79-6.95-6.02-11.11-1.79,3.42-3.28,6.56-5.03,9.55-5.35,9.14-13.2,9.2-18.28,0-8.08-14.6-12.71-30.2-12.75-47-.01-5.59,2.2-8.69,6.31-9.23,5.9-.77,8.51,1.73,9.24,8.18,1.04,9.19,2.31,18.35,3.67,27.49.31,2.08,1.42,4.03,3.45,6.3,1.48-5.72,3.3-11.39,4.34-17.19.85-4.71.95-9.58,1.09-14.39.22-7.86,2.13-10.47,8.11-10.45,5.48.01,7.26,2.95,7.84,10.32.66,8.4,2.01,16.75,3.28,25.09.33,2.19,1.49,4.26,2.27,6.39.75.03,1.5.06,2.25.09Z"/>
      <path class="cls-1" d="m210.46,98.17c-6.09,4.89-12.94,6.73-20.86,5.52-10.48-1.6-17.49-10.27-16.82-21.6.56-9.52,9.07-17.54,18.96-17.53,5.79,0,11.57.53,17.36.82,1.49-7.04-4.63-13.21-11.56-11.31-3.29.9-6.41,2.63-9.42,4.3-3.33,1.85-6.01,1.26-8.45-1.43-2.38-2.64-2.67-5.9-.17-8.04,4.05-3.47,8.41-7.87,13.26-8.87,18.46-3.82,31.98,6.27,32.94,24.75.47,8.96.11,17.97.09,26.96-.01,4.07-.27,8.09-4.76,10.05-3.68,1.6-5.71.91-10.56-3.61Zm-1.37-19.33c-5.53-.38-10.58-1.21-15.56-.93-4.17.23-6.42,3.21-5.81,7.61.55,3.96,3.35,5.42,6.99,5.55,6.43.23,11.88-4.1,14.38-12.24Z"/>
      <path class="cls-1" d="m290.25,65.84c.45-8.79-5.75-13.87-13.34-11.42-2.64.85-5.18,2.18-7.56,3.64-3.37,2.07-6.42,1.78-9-.97-2.76-2.94-1.94-6.42.23-9.1,1.93-2.38,4.47-4.65,7.22-5.93,16.45-7.64,37.62-.46,38.79,23.64.42,8.64.07,17.31.06,25.97,0,.5,0,1-.06,1.5-.5,3.97-1.69,7.71-5.85,9.09-4.08,1.35-6.99-.94-9.14-4.24-10.75,7.4-21.75,8.19-30.11,2.23-6.86-4.89-9.87-13.48-7.58-21.68,2.17-7.77,9.22-13.46,17.59-13.95,3.15-.18,6.33-.08,9.48.13,2.96.19,5.9.69,9.26,1.1Zm-.16,13.14c-5.59-.48-10.5-1.27-15.41-1.2-4.27.06-7.19,3.92-6.73,7.77.4,3.4,4.1,6.03,8.25,5.57,6.78-.75,11.15-4.56,13.89-12.14Z"/>
      <path class="cls-1" d="m419.53,65.43c.51-8.52-5.76-13.56-13.35-10.98-2.49.85-4.89,2.08-7.14,3.45-3.44,2.09-6.56,2.44-9.27-.98-2.65-3.34-1.93-6.97.85-9.4,3.42-2.98,7.31-6.32,11.53-7.34,19.66-4.8,32.93,7.71,33.62,23.85.41,9.64.07,19.31.08,28.96,0,3.95-1.24,7.21-5.1,8.89-3.52,1.53-5.4.78-9.72-3.75-6.36,4.85-13.54,6.87-21.7,5.55-9.6-1.56-16.95-10.17-16.54-19.95.43-10.33,8.09-18.75,18.01-19.1,6.1-.21,12.24.5,18.74.81Zm-.23,13.71c-5.02-.54-9.55-1.41-14.08-1.42-5.15-.02-8.07,3.37-7.47,7.74.58,4.24,5.08,6.81,9.89,5.44,5.54-1.57,9.68-4.76,11.66-11.76Z"/>
      <path class="cls-1" d="m247.95,60.55c0,11.29.27,22.58-.12,33.86-.19,5.4-3.38,8.12-7.61,8.09-4.15-.03-7.25-2.79-7.43-8.33-.55-16.28-.66-32.58-.79-48.87-.05-5.64.01-11.32.63-16.92.7-6.35,3.52-9.05,8.05-8.82,4.3.22,7.21,3.48,7.38,9.55.29,10.47.08,20.96.08,31.44h-.19Z"/>
      <path class="cls-1" d="m87.99,91.5c-2.04-4.92-1.86-9.27-.59-14.5,2.36-9.75,3.28-19.9,4.27-29.93.72-7.28,3.75-10.76,10.27-10.5,4.83.2,7.32,2.83,7.81,7.39.77,7.11,1.42,14.22,1.97,21.35.63,8.23-3.47,10.98-13.21,9.48,2.24.85,4.48,1.69,7.23,2.73-3.02,11.36-6.76,22.45-13.9,31.99-3.93,5.25-12.39,4.37-15.94-1.94-3.96-7.03-6.85-14.67-10.18-22.06-.54-1.19-.9-2.46-2.01-3.53.44,1.95.73,3.94,1.34,5.83,2.33,7.2-1.54,19.06-7.73,23.41-4.5,3.16-10.92,1.8-14.25-3.45-7.19-11.36-11.47-23.94-14.19-37-1.42-6.8-2.16-13.78-2.79-20.72-.78-8.55,2.87-13.37,9.43-13.51,4.83-.11,7.74,2.17,8.33,6.76.88,6.91.69,14.01,2.07,20.8,1.79,8.83,4.68,17.45,7.06,26.04,1.04-6.07,2.08-11.61,2.91-17.19,1.07-7.2,2-14.42,2.93-21.63.36-2.79.41-5.64.91-8.4.8-4.42,3.62-6.33,8.12-6.41,4.66-.08,7.97,1.7,8.76,6.32.78,4.57.82,9.26,1.15,13.9.87,12.4,4.42,24.01,10.24,34.77Z"/>
    </g>
  </g>
</svg>