<?xml version="1.0" encoding="UTF-8"?>
<svg id="_Слой_2" data-name="Слой 2" xmlns="http://www.w3.org/2000/svg" viewBox="0 0 264 144.11">
  <defs>
    <style>
      .cls-1 {
        fill: #fff;
      }
    </style>
  </defs>
  <g id="_Слой_1-2" data-name="Слой 1">
    <path class="cls-1" d="m132.14,115.97c1.52-1.97,2.31-3.28,3.36-4.33,35.51-35.55,71.02-71.11,106.65-106.54,2.19-2.17,5.22-3.97,8.17-4.79,4.63-1.27,9.65,1.51,12.06,5.68,2.45,4.22,2.12,9.52-.92,13.38-.92,1.17-2.03,2.2-3.09,3.26-38.62,38.63-77.25,77.26-115.87,115.88-7.44,7.44-13.48,7.45-20.88.05C82.73,99.68,43.81,60.81,5.02,21.82c-2.17-2.18-3.94-5.24-4.73-8.2C-.94,8.97,1.87,4.02,6.09,1.62,10.33-.8,15.61-.42,19.46,2.66c1.17.93,2.19,2.05,3.25,3.11,35.36,35.35,70.72,70.7,106.06,106.07.97.97,1.74,2.13,3.37,4.14Z"/>
  </g>
</svg>