<?xml version="1.0" encoding="UTF-8"?>
<svg id="_Слой_2" data-name="Слой 2" xmlns="http://www.w3.org/2000/svg" viewBox="0 0 500.35 631.6">
  <defs>
    <style>
      .cls-1 {
        fill: #4a5258;
      }
    </style>
  </defs>
  <g id="_Слой_1-2" data-name="Слой 1">
    <g>
      <path class="cls-1" d="m462.87,168.69c0,16.19.02,32.32,0,48.44-.07,45.16-.24,90.33-.21,135.49.04,65.66.16,131.32.38,196.98.04,13.23-2.37,25.64-8.73,37.44-11.89,22.05-28,38.61-53.77,43.03-6.36,1.09-12.9,1.53-19.36,1.53-72.16,0-144.31-.11-216.47-.27-19.15-.04-38.36.52-57.44-.74-40.88-2.71-71.08-35.81-71.07-76.67.02-118.33.04-236.66.06-354.99,0-10.14,0-20.27,0-30.24h426.63Zm-232.77,326.15c0,11.83-.08,23.66.22,35.48.27,10.68,8.67,18.3,19.24,17.98,10.94-.33,18.87-8.4,18.87-19.04-.02-48.13-.66-96.27-.66-144.4,0,0,.22,0,0,0,0-3.5-.01-6.99,0-10.49.21-44.97.42-89.94.62-134.9.04-9.57-7.75-17.67-17.3-18.39-12.13-.91-22.27,8.8-21.95,22.03m139.33,141.83c-.09,0,.09,0,0,0,0-48.33-.07-96.65.07-144.98.02-7.78-3.71-13-9.86-16.73-10.76-6.54-27.2.11-26.62,14.24.33,7.93-.6,15.9-.6,23.85-.04,61.16-.05,122.32.04,183.47.04,28.33.33,56.65.45,84.98.03,7.48,4.01,12.57,9.99,16.18,5.51,3.32,13.19,2.54,18.75-1.12,5.39-3.55,8.12-9.5,8.1-16.87-.09-48.66-.33-94.35-.33-143.01Zm-236.6,34.58c.03,37.31.14,74.61.32,111.92.05,9.67,8.41,17.45,18.34,17.25,9.66-.2,19.28-9.24,18.35-18.02-.56-5.26.05-10.64.04-15.97-.16-87.27-.33-174.55-.55-261.82-.02-5.82-.22-12.95-.92-18.71-2.25-7.9-4.38-13.14-17.04-13.14s-18.23,11.47-18.54,19.69"/>
      <path class="cls-1" d="m169.99,60.97c0-11.83.15-22.97-.04-34.1-.26-15.29,9.04-26.19,24.31-26.39C231.25-.02,268.24-.07,305.22.06c12.41.04,22.44,11.5,22.81,25.15.28,10.32.23,20.66.31,30.98.01,1.64,0,3.27,0,5.42,2.52,0,4.61,0,6.71,0,48.48-.22,96.96-.46,145.44-.65,12.46-.05,19.67,6.84,19.79,19.32.16,15.99-.02,31.98-.17,47.97-.07,7.77-8.57,16.16-16.45,16.21-17.33.11-34.66.08-51.98.08-127.96.02-255.92.03-383.88.05-11.16,0-22.33.08-33.49,0-7.9-.05-13.83-5.98-13.92-13.9C.21,114.2.04,97.71,0,81.21c-.03-12.47,6.95-19.41,19.47-19.43,45.65-.08,91.3-.09,136.95-.18,4.14,0,8.28-.38,13.57-.64Zm31.93.15h93.38v-27.22h-93.38v27.22Z"/>
    </g>
  </g>
</svg>