<?xml version="1.0" encoding="UTF-8"?>
<svg id="_Слой_2" data-name="Слой 2" xmlns="http://www.w3.org/2000/svg" viewBox="0 0 429.2 434.27">
  <defs>
    <style>
      .cls-1 {
        fill: #fff;
      }
    </style>
  </defs>
  <g id="_Слой_1-2" data-name="Слой 1">
    <g>
      <path class="cls-1" d="m230.97,53.95c42.99,0,85.99-.6,128.97.15,53.76.94,77.01,47.73,66.98,87.69-8.79,35-18.83,69.68-28.13,104.55-5.5,20.61-31.99,43.99-57.07,43.86-38.49-.2-76.97-.25-115.46-.15-28.15.08-56.31.52-84.46.75-12.2.1-23.7-2.58-34.55-8.39-10.46-5.6-17.44-13.65-19.97-25.37-6.3-29.23-12.6-58.47-18.92-87.69-8.33-38.48-16.62-76.97-25.15-115.4-.47-2.13-2.55-4.51-4.53-5.61-9.73-5.42-19.86-10.11-29.49-15.69C-1.53,26.43-3.11,11.27,5.72,3.77,11.11-.8,16.51-1.17,22.75,2.42c13.7,7.86,27.37,15.78,41.21,23.41,4.19,2.31,6.36,5.42,7.28,10,7.43,37.02,15.01,74.01,22.46,111.02,5.61,27.89,11.17,55.79,16.64,83.7,3.39,17.33,14.3,27.76,32.05,28.39,19.63.69,39.3.16,58.95.19,42.49.08,84.98.13,127.46.32,10.24.05,19.49-1.97,28.17-8.07,11.51-8.1,15.34-19.85,18.37-32.52,4.17-17.42,8.77-34.74,13.26-52.09,3.07-11.88,7.57-23.56,9.11-35.63,2.95-22.98-8.96-41.79-35.07-46.1-8.8-1.45-17.94-1.09-26.92-1.1-76.98-.05-153.97,0-230.95.02-8.56,0-8.56-.03-10.2-8.47-.92-4.73-1.89-9.44-2.7-14.19-1.17-6.85.14-8.39,7.15-8.34,33.49.27,66.98.59,100.47.85,10.5.08,21,.01,31.49.01v.1Z"/>
      <path class="cls-1" d="m332.76,434.25c-29.08.19-53.16-23.59-53.4-52.74-.24-29.44,23.27-53.47,52.45-53.6,29.31-.13,52.95,23.22,53.68,51.98.77,30.18-25.74,55.33-52.74,54.36Zm-1.19-29.36c12.06.12,24.42-11.7,24.38-23.33-.04-12.8-11.4-24.33-24.19-24.54-12.69-.21-24.12,10.85-24.34,23.57-.22,12.8,11.07,24.17,24.14,24.3Z"/>
      <path class="cls-1" d="m133.81,434.05c-25.36,1.36-53-21.8-52.54-52.57.45-30.14,23.05-52.76,53.42-52.64,28.74.11,51.56,23.43,51.76,52.32.23,33.14-28.86,54.75-52.64,52.89Zm.27-29.16c13.09.16,23.97-10.36,24.24-23.43.28-13.3-10.47-24.41-23.68-24.46-13.2-.06-24.12,10.49-24.23,23.39-.11,13.49,10.37,24.34,23.66,24.51Z"/>
      <path class="cls-1" d="m258.66,170.35c.17-5.75-.08-3.25.04-27.04.08-15.5.25-24.85,6.38-29.26,1.07-.77,3.5-2.23,6.54-2.14,7.6.25,13.97,9.73,14.04,12.77.38,15.13.28,30.27.28,45.4,0,15.3-.04,30.61-.17,45.91-.06,6.62-3.24,11.03-9.24,13.3-4.72,1.79-11.41.31-14.76-4.42-2.62-3.7-2.97-7.81-2.98-10.11-.16-27.28-.23-40.91-.13-44.41Z"/>
      <path class="cls-1" d="m196.33,171.5c0-15.14-.03-30.28.01-45.42.02-7.96,5.4-13.95,12.44-14.02,6.63-.07,13.31,6.27,13.37,13.5.21,23.29.11,46.58.13,69.88,0,7.15.13,14.31-.05,21.46-.15,5.95-3.51,9.91-8.81,12.18-4.67,2.01-10.43.77-13.95-3.67-1.78-2.25-2.99-5.6-3.04-8.48-.29-15.14-.14-30.28-.14-45.42h.04Z"/>
      <path class="cls-1" d="m134.25,170.47c0-15.16.33-30.33-.15-45.47-.22-6.89,6.79-12.27,12.31-12.8,4.55-.44,13.27,4.81,13.28,11.8.02,20.65.38,41.31.56,61.96.09,9.99.12,19.99.09,29.99-.02,6.77-6.71,13.8-13.11,13.93-6.31.13-12.82-6.82-12.85-13.93-.06-15.16-.02-30.32-.02-45.48-.03,0-.07,0-.1,0Z"/>
      <path class="cls-1" d="m263.18,378.12h-57.83c-3.84-10.47-7.73-21.07-11.52-31.41h79.56c-3.42,10.52-6.63,20.41-10.21,31.41Z"/>
    </g>
  </g>
</svg>