<?xml version="1.0" encoding="UTF-8"?>
<svg id="_Слой_2" data-name="Слой 2" xmlns="http://www.w3.org/2000/svg" viewBox="0 0 384 384">
  <defs>
    <style>
      .cls-1 {
        fill: #fff;
      }
    </style>
  </defs>
  <g id="_Слой_1-2" data-name="Слой 1">
    <g>
      <path class="cls-1" d="m194.25,0c1.89,2.35,4.4,4.43,5.55,7.1,4.27,9.9,10.8,17.9,19.15,24.55.98.78,2.01,1.49,2.93,2.34,3.15,2.92,3.59,7.3,1.1,10.43-2.56,3.21-7.05,4.17-10.32,1.26-6.32-5.61-12.2-11.73-18.22-17.67-.79-.78-1.34-1.79-2.39-3.21-11.91,17.17-28.28,28.03-47.45,34.93-18.99,6.84-38.61,8.7-58.21,6.73-.42,6.94-.19,13.71-1.36,20.23-3.17,17.72-13.33,31.21-27.16,42.18-8.79,6.97-18.63,12.05-29.16,15.84-1.49.54-2.97,1.1-4.56,1.69,26.01,27.1,25.97,64.06.18,90.97,5.59,2.38,11.32,4.47,16.72,7.2,19.12,9.67,34.21,23.31,41.72,44,3.34,9.19,4.29,18.7,2.7,28.69,41.97-2.58,79.22,6.63,106.78,41.54,11.71-16.94,28.06-27.68,47.14-34.57,18.98-6.85,38.6-8.74,58.22-6.74.42-6.94.13-13.72,1.34-20.22,3.58-19.23,14.97-33.42,30.47-44.65,8.46-6.13,17.78-10.58,27.62-14.01.91-.32,1.81-.68,2.8-1.05-26.4-27.44-25.58-64.5-.23-90.87-6.52-2.93-13.27-5.46-19.55-8.86-18.51-10.01-32.85-23.91-39.5-44.51-2.6-8.07-3.5-16.34-2.26-24.78.09-.58.01-1.19.01-1.4-5.75,0-11.33,0-16.92,0-3.06,0-5.66-.97-7.32-3.71-2.97-4.9.24-10.85,6.33-11.38,5.97-.52,11.97-.6,17.94-1.08,3.1-.25,6.15-1.07,9.24-1.42,6.06-.69,10.49,4.26,8.37,9.88-8.85,23.5,2.65,43.95,18.5,56.73,11.6,9.36,24.95,15.05,39.45,18.08,4.14.87,8.01,1.84,10.11,6v4.5c-1.78,1.87-3.54,3.75-5.35,5.6-4.78,4.9-10.15,9.35-14.23,14.78-7.59,10.09-10.51,21.68-8.3,34.32,2.54,14.5,11.05,25.1,22.21,34,2.1,1.67,3.79,3.85,5.66,5.8v4.5c-2.11,4.14-5.97,5.1-10.11,6-18.08,3.91-34.4,11.34-47.04,25.28-12.77,14.08-17.61,30.15-11.1,48.76,2.39,6.83-2.32,11.78-9.64,10.4-24.23-4.57-47.78-2.51-70.27,7.91-15.97,7.4-28.94,18.04-36.06,34.8-1.13,2.67-3.65,4.75-5.53,7.11h-4.5c-1.71-1.88-4.16-3.48-5.01-5.69-4.59-11.85-12.31-21.15-22.67-28.18-25.46-17.29-53.64-21.21-83.46-16.12-8.6,1.47-12.35-2.99-10.24-11.32,1.56-6.19,2.61-12.79,2.25-19.11-.7-12.26-6.99-22.21-15.53-30.73-12.9-12.89-28.89-19.81-46.44-23.46C4.85,248.61,1.89,247.17,0,243.75,0,242.25,0,240.75,0,239.25c1.68-1.79,3.29-3.65,5.06-5.35,3.77-3.64,7.99-6.87,11.36-10.84,9.43-11.08,13.96-23.81,11.42-38.51-2.53-14.65-11.19-25.29-22.47-34.25-2-1.59-3.6-3.69-5.38-5.55,0-1.5,0-3,0-4.5,1.88-3.17,4.56-4.78,8.29-5.56,18.84-3.92,35.98-11.38,49.1-26.02,12.27-13.69,17.19-29.32,11.15-47.41-2.74-8.2,1.48-12.84,10.07-11.3,23.31,4.19,46.06,2.38,67.85-7.28,16.69-7.4,30.33-18.17,37.75-35.59,1.14-2.67,3.67-4.74,5.55-7.09,1.5,0,3,0,4.5,0Z"/>
      <path class="cls-1" d="m141.39,118c12.65-19.11,39.88-20.66,53.84-.27,17.26-12.74,36.91-7.69,46.67,6.64,5.91-2.08,11.42-4.99,17.25-5.9,18.01-2.82,34.64,11.32,34.84,29.59.3,27.37.26,54.74.04,82.11-.11,13.58-6.82,23.46-19.33,28.58-12.36,5.06-23.75,2.54-33.6-6.56-.54-.5-1.06-1-1.84-1.74-5.04,5.46-11.09,8.93-18.29,10.39-.77.16-1.71,1.32-1.91,2.16-4.39,19.33-17.21,29.69-37.05,29.72-13.12.02-26.25.23-39.36-.18-17.01-.54-31.02-13.74-33.01-30.67-.25-2.14-.99-3.17-2.84-4.18-10.87-5.94-16.65-15.11-16.93-27.58-.08-3.5-.09-7,.02-10.5.14-4.47,3.02-7.43,7.16-7.57,4.31-.15,7.58,2.79,7.84,7.33.19,3.49.02,7,.08,10.5.16,9.1,6.97,16.06,15.77,16.17,9.02.11,16.21-6.71,16.38-15.97.2-10.99-.02-22,.1-32.99.07-6.11,5.79-9.72,10.9-7.02,3.09,1.64,4.17,4.39,4.15,7.8-.06,10.25-.04,20.5-.01,30.74.02,10.23,6.66,17.43,16.03,17.44,9.4.01,16.13-7.17,16.17-17.35.04-10.12,0-20.25.02-30.37.01-5.63,3.02-9.23,7.6-9.17,4.59.06,7.45,3.6,7.46,9.32.02,10.12-.02,20.25.01,30.37.04,10.11,6.87,17.28,16.3,17.2,9.22-.08,15.87-7.24,15.9-17.21.03-10.5-.07-21,.04-31.49.06-6.32,5.86-10.06,11.06-7.24,2.93,1.59,4.02,4.21,4,7.49-.05,10.75-.17,21.5.03,32.24.24,12.84,13.6,20.43,24.33,13.92,4.95-3,7.75-7.5,7.77-13.3.08-27.24.09-54.49,0-81.73-.02-6.99-4.95-13.1-11.54-14.98-6.47-1.85-13.62.68-17.59,6.23-.58.81-1.03,1.71-1.58,2.55-3.51,5.3-9.98,5.65-13.75.52-1.68-2.28-2.83-4.98-4.08-7.55-2.85-5.89-7.35-9.42-13.98-9.73-6.6-.32-11.47,2.66-14.89,8.26-4.33,7.09-11.38,6.98-15.6-.24-1.19-2.04-2-4.3-3.11-6.39-3.06-5.76-7.79-9.1-14.4-9.14-6.76-.04-11.62,3.28-14.7,9.23-.92,1.77-1.62,3.66-2.56,5.41-4.38,8.17-11.44,8.45-16.37.69-4.06-6.39-11.12-9.27-18.11-7.39-7,1.89-11.67,8.21-11.77,15.96-.04,3.37.15,6.76-.07,10.12-.38,5.84-6.26,9.37-10.98,6.44-1.71-1.06-3.63-3.34-3.73-5.16-.34-5.96-.73-12.12.41-17.91,4.4-22.42,29.81-32.34,48.53-19.29.71.5,1.41,1.01,2.28,1.65Zm-16.45,143.07c1.71,9.25,9.12,16.24,17.88,16.4,14.35.26,28.71.25,43.06,0,8.51-.14,16.4-7.2,17.92-15.48.2-1.07-.21-2.84-.98-3.41-3.56-2.66-7.34-5.01-11.11-7.51-13.08,13.3-32.91,13.89-47.25-.45-5.16,5.74-11.69,9.11-19.52,10.44Z"/>
      <path class="cls-1" d="m89.89,185.67c.08-4.28,3.4-7.41,7.73-7.29,4.07.12,7.3,3.41,7.29,7.44,0,4.09-3.57,7.63-7.64,7.59-4.16-.04-7.45-3.5-7.38-7.74Z"/>
      <path class="cls-1" d="m247.95,47.12c4.2.02,7.6,3.46,7.51,7.6-.09,4.13-3.68,7.57-7.76,7.44-4-.13-7.23-3.47-7.27-7.5-.04-4.23,3.28-7.55,7.52-7.53Z"/>
    </g>
  </g>
</svg>