<?xml version="1.0" encoding="UTF-8"?>
<svg id="_Слой_2" data-name="Слой 2" xmlns="http://www.w3.org/2000/svg" viewBox="0 0 355.65 249.28">
  <g id="_Слой_1-2" data-name="Слой 1">
    <g>
      <path d="m343.06,195.35c0,15.46,0,30.2,0,44.94,0,1.37.05,2.76-.07,4.12-.25,2.9-1.88,4.54-4.79,4.81-1.12.1-2.25.05-3.37.05-104.64,0-209.29,0-313.93,0-7.23,0-8.29-1.04-8.29-8.16,0-13.75,0-27.5,0-41.25,0-1.34,0-2.68,0-4.51-2.52,0-4.6.06-6.68-.01-3.89-.14-5.81-1.93-5.85-5.75-.08-8.62-.08-17.25,0-25.88.04-3.79,1.97-5.68,5.86-5.82,3.75-.14,7.52-.25,11.25.02,3.5.26,5.05-.75,6.2-4.4,7.95-25.19,23.62-43.93,47.6-55.45.9-.43,1.83-.79,2.75-1.18.91-.38,1.82-.75,3.25-1.34-2.27-6.91-4.5-13.72-6.79-20.71-3.37-.1-6.78-.33-7.29-4.62-.5-4.28,2.6-5.5,5.97-6.41.27-2.86.35-5.71.83-8.5,2.13-12.62,11.78-21.95,24.86-24.18,11.82-2.01,24.33,4.21,30.14,15.19,1.2,2.26,2.02,3.89,5.2,3.09,2.52-.64,4.62.92,5.37,3.57,1.04,3.67-1.12,5.56-4.48,7.02,1.86,11.99,3.73,24.02,5.62,36.19,12.86.72,24.92-1.3,36.84-5.04,3.74-1.18,5.89-3,6.92-6.76.95-3.48,2.43-6.81,3.75-10.18,1.66-4.23,3.96-5.29,8.24-3.76,5.27,1.89,10.5,3.88,16.06,5.94,3.22-8.56,6.33-16.83,9.44-25.1,1.98-5.26,3.89-10.54,5.98-15.75.73-1.84.71-2.99-.93-4.49-6.22-5.68-7.48-12.68-4.7-20.51.79-2.23,1.61-4.46,2.54-6.64,1.45-3.43,3.78-4.69,7.16-3.47,8.69,3.13,17.34,6.37,25.93,9.75,3.08,1.21,4.34,3.72,3.09,7.01-1.33,3.49-2.45,7.13-4.26,10.36-3.31,5.92-8.75,8.82-15.45,8.97-2,.05-2.85.65-3.5,2.39-4.91,13.22-9.89,26.41-14.83,39.62-.17.44-.2.94-.36,1.67,4.38,1.64,8.7,3.24,12.99,4.87,7.75,2.94,8.2,3.8,5.91,11.74,7.91,6.06,15.28,13.29,25.48,15.67,4.17.97,8.75,1.22,12.99.68,25.76-3.31,45.97,7.41,57.43,31.02,1.74,3.57,3.08,7.37,4.21,11.19.58,1.98,1.43,2.59,3.35,2.51,3-.12,6-.12,9,0,4.06.17,5.9,2.05,5.94,6.14.07,8.37.06,16.75,0,25.13-.03,4.3-1.86,6.08-6.18,6.19-1.96.05-3.93,0-6.37,0Zm-10.67.27H23.34v42.86h309.06v-42.86Zm-159.19-93.37c-.25,0-.65-.09-.99.01-19.35,6.15-38.84,5.86-58.46,1.5-8.26-1.84-16.58-2.12-24.92-.45-18.95,3.79-32.96,14.86-44.11,30.04-5.35,7.28-9.25,15.32-11.71,24.32h293.78c-3.91-21.34-25.69-37.52-47.15-34.32-14.45,2.15-26.91-1.45-38.3-10.04-2.65-2-5.32-3.98-8.22-6.15-1.88,4.91-3.59,9.38-5.47,14.27,3.3.84,6.15,1.69,9.06,2.29,3.79.78,5.79,2.86,5.38,5.86-.45,3.24-3.27,5.27-6.98,4.3-6.01-1.58-11.91-3.55-17.81-5.51-7.22-2.39-14.25-5.37-22.2-3.88-9.08,1.7-18.2,3.18-27.33,4.54-4.4.66-6.93-1.1-7.26-4.46-.34-3.43,1.76-5.44,6.11-5.96,2.78-.33,5.56-.76,8.03-1.1-.51-5.42-.96-10.2-1.44-15.27Zm171.81,66.4H10.76v15.91h334.26v-15.91ZM87.25,92.95c12.96-2.97,25.39-.18,38.36,2.39-1.75-11.34-3.41-22.01-5.12-33.06-13.52,3.27-26.76,6.48-40.2,9.74,2.39,7.2,4.62,13.89,6.97,20.94Zm104.93-11.31c-2.7,7.7-5.55,15.13-7.83,22.74-.7,2.34.04,5.17.35,7.74.29,2.41,1.63,2.96,4.17,2.73,5.81-.53,11.69-.89,17.5-.55,3.75.22,7.42,1.78,11.62,2.87,2.86-7.5,5.68-14.89,8.61-22.55-4.27-1.6-8.17-3.06-12.22-4.58-.81,2.16-1.45,3.91-2.13,5.64-1.51,3.82-4.03,5.3-7.14,4.24-3.07-1.04-4.07-3.89-2.73-7.78.64-1.85,1.28-3.7,2.04-5.87-4.1-1.55-7.91-2.99-12.22-4.62Zm-76.35-29.08c-3.86-9.03-13.98-13.33-23.28-10.18-8.08,2.74-14.03,11.69-12.22,18.78,11.81-2.86,23.62-5.72,35.5-8.6ZM228.81,12.05c-1.93,3.93-2.62,7.47.23,10.54,2.68,2.89,6.19,4.22,10.15,3.05,3.61-1.07,5.07-3.91,5.7-7.55-5.44-2.05-10.64-4-16.07-6.04Z"/>
      <path d="m75.51,231.26c-3.74,0-7.47,0-11.21,0-3.28,0-5.16-1.71-5.58-4.85-.38-2.87,1.96-5.49,5.28-5.56,7.97-.16,15.95-.17,23.91.02,3.09.07,5.1,1.93,5.17,5.25.07,3.09-2.06,5.04-5.61,5.12-3.98.08-7.97.02-11.96.02Z"/>
    </g>
  </g>
</svg>