<?xml version="1.0" standalone="no"?>
<!DOCTYPE svg PUBLIC "-//W3C//DTD SVG 20010904//EN"
 "http://www.w3.org/TR/2001/REC-SVG-20010904/DTD/svg10.dtd">
<svg version="1.0" xmlns="http://www.w3.org/2000/svg"
 width="512.000000pt" height="512.000000pt" viewBox="0 0 512.000000 512.000000"
 preserveAspectRatio="xMidYMid meet">
<metadata>
Created by potrace 1.16, written by Peter Selinger 2001-2019
</metadata>
<g transform="translate(0.000000,512.000000) scale(0.100000,-0.100000)"
fill="#000000" stroke="none">
<path d="M2511 5092 c-25 -25 -29 -37 -35 -122 -26 -361 -136 -702 -321 -995
-84 -134 -155 -223 -302 -379 -120 -127 -133 -144 -133 -176 0 -47 33 -80 81
-80 30 0 45 12 142 113 223 232 343 399 462 642 108 219 176 435 207 648 9 68
15 84 24 75 7 -7 69 -116 140 -243 259 -467 292 -549 302 -738 8 -160 -24
-304 -102 -453 -45 -87 -46 -125 -7 -165 24 -24 38 -29 75 -29 42 0 52 5 120
65 40 35 100 94 133 131 l59 66 76 -173 c141 -321 224 -549 273 -749 89 -360
-30 -763 -308 -1043 -175 -176 -382 -286 -624 -333 -115 -23 -319 -22 -428 1
-341 72 -623 275 -800 575 -231 393 -212 903 48 1320 52 83 60 127 27 160 -21
21 -69 26 -100 10 -46 -24 -166 -253 -220 -420 -58 -177 -74 -279 -73 -470 0
-240 40 -413 141 -615 51 -103 82 -151 160 -249 36 -45 48 -66 36 -62 -11 3
-129 35 -264 71 -270 73 -333 79 -388 38 -56 -41 -71 -79 -142 -350 l-11 -43
-107 0 c-126 0 -171 -16 -220 -76 -46 -56 -54 -96 -50 -273 3 -135 6 -161 24
-196 26 -51 94 -103 143 -111 l38 -6 48 -181 c51 -191 71 -229 136 -263 57
-29 113 -18 746 151 538 144 621 169 641 191 44 50 12 124 -55 124 -20 0 -305
-72 -633 -160 -328 -88 -604 -160 -613 -160 -22 0 -30 18 -68 165 -17 65 -33
124 -35 130 -2 5 0 15 4 22 4 7 194 62 422 123 228 61 633 170 899 241 398
107 504 132 590 139 181 15 309 49 471 126 76 36 196 72 610 183 283 76 520
136 526 134 6 -2 30 -72 52 -156 32 -120 39 -155 29 -164 -7 -7 -449 -130
-982 -273 -786 -210 -973 -264 -987 -281 -26 -31 -23 -81 7 -109 25 -24 23
-24 145 -4 26 4 227 -46 805 -201 424 -113 792 -213 819 -221 63 -18 149 -18
185 0 65 34 85 72 136 263 l48 181 37 6 c58 9 118 59 147 122 24 52 25 61 21
223 l-3 169 -30 44 c-37 52 -86 86 -135 94 l-37 6 -42 162 c-23 88 -51 180
-63 204 -27 58 -93 97 -163 95 -38 0 -618 -148 -704 -178 -16 -6 -21 -15 75
112 167 221 256 488 257 773 0 167 -16 253 -90 485 -69 214 -255 668 -313 763
-28 46 -76 72 -133 72 -54 0 -78 -10 -121 -49 -26 -24 -28 -25 -22 -4 28 92
34 291 11 415 -22 125 -59 222 -155 403 -166 311 -375 677 -406 711 -27 29
-38 34 -78 34 -39 0 -53 -5 -75 -28z m-1052 -3827 c327 -88 450 -125 522 -159
52 -24 113 -50 137 -57 27 -8 38 -15 30 -20 -21 -11 -545 -149 -568 -149 -36
0 -654 170 -661 182 -4 6 -5 16 -3 22 2 6 20 72 40 146 41 152 40 150 60 150
9 0 208 -52 443 -115z m-658 -321 c24 -29 82 -50 267 -99 100 -27 182 -51 182
-54 0 -3 -118 -37 -263 -75 -144 -38 -274 -75 -289 -83 -42 -20 -114 -17 -138
7 -18 18 -20 33 -20 148 0 174 -2 172 139 172 87 0 111 -3 122 -16z m3763 -6
c13 -18 16 -51 16 -150 0 -115 -2 -130 -20 -148 -24 -24 -96 -27 -138 -7 -15
8 -145 45 -289 83 -145 38 -263 72 -263 75 0 3 123 38 274 78 151 41 280 77
287 82 8 5 37 9 66 9 42 0 55 -4 67 -22z m-604 -343 c217 -58 399 -110 403
-114 7 -7 -52 -247 -73 -299 -5 -12 -15 -22 -22 -22 -29 -1 -1378 364 -1371
371 13 12 636 177 653 173 8 -2 193 -51 410 -109z"/>
<path d="M1063 1238 c-14 -14 -23 -37 -23 -55 0 -61 16 -69 295 -143 149 -40
268 -67 280 -64 11 4 28 13 38 22 23 20 23 86 -1 110 -19 19 -449 140 -527
149 -33 4 -44 1 -62 -19z"/>
<path d="M3481 584 c-12 -15 -21 -39 -21 -54 0 -58 15 -64 355 -156 176 -47
335 -86 354 -86 21 0 41 8 54 21 27 27 28 85 2 110 -22 21 -640 191 -694 191
-20 0 -36 -8 -50 -26z"/>
<path d="M2498 3189 c-19 -7 -49 -45 -101 -127 -253 -401 -379 -669 -423 -900
-22 -116 -15 -272 16 -361 67 -189 243 -345 437 -386 371 -79 711 178 731 551
4 89 4 91 -23 112 -36 28 -67 28 -101 -2 -24 -20 -29 -34 -35 -97 -9 -94 -39
-173 -93 -247 -104 -141 -295 -205 -463 -153 -185 56 -309 208 -320 395 -13
194 82 455 293 807 l87 147 32 -94 c54 -156 122 -257 310 -457 92 -98 103
-107 137 -107 28 0 42 6 57 26 41 52 21 94 -110 231 -179 187 -261 345 -285
548 -8 71 -25 100 -66 114 -36 13 -44 13 -80 0z"/>
<path d="M3634 1167 c-191 -52 -310 -89 -323 -101 -32 -29 -29 -88 5 -115 15
-12 34 -21 43 -21 9 0 158 38 331 84 337 90 350 96 350 158 0 38 -40 78 -77
77 -15 0 -164 -37 -329 -82z"/>
<path d="M1911 705 c-373 -100 -650 -180 -660 -189 -25 -26 -21 -94 8 -117 13
-10 33 -19 45 -19 41 0 1330 351 1348 367 11 10 18 30 18 55 0 51 -27 78 -77
77 -21 0 -328 -79 -682 -174z"/>
</g>
</svg>
