<?xml version="1.0" encoding="UTF-8"?>
<svg id="_Слой_2" data-name="Слой 2" xmlns="http://www.w3.org/2000/svg" viewBox="0 0 384 384">
  <defs>
    <style>
      .cls-1 {
        fill: #fff;
      }
    </style>
  </defs>
  <g id="_Слой_1-2" data-name="Слой 1">
    <g>
      <path class="cls-1" d="m384,10.5c-1.75,8.26-3.56,16.5-5.23,24.77-1.63,8.07-2.85,16.24-4.83,24.23-.65,2.62-2.64,5.51-4.86,7.04-13.06,8.99-26.4,17.58-39.58,26.4-1.71,1.15-3.29,2.68-4.51,4.35-5.51,7.58-10.85,15.28-16.29,22.9-3.24,4.53-5.59,5.17-10.91,3.34-.73-.25-2.02-.13-2.51.36-15.95,15.84-31.82,31.75-48.11,48.04,5.67,5.58,11.17,10.98,16.65,16.41,3.55,3.52,7.15,7,10.58,10.63,3.25,3.44,3.41,7.37.18,10.7-7.13,7.36-14.37,14.61-21.73,21.75-3.46,3.36-7.57,3.01-11.26-.65-7.9-7.83-15.76-15.7-23.58-23.61-.95-.96-1.59-2.24-2.16-3.07-15.17,15.16-29.64,29.62-44.31,44.28,8.11,8.1,16.41,16.39,24.7,24.69,5.97,5.97,5.97,9.11.02,15.06-6.1,6.1-12.17,12.22-18.3,18.29-4.78,4.74-8.35,4.71-13.16-.09-8.58-8.55-17.12-17.14-25.86-25.88-.96.85-1.81,1.53-2.58,2.3-20.86,20.85-41.71,41.71-62.59,62.54-1.49,1.49-2.37,2.58-1.45,5.05,5.39,14.43-2.4,29.01-17.36,32.99-.59.16-1.14.46-1.7.69h-8.25c-7.66-1.97-13.28-6.88-18.54-12.47-4.6-4.9-9.35-9.67-14.26-14.25C6.68,352.11,1.94,346.51,0,339,0,336.25,0,333.5,0,330.75c.31-.94.64-1.87.92-2.82,4.2-13.99,18.75-21.47,32.41-16.38,2.52.94,3.74.38,5.4-1.29,28.14-28.22,56.34-56.39,84.52-84.57,4.97-4.97,9.01-5.68,12.6-2.21,3.57,3.45,2.85,7.96-2.1,12.9-10.52,10.5-21.05,20.98-31.41,31.31,4.69,4.69,9.17,9.17,13.4,13.4,36.37-36.38,72.98-72.99,109.45-109.47-4.17-4.17-8.63-8.64-13.35-13.36-6.11,6.11-12.36,12.37-18.6,18.62-2.65,2.65-5.29,5.31-7.95,7.95-4.32,4.3-8.75,4.87-12.11,1.58-3.39-3.33-2.89-7.76,1.42-12.06,27.82-27.83,55.65-55.67,83.5-83.48,1.87-1.87,3.51-3.18,1.81-6.52-1.7-3.32.23-6.47,3.32-8.65,7.76-5.46,15.54-10.9,23.2-16.5,1.86-1.36,3.6-3.11,4.88-5.03,8.56-12.75,17.06-25.54,25.39-38.44,2.28-3.52,5.09-5.37,9.25-6.12,15.47-2.8,30.88-5.92,46.31-8.94.44-.09.83-.45,1.25-.68,3.5,0,7,0,10.5,0v10.5Zm-60.99,68.68c10.42-6.9,20.9-13.83,30.75-20.34-9.53-9.66-18.92-19.19-28.43-28.83-6.81,10.31-13.73,20.78-20.47,30.99,6.11,6.13,11.99,12.02,18.15,18.19ZM47.96,369.1c5.45-.35,8.57-2.18,10.22-5.96,1.79-4.09.94-7.89-2.15-11.02-7.97-8.09-15.96-16.16-24.09-24.08-4.3-4.19-10.19-4.11-14.08-.17-3.91,3.96-3.87,9.76.34,14.05,7.87,8.01,15.77,16,23.87,23.77,1.85,1.78,4.56,2.67,5.89,3.41Zm210.33-230.5c8.89-8.9,17.93-17.95,26.73-26.77-4.22-4.23-8.7-8.71-12.91-12.92-8.85,8.89-17.87,17.96-26.69,26.82,4.22,4.22,8.71,8.7,12.87,12.87Zm-175.59,175.96c-4.47-4.47-8.94-8.94-12.94-12.95-6.95,6.93-14.16,14.12-20.93,20.88,4.2,4.21,8.65,8.68,12.95,12.99,6.89-6.88,14.03-14.02,20.93-20.92Zm196.65-231.88c7.49,7.5,14.68,14.7,21.98,22,3.25-4.59,6.76-9.54,10.01-14.12-6.06-6.07-11.85-11.85-17.86-17.87-4.64,3.28-9.6,6.79-14.12,9.99Zm-21.3,121.74c-7.09-7.05-14.33-14.25-21.24-21.12-3.5,3.3-7.2,6.78-10.56,9.95,7.24,7.26,14.44,14.46,21.49,21.53,3.35-3.37,6.94-6.96,10.31-10.35Zm-86.91,86.18c3.51-3.42,7.13-6.94,10.17-9.9-6.98-6.97-14.18-14.16-21.25-21.21-3.19,3.17-6.72,6.68-10.12,10.06,7.2,7.15,14.44,14.35,21.2,21.06ZM361.99,42.93c1.58-8.21,3.24-16.8,4.99-25.91-9.25,1.8-17.84,3.47-25.89,5.03,7,7,13.92,13.91,20.89,20.88Zm-127.95,93.87c-3.57,3.54-7.16,7.12-10.33,10.27,4.37,4.39,8.88,8.93,12.89,12.96,3.43-3.24,7.1-6.71,10.69-10.11-4.39-4.35-8.8-8.71-13.25-13.13Zm-152.92,152.67c4.47,4.5,8.97,9.05,12.92,13.03,3.48-3.19,7.2-6.61,10.49-9.63-4.49-4.59-8.89-9.11-13.12-13.44-3.51,3.43-7.14,6.98-10.28,10.05Z"/>
      <path class="cls-1" d="m154.39,212.36c-4.11-.07-7.37-3.38-7.33-7.45.04-3.98,3.48-7.42,7.45-7.43,4.15-.02,7.62,3.57,7.48,7.74-.14,4.11-3.44,7.21-7.61,7.14Z"/>
    </g>
  </g>
</svg>