<?xml version="1.0" encoding="UTF-8"?>
<svg id="_Слой_2" data-name="Слой 2" xmlns="http://www.w3.org/2000/svg" viewBox="0 0 181.73 384">
  <g id="_Слой_1-2" data-name="Слой 1">
    <path d="m9.96,384c-11.06-5.55-10.62-11.33-9.27-23.31.64-5.7,5.8-9.49,11.68-9.86,3.71-.23,7.44-.04,11.66-.04,0-3.33.15-6.17-.09-8.98-.07-.89-1.01-1.91-1.82-2.5-5.33-3.92-7.98-9.12-7.91-15.73.04-4.25-.1-8.5.07-12.75.4-10,7.88-17.54,17.82-17.46,3.8.03,5.32-1.31,6.63-4.68,6.8-17.49,10.2-35.73,12.35-54.25,2.45-21.14,2.83-42.38,2.39-63.64-.01-.61-.11-1.23-.17-1.8-10.73-2.33-15.94-7.18-16.43-15.18-.52-8.53,3.6-13.93,13.74-17.58-1.86-11.94-3.73-23.97-5.63-36.18-3.92-.2-7.74-.57-8.09-5.44-.29-4.07,2.5-5.62,6.2-6.28-.27-1.81-.54-3.39-.75-4.97-1.22-8.96,4.58-15.74,13.62-15.84,5.09-.06,10.18-.01,15.44-.01v-12.07c-1.72,0-3.42.06-5.1-.01-6.97-.28-11.96-5.27-12.16-12.19-.08-2.87-.05-5.75-.02-8.62.08-8.19,4.74-12.99,12.97-13.34,1.35-.06,2.7,0,4.04,0,.54-2.88.79-5.49,1.55-7.95C74.9,6.08,80.47,2.36,87.22,0,89.72,0,92.22,0,94.72,0c3.39,1.99,7.15,3.56,10.09,6.08,4.31,3.7,5.48,9.06,5.66,15.19,1.51,0,2.95-.05,4.39,0,8.22.35,12.88,5.15,12.97,13.33.03,2.62.04,5.25,0,7.87-.12,7.83-5.1,12.82-12.93,12.96-1.35.02-2.7,0-4.29,0v12.06c4.71,0,9.3,0,13.89,0,11.21.01,16.64,6.54,14.74,17.7-.15.86-.2,1.73-.33,2.87,3.53,1.12,6.97,2.63,6.06,7.3-.79,4.07-4.08,4.59-7.97,4.57-1.89,12.04-3.78,24.06-5.71,36.32,5.02,1.39,9.55,3.55,11.6,8.28,1.34,3.08,2.14,6.72,1.98,10.05-.37,7.6-5.67,12.01-16.18,14.43,0,12.47,0,24.95,0,37.43,0,1.25.12,2.51-.06,3.74-.42,2.88-2.29,4.43-5.1,4.59-2.8.15-4.89-1.17-5.59-3.98-.41-1.68-.52-3.47-.52-5.2-.04-12.11-.02-24.22-.02-36.63h-52.62c.44,42.01-.83,83.85-15.6,124.28,3.51,0,6.63-.07,9.74.02,3.78.11,6.13,2.36,6.08,5.67-.04,3.28-2.43,5.5-6.24,5.53-8.25.07-16.5,0-24.75.03-6.11.02-8.46,2.31-8.54,8.29-.05,3.62-.08,7.25.02,10.87.13,4.9,2.48,7.25,7.41,7.58,1,.07,2,.03,3,.03,36.76,0,73.51,0,110.27,0,8.5,0,10.33-1.83,10.34-10.34,0-2.75.04-5.5-.01-8.25-.1-5.78-2.48-8.17-8.28-8.17-19.88-.03-39.76-.01-59.63-.01-1,0-2,.03-3,0-3.79-.16-6.14-2.34-6.13-5.65.02-3.31,2.36-5.55,6.18-5.56,14.25-.06,28.5-.03,42.76-.03,1.35,0,2.69,0,4.12,0-2.33-7.81-5.04-15.21-6.68-22.84-2.44-11.34-4.17-22.83-6.08-34.27-.61-3.65,1.41-6.42,4.65-6.95,3.34-.55,5.7,1.62,6.49,5.62,2.91,14.67,5.78,29.35,8.94,43.97.84,3.86,2.78,7.48,4,11.27.81,2.52,2.22,3.3,4.88,3.28,8.9-.07,16.53,4.45,17.84,12.41,1.29,7.85.79,16.11.06,24.1-.27,2.91-2.93,6.22-5.44,8.14-2.85,2.18-3.58,4.42-3.28,7.59.14,1.48.02,2.98.02,5.14,3.04,0,5.86-.02,8.67,0,10.21.07,15.28,5.05,15.15,15.2-.04,3.45.21,7.41-1.36,10.18-1.82,3.2-5.5,5.34-8.37,7.93h-27.76c-2.54-1.85-4.65-3.97-3.37-7.46,1.25-3.44,4.14-3.86,7.35-3.81,6.12.09,12.24.07,18.36-.01,1.17-.02,3.28-.4,3.34-.85.4-2.79.71-5.72.2-8.44-.14-.77-3.12-1.43-4.8-1.44-31.73-.08-63.45-.06-95.18-.06-17.99,0-35.97-.02-53.96.04-1.42,0-3.96.33-4.07.88-.53,2.75-.73,5.67-.32,8.42.11.7,2.87,1.43,4.42,1.43,34.1.08,68.2.08,102.3.04,3.2,0,6.09.37,7.35,3.81,1.28,3.5-.84,5.61-3.37,7.47H9.96ZM56.38,99.99c1.83,11.79,3.54,23.12,5.46,34.42.14.8,1.81,1.9,2.77,1.91,17.61.11,35.22.12,52.83-.02.94,0,2.51-1.42,2.7-2.39,1.18-6.12,2.07-12.3,3.03-18.46.79-5.09,1.53-10.2,2.32-15.45H56.38Zm42.73-32.67c0-5.89-.07-11.48.02-17.08.07-3.95,2.09-5.92,6.06-6.03,3-.09,6,.09,8.99-.11.82-.05,2.2-1.01,2.25-1.63.23-3.17.11-6.37.11-9.99-4.15,0-7.75.08-11.35-.02-4.03-.11-5.92-2.02-6.06-6-.08-2.37.08-4.75-.08-7.12-.33-4.84-3.72-8.12-8.16-8.07-4.43.04-7.72,3.37-8.02,8.23-.12,1.87-.02,3.75-.04,5.62-.04,5.65-1.71,7.33-7.37,7.37-3.29.02-6.58,0-10.1,0,0,3.56.1,6.3-.03,9.03-.1,2.24.96,2.78,2.95,2.69,2.49-.11,5-.04,7.49-.02,5.14.05,7,1.87,7.04,6.96.04,5.33,0,10.66,0,16.16h16.29Zm47.36,275.43H35.53v7.58h110.95v-7.58Zm-55.43-195.1c-12.25,0-24.5-.02-36.76,0-4.14,0-6.19,1.68-6.18,4.84.02,3.13,2.13,4.89,6.22,4.89,24.38.03,48.76.03,73.14,0,4.29,0,6.48-1.85,6.36-5.13-.12-3.13-2.1-4.6-6.41-4.6-12.13-.02-24.25,0-36.38,0Zm-.06-68.91c-11.12,0-22.24-.03-33.36.04-1.27,0-3.6.54-3.62.93-.14,2.55-.05,5.2.59,7.66.18.68,2.45,1.16,3.76,1.16,21.24.07,42.49.05,63.73.05q5.23,0,6.11-5.21c.7-4.12.3-4.63-3.84-4.63-11.12-.02-22.24,0-33.36,0Z"/>
  </g>
</svg>