<?xml version="1.0" encoding="UTF-8"?>
<svg id="_Слой_2" data-name="Слой 2" xmlns="http://www.w3.org/2000/svg" viewBox="0 0 435.87 511.95">
  <defs>
    <style>
      .cls-1 {
        fill: #fff;
      }
    </style>
  </defs>
  <g id="_Слой_1-2" data-name="Слой 1">
    <g>
      <path class="cls-1" d="m212.99,2.8c-2.5,2.5-2.9,3.7-3.5,12.2-2.6,36.1-13.6,70.2-32.1,99.5-8.4,13.4-15.5,22.3-30.2,37.9-12,12.7-13.3,14.4-13.3,17.6,0,4.7,3.3,8,8.1,8,3,0,4.5-1.2,14.2-11.3,22.3-23.2,34.3-39.9,46.2-64.2,10.8-21.9,17.6-43.5,20.7-64.8.9-6.8,1.5-8.4,2.4-7.5.7.7,6.9,11.6,14,24.3,25.9,46.7,29.2,54.9,30.2,73.8.8,16-2.4,30.4-10.2,45.3-4.5,8.7-4.6,12.5-.7,16.5,2.4,2.4,3.8,2.9,7.5,2.9,4.2,0,5.2-.5,12-6.5,4-3.5,10-9.4,13.3-13.1l5.9-6.6,7.6,17.3c14.1,32.1,22.4,54.9,27.3,74.9,8.9,36-3,76.3-30.8,104.3-17.5,17.6-38.2,28.6-62.4,33.3-11.5,2.3-31.9,2.2-42.8-.1-34.1-7.2-62.3-27.5-80-57.5-23.1-39.3-21.2-90.3,4.8-132,5.2-8.3,6-12.7,2.7-16-2.1-2.1-6.9-2.6-10-1-4.6,2.4-16.6,25.3-22,42-5.8,17.7-7.4,27.9-7.3,47,0,24,4,41.3,14.1,61.5,5.1,10.3,8.2,15.1,16,24.9,3.6,4.5,4.8,6.6,3.6,6.2-1.1-.3-12.9-3.5-26.4-7.1-27-7.3-33.3-7.9-38.8-3.8-5.6,4.1-7.1,7.9-14.2,35l-1.1,4.3h-10.7c-12.6,0-17.1,1.6-22,7.6-4.6,5.6-5.4,9.6-5,27.3.3,13.5.6,16.1,2.4,19.6,2.6,5.1,9.4,10.3,14.3,11.1l3.8.6,4.8,18.1c5.1,19.1,7.1,22.9,13.6,26.3,5.7,2.9,11.3,1.8,74.6-15.1,53.8-14.4,62.1-16.9,64.1-19.1,4.4-5,1.2-12.4-5.5-12.4-2,0-30.5,7.2-63.3,16s-60.4,16-61.3,16c-2.2,0-3-1.8-6.8-16.5-1.7-6.5-3.3-12.4-3.5-13-.2-.5,0-1.5.4-2.2s19.4-6.2,42.2-12.3,63.3-17,89.9-24.1c39.8-10.7,50.4-13.2,59-13.9,18.1-1.5,30.9-4.9,47.1-12.6,7.6-3.6,19.6-7.2,61-18.3,28.3-7.6,52-13.6,52.6-13.4s3,7.2,5.2,15.6c3.2,12,3.9,15.5,2.9,16.4-.7.7-44.9,13-98.2,27.3-78.6,21-97.3,26.4-98.7,28.1-2.6,3.1-2.3,8.1.7,10.9,2.5,2.4,2.3,2.4,14.5.4,2.6-.4,22.7,4.6,80.5,20.1,42.4,11.3,79.2,21.3,81.9,22.1,6.3,1.8,14.9,1.8,18.5,0,6.5-3.4,8.5-7.2,13.6-26.3l4.8-18.1,3.7-.6c5.8-.9,11.8-5.9,14.7-12.2,2.4-5.2,2.5-6.1,2.1-22.3l-.3-16.9-3-4.4c-3.7-5.2-8.6-8.6-13.5-9.4l-3.7-.6-4.2-16.2c-2.3-8.8-5.1-18-6.3-20.4-2.7-5.8-9.3-9.7-16.3-9.5-3.8,0-61.8,14.8-70.4,17.8-1.6.6-2.1,1.5,7.5-11.2,16.7-22.1,25.6-48.8,25.7-77.3,0-16.7-1.6-25.3-9-48.5-6.9-21.4-25.5-66.8-31.3-76.3-2.8-4.6-7.6-7.2-13.3-7.2-5.4,0-7.8,1-12.1,4.9-2.6,2.4-2.8,2.5-2.2.4,2.8-9.2,3.4-29.1,1.1-41.5-2.2-12.5-5.9-22.2-15.5-40.3C252.29,43.4,231.39,6.8,228.29,3.4c-2.7-2.9-3.8-3.4-7.8-3.4s-5.3.5-7.5,2.8Zm-105.2,382.7c32.7,8.8,45,12.5,52.2,15.9,5.2,2.4,11.3,5,13.7,5.7,2.7.8,3.8,1.5,3,2-2.1,1.1-54.5,14.9-56.8,14.9-3.6,0-65.4-17-66.1-18.2-.4-.6-.5-1.6-.3-2.2s2-7.2,4-14.6c4.1-15.2,4-15,6-15,.9,0,20.8,5.2,44.3,11.5Zm-65.8,32.1c2.4,2.9,8.2,5,26.7,9.9,10,2.7,18.2,5.1,18.2,5.4s-11.8,3.7-26.3,7.5c-14.4,3.8-27.4,7.5-28.9,8.3-4.2,2-11.4,1.7-13.8-.7-1.8-1.8-2-3.3-2-14.8,0-17.4-.2-17.2,13.9-17.2,8.7,0,11.1.3,12.2,1.6Zm376.3.6c1.3,1.8,1.6,5.1,1.6,15,0,11.5-.2,13-2,14.8-2.4,2.4-9.6,2.7-13.8.7-1.5-.8-14.5-4.5-28.9-8.3-14.5-3.8-26.3-7.2-26.3-7.5s12.3-3.8,27.4-7.8c15.1-4.1,28-7.7,28.7-8.2.8-.5,3.7-.9,6.6-.9,4.2,0,5.5.4,6.7,2.2Zm-60.4,34.3c21.7,5.8,39.9,11,40.3,11.4.7.7-5.2,24.7-7.3,29.9-.5,1.2-1.5,2.2-2.2,2.2-2.9.1-137.8-36.4-137.1-37.1,1.3-1.2,63.6-17.7,65.3-17.3.8.2,19.3,5.1,41,10.9Z"/>
      <path class="cls-1" d="m68.19,388.2c-1.4,1.4-2.3,3.7-2.3,5.5,0,6.1,1.6,6.9,29.5,14.3,14.9,4,26.8,6.7,28,6.4,1.1-.4,2.8-1.3,3.8-2.2,2.3-2,2.3-8.6-.1-11-1.9-1.9-44.9-14-52.7-14.9-3.3-.4-4.4-.1-6.2,1.9Z"/>
      <path class="cls-1" d="m309.99,453.6c-1.2,1.5-2.1,3.9-2.1,5.4,0,5.8,1.5,6.4,35.5,15.6,17.6,4.7,33.5,8.6,35.4,8.6,2.1,0,4.1-.8,5.4-2.1,2.7-2.7,2.8-8.5.2-11-2.2-2.1-64-19.1-69.4-19.1-2,0-3.6.8-5,2.6Z"/>
      <path class="cls-1" d="m211.69,193.1c-1.9.7-4.9,4.5-10.1,12.7-25.3,40.1-37.9,66.9-42.3,90-2.2,11.6-1.5,27.2,1.6,36.1,6.7,18.9,24.3,34.5,43.7,38.6,37.1,7.9,71.1-17.8,73.1-55.1.4-8.9.4-9.1-2.3-11.2-3.6-2.8-6.7-2.8-10.1.2-2.4,2-2.9,3.4-3.5,9.7-.9,9.4-3.9,17.3-9.3,24.7-10.4,14.1-29.5,20.5-46.3,15.3-18.5-5.6-30.9-20.8-32-39.5-1.3-19.4,8.2-45.5,29.3-80.7l8.7-14.7,3.2,9.4c5.4,15.6,12.2,25.7,31,45.7,9.2,9.8,10.3,10.7,13.7,10.7,2.8,0,4.2-.6,5.7-2.6,4.1-5.2,2.1-9.4-11-23.1-17.9-18.7-26.1-34.5-28.5-54.8-.8-7.1-2.5-10-6.6-11.4-3.6-1.3-4.4-1.3-8,0Z"/>
      <path class="cls-1" d="m325.29,395.3c-19.1,5.2-31,8.9-32.3,10.1-3.2,2.9-2.9,8.8.5,11.5,1.5,1.2,3.4,2.1,4.3,2.1s15.8-3.8,33.1-8.4c33.7-9,35-9.6,35-15.8,0-3.8-4-7.8-7.7-7.7-1.5,0-16.4,3.7-32.9,8.2Z"/>
      <path class="cls-1" d="m152.99,441.5c-37.3,10-65,18-66,18.9-2.5,2.6-2.1,9.4.8,11.7,1.3,1,3.3,1.9,4.5,1.9,4.1,0,133-35.1,134.8-36.7,1.1-1,1.8-3,1.8-5.5,0-5.1-2.7-7.8-7.7-7.7-2.1,0-32.8,7.9-68.2,17.4Z"/>
    </g>
  </g>
</svg>