<?xml version="1.0" encoding="UTF-8"?>
<svg id="_Слой_2" data-name="Слой 2" xmlns="http://www.w3.org/2000/svg" viewBox="0 0 309.15 374.23">
  <g id="_Слой_1-2" data-name="Слой 1">
    <g>
      <path d="m82.98,170.55c3.97-9.94,9.35-13.58,19.65-13.59,10.09,0,20.19,0,30.59,0,.08-1.54.2-2.75.21-3.97.01-17.12-.04-34.24.06-51.36.01-2.46-.76-3.71-2.98-4.88-21.62-11.39-32-36.19-25.25-59.91C111.76,14.03,133.81-1.37,157.86.1c24.12,1.47,43.94,19.49,47.68,43.34,3.38,21.61-7.27,42.96-26.72,53.39-1.76.94-3,1.71-2.98,4.09.11,17.87.06,35.74.07,53.61,0,.61.11,1.22.21,2.24,1.37.06,2.69.18,4,.18,8.87.02,17.75,0,26.62.01,10.29.01,15.58,3.6,19.62,13.59,7.17,0,14.51,0,21.85,0,11.15.01,17.23,4.56,20.12,15.23,13.32,49.12,26.87,98.19,39.61,147.46,2.02,7.8,1.16,16.69.05,24.87-1.19,8.74-9.33,14.94-18.21,15.83-1.98.2-3.99.26-5.99.26-86.1.01-172.2,0-258.31.03-5.71,0-11.22-.52-16.03-4.06-6.21-4.57-8.57-10.84-9.24-18.37-1.28-14.37,3.37-27.61,6.99-41.06,11.11-41.32,22.33-82.61,33.49-123.92,3.2-11.86,8.91-16.26,21.22-16.27,6.99,0,13.98,0,21.07,0Zm212.79,160.41c-.24-1.12-.36-1.85-.55-2.55-8.23-30.47-16.46-60.93-24.7-91.4-4.39-16.26-8.8-32.51-13.15-48.78-.88-3.27-2.46-6.12-6.04-6.26-7.19-.29-14.4-.09-21.94-.09.35,1.45.58,2.53.87,3.6,4.45,16.5,9.14,32.94,13.29,49.51,2.62,10.46,6.93,20.54,6.52,31.73-.44,12.02-5.67,17.57-17.77,17.57-51.86,0-103.72,0-155.57-.02-1.86,0-3.76-.08-5.59-.42-5.91-1.09-11.13-5.89-11.48-11.8-.35-5.91-.43-12.12.99-17.79,5.82-23.1,12.26-46.04,18.46-69.05.28-1.02.44-2.07.72-3.42-6.4,0-12.39,0-18.38,0-6.54,0-8,1.12-9.71,7.42-12.17,44.91-24.34,89.82-36.5,134.73-.61,2.25-1.15,4.52-1.78,7.01h282.29Zm-162.28-162.75c-10.83,0-21.07-.02-31.3,0-5.35.01-7.08,1.31-8.49,6.5-4.23,15.52-8.41,31.06-12.62,46.59-2.9,10.7-5.8,21.4-8.76,32.35h164.38c-.04-.54-.01-.92-.11-1.27-7.1-26.37-14.18-52.75-21.35-79.11-.92-3.38-3.39-5.08-6.99-5.07-7.62.03-15.24,0-22.86,0-3.07,0-6.14,0-9.55,0,0,9.03.14,17.51-.04,25.98-.18,8.34-4.22,14.55-11.6,18.33-13.74,7.04-30.08-2.49-30.65-17.95-.32-8.59-.06-17.19-.06-26.35Zm164.08,174.38H11.74c0,3.94-.32,7.69.08,11.36.55,5.06,4.1,8.23,9.2,8.83,1.48.17,2.99.19,4.49.19,86.11,0,172.21,0,258.32,0,1.5,0,3-.02,4.49-.19,5.11-.6,8.63-3.75,9.18-8.84.4-3.67.08-7.42.08-11.35ZM154.99,11.22c-22.3-.12-40.61,17.89-40.61,39.95,0,22.24,17.88,40.29,40.15,40.53,21.96.24,40.35-18.08,40.4-40.24.05-22.03-17.91-40.12-39.94-40.24Zm-10.17,91.38c-.05.94-.13,1.8-.13,2.65,0,28.97,0,57.94,0,86.91,0,.87.03,1.75.13,2.62.55,4.66,4.23,8.26,8.89,8.72,4.57.45,9.12-2.45,10.41-6.86.44-1.53.5-3.2.5-4.81.03-28.72.02-57.44.01-86.16,0-1.09-.14-2.17-.2-3.06h-19.61Zm93.69,162.7H70.85c-.68,6.95.01,7.75,6.57,7.75,51.49,0,102.97,0,154.46,0,6.59,0,7.24-.74,6.64-7.75Z"/>
      <path d="m117.25,316.01c-4.86,0-9.71.05-14.57-.02-3.78-.06-6.25-2.23-6.37-5.43-.13-3.32,2.43-5.75,6.37-5.77,9.84-.06,19.68-.07,29.51,0,3.79.03,6.1,2.28,6.1,5.59,0,3.31-2.32,5.54-6.11,5.6-4.98.09-9.96.02-14.94.02Z"/>
      <path d="m70.26,304.78c4,0,8-.07,12,.02,3.75.08,6.23,2.4,6.22,5.6-.01,3.2-2.51,5.56-6.25,5.59-8.25.07-16.5.08-24.75,0-3.55-.04-5.89-2.31-6-5.42-.11-3.27,2.29-5.67,6.02-5.76,4.25-.1,8.5-.02,12.75-.03Z"/>
      <path d="m236.38,316c-2.75,0-5.5.12-8.24-.03-3.27-.19-5.41-2.48-5.44-5.53-.03-3.06,2.08-5.5,5.33-5.59,5.49-.16,10.99-.17,16.48,0,3.18.1,5.51,2.73,5.3,5.66-.23,3.14-2.04,5.14-5.19,5.41-2.73.24-5.49.05-8.24.05,0,0,0,.01,0,.02Z"/>
    </g>
  </g>
</svg>