<?xml version="1.0" encoding="UTF-8"?>
<svg id="_Слой_2" data-name="Слой 2" xmlns="http://www.w3.org/2000/svg" viewBox="0 0 97.1 96.97">
  <defs>
    <style>
      .cls-1 {
        fill: #fff;
      }
    </style>
  </defs>
  <g id="_Галочка1_Изображение" data-name="Галочка1 Изображение">
    <g>
      <path d="m0,51.23c0-1.83,0-3.67,0-5.5.04-.22.1-.43.11-.65.28-4.26,1.12-8.4,2.53-12.42C10.42,10.36,32.61-3.06,55.9.6c13.48,2.11,24.39,8.77,32.11,20.02,10.16,14.8,11.9,30.85,4.7,47.3-7.19,16.39-20.14,25.79-37.82,28.61-1.22.19-2.46.3-3.69.45h-5.5c-.2-.04-.39-.1-.59-.11-3.86-.27-7.62-1-11.31-2.15C15.54,88.99,2.14,72.55.25,53.52c-.08-.77-.16-1.53-.25-2.3Zm40.29,11.11c-.23-.26-.36-.44-.52-.59-5.07-5.07-10.14-10.15-15.2-15.22-.78-.78-1.18-.78-1.97.02-1.57,1.57-3.14,3.14-4.71,4.71-.76.76-.76,1.28.02,2.06,7.07,7.08,14.15,14.14,21.2,21.24.81.81,1.42.9,2.33,0,12.59-12.62,25.19-25.23,37.79-37.84.16-.16.32-.32.45-.5.42-.6.37-1.06-.16-1.59-1.61-1.61-3.23-3.23-4.84-4.84-.79-.79-1.18-.79-1.96,0-10.66,10.66-21.31,21.33-31.96,32-.16.16-.28.35-.45.57Z"/>
      <path class="cls-1" d="m40.29,62.33c.18-.23.3-.42.45-.57,10.65-10.67,21.31-21.33,31.96-32,.78-.78,1.17-.78,1.96,0,1.61,1.61,3.23,3.23,4.84,4.84.52.52.58.99.16,1.59-.13.18-.29.34-.45.5-12.6,12.61-25.2,25.22-37.79,37.84-.91.91-1.52.82-2.33,0-7.05-7.09-14.13-14.16-21.2-21.24-.77-.77-.78-1.29-.02-2.06,1.57-1.57,3.14-3.14,4.71-4.71.8-.8,1.19-.8,1.97-.02,5.07,5.07,10.14,10.15,15.2,15.22.16.16.3.34.52.59Z"/>
    </g>
  </g>
</svg>