<?xml version="1.0" encoding="UTF-8"?>
<svg id="_Слой_2" data-name="Слой 2" xmlns="http://www.w3.org/2000/svg" viewBox="0 0 352.17 344.18">
  <defs>
    <style>
      .cls-1 {
        fill: #fff;
      }
    </style>
  </defs>
  <g id="_Слой_1-2" data-name="Слой 1">
    <g>
      <path class="cls-1" d="m58.98,282.72c-.19-3.99-.38-7.99-.55-11.98-.13-2.98-1.55-4.96-4.47-5.72-5.67-1.47-11.38-2.81-17.03-4.34-3-.81-6.02-1.69-8.87-2.91-10.23-4.35-14.45-12.86-11.03-23.42,2.07-6.37,5.15-12.43,7.9-18.57,4.43-9.88,4.34-10.29-4.01-17.24-4.89-4.07-10.04-7.92-14.44-12.48-8.62-8.94-8.65-19.02.02-27.92,4.95-5.07,10.73-9.33,16.16-13.93,6.09-5.16,6.43-6.41,3.16-13.75-2.44-5.47-5.3-10.77-7.4-16.37-1.38-3.67-2.45-7.74-2.39-11.62.13-8.55,5.45-13.83,13.08-16.46,6.46-2.23,13.22-3.6,19.85-5.35,1.33-.35,2.65-.73,3.98-1.06,3.81-.94,5.56-3.34,5.62-7.28.11-7.37.14-14.76.66-22.1.86-12.29,7.67-19.26,18.91-19.57,2.97-.08,5.99.34,8.93.88,5.89,1.09,11.75,2.35,17.59,3.7,4.16.96,7.05-.35,8.91-4.17,1.8-3.7,3.6-7.41,5.53-11.05,1.99-3.74,3.84-7.61,6.26-11.06,6.6-9.39,15.94-11.46,25.87-5.68,4.08,2.37,7.78,5.41,11.6,8.21,2.32,1.7,4.49,3.59,6.81,5.29,5.78,4.22,7.27,4.25,12.95.09,3.22-2.36,6.23-5.03,9.47-7.36,3.54-2.54,7.06-5.23,10.92-7.19,8.4-4.27,16.66-2.58,22.49,4.79,3.06,3.87,5.31,8.42,7.73,12.77,2.06,3.71,3.86,7.55,5.72,11.37,1.8,3.7,4.65,4.93,8.63,4.03,5.97-1.34,11.93-2.72,17.96-3.76,3.42-.59,6.98-.96,10.42-.67,8.96.76,14.75,5.92,16.43,14.79.88,4.63.92,9.43,1.18,14.16.18,3.24-.03,6.5.13,9.74.41,8.41.89,8.88,9.2,11.04,7.11,1.85,14.42,3.25,21.24,5.86,10.61,4.06,14.46,12.75,11.24,23.62-.95,3.21-2.29,6.33-3.64,9.41-1.85,4.23-4,8.33-5.82,12.57-2.39,5.6-2.06,7.09,2.57,11.06,5.02,4.31,10.37,8.26,15.25,12.72,5.85,5.35,9.92,11.67,8,20.19-1.21,5.36-4.57,9.42-8.56,12.91-4.79,4.19-9.88,8.05-14.71,12.2-4.63,3.98-4.95,5.42-2.55,11.06,1.81,4.25,3.96,8.34,5.82,12.57,1.35,3.08,2.68,6.2,3.63,9.41,3.21,10.87-.69,19.47-11.26,23.64-5.65,2.23-11.68,3.57-17.62,4.95-12.59,2.92-12.86,3.25-13.02,16.06-.08,6.48-.02,13.05-1.08,19.41-1.75,10.56-9.93,16.54-20.57,15.21-7.91-.99-15.7-2.88-23.55-4.31-5.66-1.03-7.01-.49-9.69,4.55-2.99,5.61-5.52,11.48-8.61,17.04-8.36,15.01-19.46,17.45-33.42,7.4-4.46-3.21-8.63-6.81-13.04-10.1-6.74-5.04-7.94-5.01-14.77.11-3.1,2.32-6.02,4.88-9.14,7.18-2.81,2.08-5.64,4.18-8.67,5.87-9.59,5.35-18.72,3.59-25.05-5.37-3.5-4.95-6.17-10.54-8.84-16.02-6-12.28-6.27-12.33-19.74-9.42-6.79,1.47-13.77,2.97-20.64,2.89-9.17-.12-14.98-5.79-16.65-14.85-.95-5.13-1.06-10.41-1.55-15.62.19-.02.39-.03.58-.05Zm16.07-1.2c0,4.17-.06,7.79.02,11.41.08,3.53,1.69,5.33,5.46,4.54,5-1.05,10.03-2.01,15.03-3.07,19.57-4.13,26.59-.67,35.25,17.28,2.22,4.61,4.64,9.12,7.01,13.65,1.55,2.96,3.68,3.41,6.36,1.34,4.25-3.28,8.59-6.46,12.79-9.8,14.67-11.67,23.69-11.66,38.45.06,3.91,3.11,7.8,6.26,11.88,9.14,4.24,2.99,5.3,2.78,7.82-1.8,3.18-5.79,5.86-11.86,9.04-17.66,6.62-12.11,13.92-15.57,27.54-13.12,6.01,1.08,11.94,2.65,17.96,3.74,6.36,1.15,7.53.16,7.72-6.28.17-5.75-.02-11.5.17-17.25.5-14.67,5.77-21.33,19.9-25.16,5.18-1.4,10.45-2.44,15.65-3.76,8.15-2.08,8.64-3.09,5.28-10.69-2.73-6.16-5.79-12.18-8.26-18.44-3.7-9.36-1.71-17.65,5.65-24.56,1.73-1.62,3.5-3.21,5.32-4.73,3.84-3.2,7.84-6.22,11.57-9.54,4.55-4.04,4.48-5.38-.05-9.55-1.84-1.69-3.81-3.24-5.73-4.83-3.37-2.79-6.81-5.49-10.11-8.36-8.59-7.51-10.55-16.64-6.16-27.06,2.33-5.52,5.03-10.87,7.49-16.34,3.76-8.36,3.38-9.06-5.45-11.39-7.23-1.91-14.55-3.56-21.61-5.98-7.68-2.63-11.69-8.69-12.79-16.6-.5-3.58-.62-7.21-.74-10.83-.16-4.87-.13-9.75-.25-14.62-.09-3.52-1.69-5.34-5.46-4.55-5.37,1.11-10.78,2.08-16.14,3.26-17.79,3.9-25.54.17-33.5-16.11-2.47-5.04-5.06-10.02-7.66-15-1.54-2.95-3.68-3.44-6.37-1.36-4.54,3.52-9.12,6.99-13.66,10.52-13.76,10.69-23.06,10.68-36.69-.07-.39-.31-.77-.64-1.16-.95-3.75-2.91-7.42-5.93-11.29-8.68-4.58-3.25-5.62-3.06-8.32,1.91-3.23,5.91-5.92,12.12-9.21,17.99-6.4,11.45-13.84,14.89-26.81,12.54-6.14-1.11-12.19-2.7-18.32-3.81-6.39-1.16-7.54-.18-7.72,6.28-.16,5.75.03,11.51-.18,17.25-.53,14.73-5.72,21.29-19.89,25.15-5.17,1.41-10.45,2.44-15.65,3.77-8.15,2.08-8.65,3.11-5.28,10.69,2.73,6.16,5.79,12.18,8.26,18.44,3.7,9.36,1.7,17.65-5.64,24.57-1.73,1.63-3.5,3.2-5.33,4.72-3.84,3.2-7.83,6.23-11.55,9.56-4.59,4.1-4.61,5.37.08,9.49,4.97,4.37,10.34,8.29,15.24,12.74,9.59,8.73,11.26,16.19,6.4,28.24-2.19,5.43-4.92,10.65-7.32,16-3.54,7.9-3.09,8.8,5.24,10.97,6.76,1.75,13.62,3.19,20.26,5.3,8.87,2.81,13.73,9.22,14.64,18.47.44,4.47.58,8.97.83,12.92Z"/>
      <path class="cls-1" d="m240.08,117.68c-.86,1.24-2.18,3.92-4.18,5.92-26.8,26.95-53.7,53.8-80.57,80.67-9.37,9.37-18.66,18.82-28.18,28.04-1.76,1.7-4.29,3.05-6.68,3.55-3.2.67-6.29-1.02-7.17-4.11-.71-2.48-.09-5.46.44-8.11.23-1.16,1.69-2.1,2.66-3.07,36.06-36.08,72.1-72.17,108.26-108.14,1.97-1.96,4.88-3.64,7.57-4.05,4.34-.66,7.79,3.19,7.84,9.3Z"/>
      <path class="cls-1" d="m164.16,132.04c.02,15.46-12.67,28.11-28.14,28.05-15.27-.06-27.85-12.67-27.89-27.96-.04-15.37,12.82-28.2,28.17-28.08,15.3.12,27.84,12.71,27.86,27.99Zm-39.91.09c.02,6.55,5.35,11.96,11.85,12.01,6.4.05,11.98-5.44,12.09-11.89.11-6.62-5.44-12.13-12.15-12.08-6.66.05-11.8,5.27-11.79,11.96Z"/>
      <path class="cls-1" d="m188.18,212.19c-.03-15.32,12.46-27.97,27.73-28.07,15.49-.1,28.23,12.46,28.3,27.91.07,15.34-12.8,28.2-28.14,28.12-15.28-.08-27.85-12.69-27.89-27.97Zm39.91-.05c.01-6.56-5.27-11.97-11.79-12.07-6.5-.1-12.27,5.68-12.16,12.19.11,6.52,5.53,11.79,12.09,11.77,6.63-.02,11.85-5.26,11.86-11.89Z"/>
    </g>
  </g>
</svg>