<?xml version="1.0" encoding="UTF-8"?>
<svg id="_Слой_2" data-name="Слой 2" xmlns="http://www.w3.org/2000/svg" viewBox="0 0 1058.59 1059.07">
  <g id="_Слой_1-2" data-name="Слой 1">
    <path d="m1058.59,529.7c-.31,292.81-238.78,531.46-533.34,529.36C234.58,1056.98-2.56,819.03.02,524.68,2.59,231.66,243.33-2.5,534.01.02c286.68,2.49,524.24,236.25,524.58,529.68Zm-139.21,159.44c-79.94-121.42-159.45-242.19-239.27-363.42-1.28,1.84-2.17,3-2.95,4.24-59.07,94.08-118.16,188.16-177.13,282.31-2,3.19-4,4.53-7.89,4.52-63.99-.14-127.99-.1-191.98-.11-1.6,0-3.2-.13-5.42-.23,1.03-1.79,1.71-3.07,2.48-4.29,13.65-21.32,27.4-42.59,40.88-64.02,2.14-3.4,4.39-4.62,8.36-4.6,37.16.15,74.33.05,111.49.16,3.38,0,5.43-.98,7.26-3.9,13.56-21.58,27.29-43.05,40.94-64.56.76-1.2,1.36-2.51,2.45-4.55-2.67,0-4.61,0-6.56,0-89.32,0-178.65,0-267.97,0-.83,0-1.67.07-2.5-.01-2.41-.25-3.96.67-5.3,2.79-14.06,22.25-28.22,44.43-42.33,66.65-.57.9-.91,1.96-1.65,3.61h65.91c-30.92,48.83-61.31,96.82-92.09,145.43h385.38c47.27-74.56,94.56-149.16,142.22-224.35,16.64,25.26,32.76,49.72,48.87,74.19.73,1.11,1.35,2.29,1.99,3.45.06.1-.06.32-.12.47-.06.14-.15.27-.43.77-1.6,0-3.42,0-5.24,0-12,0-24,.05-36-.04-2.55-.02-4.3.53-5.74,2.91-13.39,22.26-26.92,44.45-40.37,66.67-.53.88-.79,1.93-1.38,3.4h6.53c42,0,83.99.06,125.99-.1,4.04-.02,6.27,1.37,8.4,4.63,14.21,21.76,28.61,43.39,42.96,65.06.72,1.08,1.53,2.1,2.13,2.92h88.08ZM274.77,397.63c2.67,0,4.59,0,6.52,0,95.32,0,190.65,0,285.97,0,.83,0,1.68-.08,2.5.01,2.45.28,3.9-.79,5.21-2.89,13.82-22.2,27.75-44.33,41.62-66.5.55-.89.85-1.94,1.43-3.32-2.04-.1-3.5-.24-4.96-.24-96.16-.01-192.31.01-288.47-.09-3.67,0-5.67,1.32-7.51,4.3-13.18,21.42-26.49,42.76-39.75,64.13-.76,1.23-1.41,2.52-2.56,4.6Z"/>
  </g>
</svg>