<?xml version="1.0" encoding="UTF-8"?>
<svg id="_Слой_2" data-name="Слой 2" xmlns="http://www.w3.org/2000/svg" viewBox="0 0 694.11 694.08">
  <defs>
    <style>
      .cls-1 {
        fill: #fff;
      }
    </style>
  </defs>
  <g id="_Слой_1-2" data-name="Слой 1">
    <g>
      <path class="cls-1" d="m346.82,694.08C155.2,694.06-.05,538.28,0,346.06.05,155.03,156.21-.13,348.28,0c191.18.13,346.03,156.41,345.83,349.02-.2,189.83-156.44,345.08-347.28,345.06Zm-183.86-338.07c-20.57,32.5-40.41,63.85-60.6,95.76,2.03.09,2.86.16,3.69.16,81.67,0,163.33-.02,245,.1,3.52,0,4.91-1.71,6.49-4.21,29.12-46.02,58.29-92.01,87.45-138,1.01-1.59,2.11-3.12,3.45-5.09,11.43,17.37,22.43,34.08,33.92,51.55-4.36,0-7.51-.03-10.66,0-6.49.07-14.19-1.95-19.13.87-5.11,2.9-7.63,10.46-11.1,16.09-6.16,10-12.19,20.09-18.71,30.87,2.69,0,4.48,0,6.26,0,26.5,0,53,.11,79.5-.11,3.9-.03,5.96,1.32,7.95,4.4,8.68,13.43,17.64,26.68,26.34,40.09,1.63,2.52,3.39,3.54,6.44,3.51,16.33-.15,32.67-.06,49-.08,1.25,0,2.5-.15,4.61-.28-52.49-79.68-104.56-158.72-156.87-238.14-1.17,1.71-1.96,2.77-2.65,3.87-38.08,60.65-76.19,121.28-114.16,182.01-2.21,3.54-4.48,4.89-8.69,4.87-40.67-.17-81.33-.1-122-.12-1.55,0-3.09-.18-5.33-.32,9.59-14.95,18.84-29.16,27.83-43.54,1.9-3.04,3.93-4.2,7.56-4.18,23.5.17,47,0,70.5.16,3.26.02,5.09-1,6.79-3.73,8.09-13.01,16.39-25.9,24.6-38.83.93-1.47,1.76-3.01,2.85-4.89-1.45-.13-2.26-.28-3.06-.28-59-.02-118-.06-177,.12-1.96,0-4.63,1.7-5.76,3.41-8.61,13.07-16.92,26.35-25.31,39.57-.77,1.21-1.42,2.51-2.46,4.36h43.28Zm17.39-96.02c1.28.37,1.74.62,2.2.62,63.33.03,126.66.06,189.99-.1,1.8,0,4.22-1.79,5.29-3.44,8.15-12.58,16.03-25.33,23.99-38.03,1.11-1.77,2.17-3.58,3.4-5.6-1.01-.26-1.46-.47-1.9-.47-63.66-.03-127.33-.05-190.99.02-1.24,0-3.01.75-3.63,1.73-9.45,14.89-18.74,29.87-28.34,45.26Z"/>
      <path d="m162.96,356.01h-43.28c1.04-1.85,1.69-3.15,2.46-4.36,8.39-13.22,16.7-26.49,25.31-39.57,1.12-1.71,3.8-3.41,5.76-3.41,59-.17,118-.14,177-.12.81,0,1.61.14,3.06.28-1.09,1.88-1.92,3.42-2.85,4.89-8.21,12.94-16.51,25.82-24.6,38.83-1.69,2.73-3.53,3.75-6.79,3.73-23.5-.15-47,0-70.5-.16-3.63-.03-5.66,1.14-7.56,4.18-8.99,14.37-18.24,28.59-27.83,43.54,2.24.14,3.78.32,5.33.32,40.67.02,81.33-.06,122,.12,4.21.02,6.48-1.34,8.69-4.87,37.96-60.73,76.07-121.36,114.16-182.01.7-1.11,1.48-2.16,2.65-3.87,52.32,79.42,104.38,158.46,156.87,238.14-2.11.13-3.36.28-4.61.28-16.33.01-32.67-.07-49,.08-3.05.03-4.81-.99-6.44-3.51-8.7-13.41-17.66-26.66-26.34-40.09-1.99-3.08-4.05-4.43-7.95-4.4-26.5.22-53,.11-79.5.11-1.78,0-3.57,0-6.26,0,6.52-10.78,12.55-20.87,18.71-30.87,3.47-5.63,6-13.18,11.1-16.09,4.94-2.81,12.64-.79,19.13-.87,3.15-.04,6.31,0,10.66,0-11.5-17.47-22.5-34.19-33.92-51.55-1.34,1.97-2.44,3.5-3.45,5.09-29.17,45.99-58.34,91.98-87.45,138-1.58,2.5-2.97,4.22-6.49,4.21-81.67-.12-163.33-.09-245-.1-.83,0-1.66-.07-3.69-.16,20.19-31.91,40.03-63.26,60.6-95.76Z"/>
      <path d="m180.35,259.98c9.6-15.39,18.9-30.37,28.34-45.26.62-.98,2.39-1.73,3.63-1.73,63.66-.07,127.33-.05,190.99-.02.44,0,.89.21,1.9.47-1.23,2.02-2.29,3.83-3.4,5.6-7.96,12.7-15.84,25.45-23.99,38.03-1.07,1.65-3.49,3.43-5.29,3.44-63.33.17-126.66.13-189.99.1-.46,0-.92-.25-2.2-.62Z"/>
    </g>
  </g>
</svg>