<?xml version="1.0" encoding="UTF-8"?>
<svg id="_Слой_2" data-name="Слой 2" xmlns="http://www.w3.org/2000/svg" viewBox="0 0 444.13 504.74">
  <defs>
    <style>
      .cls-1 {
        fill: #fff;
      }
    </style>
  </defs>
  <g id="_Слой_1-2" data-name="Слой 1">
    <g>
      <path class="cls-1" d="m221.86.01C281.5.01,341.14-.05,400.78.11c6.57.02,13.27.72,19.67,2.15,11.68,2.6,19,10.15,21.43,21.63,1.27,5.99,1.94,12.22,1.94,18.34.11,114.5-.16,229,.31,343.49.09,21.36-7.68,34.33-28.69,42.57-60.23,23.62-119.79,48.89-179.59,73.56-9.27,3.83-18.42,3.88-27.7.05-62-25.55-123.99-51.13-186.05-76.54-13.37-5.47-21.37-14.34-21.62-29.02-.06-3.33-.46-6.65-.46-9.98C0,271.36-.03,156.36.08,41.36c0-5.95.72-12,2-17.82C4.5,12.49,11.56,5.07,22.8,2.43,29.17.93,35.88.15,42.44.14,102.25-.03,162.06.04,221.86.04V.01Zm-.29,9.91v.02c-57.78,0-115.57-.05-173.35.07-5.74.01-11.55.62-17.19,1.69-10.48,2-16.95,8.62-19.05,18.82-1.18,5.7-1.66,11.63-1.66,17.45-.09,110.61-.07,221.22-.06,331.83,0,3.58.27,7.16.23,10.74-.16,14.01,6.84,22.51,19.9,27.68,25.73,10.17,51.18,21.03,76.73,31.62,33.92,14.07,67.86,28.11,101.74,42.27,8.73,3.65,17.25,3.84,25.86-.16,2.54-1.18,5.11-2.28,7.7-3.35,55.85-23.1,111.53-46.63,167.67-69.03,16.61-6.63,24.09-17.04,23.06-34.16-.02-.32,0-.65,0-.98,0-112.89.03-225.78-.04-338.67,0-4.85-.59-9.77-1.52-14.54-2.12-10.89-8.88-17.76-19.96-19.7-6.3-1.1-12.79-1.53-19.19-1.54-56.96-.11-113.92-.07-170.87-.07Z"/>
      <path class="cls-1" d="m379.85,141.29h-28.56c0-2,0-3.76,0-5.52,0-10.5.11-20.99-.06-31.49-.14-8.29-3.52-11.37-12.03-11.52-2.06-.04-4.13-.08-6.18.08-5.89.46-9.04,3.45-9.67,9.13-.16,1.48-.12,2.99-.12,4.49-.01,38.65-.04,77.3.03,115.95,0,2.95.2,6.1,1.27,8.79,2.18,5.46,8.05,6.07,19.44,4.83,4.97-.54,7.63-4.06,7.69-9.71.16-12.83.06-25.65.09-38.48,0-1.79.16-3.57.25-5.57h29.12c0,3.73,0,7.18,0,10.63-.01,11.83.08,23.66-.06,35.48-.26,21.68-12.18,33.39-34.54,33.56-9.58.07-19.29.11-28.72-1.25-12.89-1.85-20.59-9.98-23.2-22.35-.79-3.73-1.18-7.6-1.19-11.4-.08-40.65-.08-81.3,0-121.95,0-4.31.21-8.69.97-12.92,2.44-13.74,10.87-22.44,25.17-23.92,11.18-1.16,22.66-1.24,33.85-.2,15.48,1.44,24.98,10.11,26.18,24.99,1.28,15.86.29,31.89.29,48.33Z"/>
      <path class="cls-1" d="m179.95,190.15c0,7.48,0,13.46,0,19.43,0,15.5-.09,31,.07,46.49.04,3.49-1.05,4.63-4.68,4.53-8.2-.23-16.41-.07-24.94-.07V68.85c7.62,0,14.95-.01,22.29,0,9.44.02,18.9-.17,28.33.15,19.35.66,30.94,9.96,31.9,28.45,1.15,22.25.83,44.64-.32,66.9-.77,14.88-10.85,23.98-26.21,25.64-8.44.91-17.06.16-26.44.16Zm.24-95.33c-.09,1.83-.23,3.45-.23,5.07-.02,18.16-.02,36.32,0,54.48q0,11,11.45,10.82c8.87-.14,12.2-3.2,12.33-11.75.14-9.66.05-19.33.04-28.99,0-6.5.09-13-.1-19.49-.14-4.84-1.82-9.3-7.38-10-5.17-.64-10.5-.14-16.1-.14Z"/>
      <path class="cls-1" d="m134.52,69.14v25.74h-36.12c-.23,1.86-.51,3.12-.51,4.37-.03,15.16.13,30.33-.11,45.49-.07,4.08,1.35,5.09,5.3,5,9.92-.23,19.85-.08,30.05-.08v26.26h-34.83v57.8h36.67v26.51h-66.57V69.14h66.12Z"/>
      <path class="cls-1" d="m276.96,69.21v190.97h-29.2V69.21h29.2Z"/>
      <path class="cls-1" d="m203.74,307.46c4.92,0,9.69-.25,14.41.15,1.44.12,3.1,1.8,4.02,3.17,4.09,6.13,7.95,12.4,12.36,19.36,4.15-6.44,8.16-12.19,11.63-18.22,2.02-3.52,4.43-5.02,8.6-4.54,3.37.38,6.83.08,10.63.08v57.32h-15.07v-31.81c-.4-.15-.8-.29-1.2-.44-4.81,7.08-9.62,14.17-14.72,21.68-5.05-7.48-9.79-14.51-14.54-21.53l-1.03.29v31.87h-15.1v-57.36Z"/>
      <path class="cls-1" d="m141.38,434.23h165.99c.07.23.14.47.21.7-3.15,1.04-6.29,2.11-9.45,3.12-23.6,7.57-47.18,15.18-70.83,22.6-2.27.71-5.17.94-7.38.22-25.18-8.21-50.29-16.64-75.41-25.03-.72-.24-1.36-.69-3.13-1.61Z"/>
      <path class="cls-1" d="m122.74,314.56c-3.26,3.8-6.09,7.1-8.66,10.09-4.44-1.62-8.42-3.71-12.66-4.48-7.15-1.29-13.33,2.27-16.45,8.49-3.22,6.43-1.84,15.05,3.22,19.97,4.57,4.46,13.55,6.2,19.07,2.85,1.96-1.19,2.5-4.58,4.25-8.08-5.47-.23-9.14-.39-13.19-.56v-10.75h26.42c0,8.02.11,15.95-.12,23.88-.03,1.16-1.42,2.6-2.57,3.36-10.55,7.04-22.1,8.93-34.29,5.19-13.66-4.19-21.7-16.42-20.58-30.51,1.09-13.71,11.42-24.9,25.3-27.13,11-1.77,21.09.18,30.26,7.67Z"/>
      <path class="cls-1" d="m278.36,307.65h46.4v12.62h-31v9.62h27.76v12.23h-27.81v9.98h31.37v12.61h-46.72v-57.07Z"/>
      <path class="cls-1" d="m196.33,365.14c-5.2,0-9.68.36-14.03-.2-1.52-.19-3.49-2.44-3.97-4.09-1.55-5.36-4.63-7.74-10.41-6.68-1.49.27-3.1.21-4.62.02-7.42-.94-13.55-.04-15.12,8.74-.16.9-2.16,2.04-3.37,2.12-4.24.26-8.51.1-13.63.1,3.46-8.04,6.64-15.48,9.86-22.91,4.58-10.57,9.32-21.08,13.71-31.73,1.18-2.85,2.76-3.59,5.73-3.59,10.81.01,10.77-.08,14.97,9.59,6.38,14.71,12.81,29.39,19.2,44.09.52,1.2.91,2.46,1.67,4.55Zm-32.6-40.21c-2.62,6.42-4.7,11.48-6.89,16.83h13.59c-2.17-5.44-4.11-10.33-6.7-16.83Z"/>
      <path class="cls-1" d="m380.32,314.02c-2.8,3.83-5.27,7.19-7.27,9.92-5.59-1.68-10.55-3.46-15.66-4.6-3.07-.69-6.7-.28-7.45,3.5-.73,3.72,2.74,4.49,5.52,5.32,5.08,1.52,10.27,2.71,15.27,4.44,7.15,2.48,11.34,7.37,11.32,15.01-.03,7.59-3.75,12.99-10.82,16.17-11.51,5.19-30.11,1.85-39.7-7.36,2.67-3.11,5.37-6.26,8.3-9.68,1.74.99,3.21,2.24,4.91,2.73,5.03,1.45,10.1,3.03,15.27,3.64,1.83.22,4-2.23,6.01-3.46-1.49-1.74-2.64-4.31-4.55-5.07-4.41-1.74-9.24-2.48-13.82-3.85-9.63-2.89-13.85-8.04-13.68-16.37.18-8.5,5.39-14.93,14.67-16.93,11.23-2.41,21.76-.58,31.67,6.58Z"/>
    </g>
  </g>
</svg>