<?xml version="1.0" encoding="UTF-8"?>
<svg id="_Слой_2" data-name="Слой 2" xmlns="http://www.w3.org/2000/svg" viewBox="0 0 332.89 378.24">
  <defs>
    <style>
      .cls-1 {
        fill: #fff;
      }
    </style>
  </defs>
  <g id="_Слой_1-2" data-name="Слой 1">
    <g>
      <path d="m168.61,378.24h-4.56c-2.39-.61-4.88-.95-7.15-1.86-11.73-4.71-23.41-9.57-35.1-14.38-29.55-12.15-59.09-24.3-88.64-36.46-6.56-2.7-13.21-5.24-19.63-8.26-8.21-3.87-12.87-10.36-13.15-19.68-.05-1.75-.26-3.49-.4-5.23C0,204.43,0,116.48,0,28.54c.07-.39.14-.77.2-1.16.42-3.08.68-6.2,1.29-9.25C3.06,10.14,7.59,4.51,15.55,2.31c4.08-1.13,8.38-1.79,12.62-2C35.47-.06,42.79.05,50.1.05,89.2.02,128.29,0,167.38,0c42.17,0,84.34.03,126.51.04,6.76,0,13.49.09,20.17,1.39,9.42,1.84,15.25,7.46,17.22,16.84,1,4.75,1.4,9.55,1.4,14.4.07,84.66.15,169.32.21,253.98,0,2.6-.03,5.2-.24,7.78-.77,9.58-4.82,17.3-13.15,22.44-2,1.23-4.09,2.36-6.25,3.27-5.34,2.23-10.76,4.26-16.11,6.46-32.31,13.24-64.56,26.59-96.92,39.69-10.43,4.22-20.4,9.73-31.6,11.95Zm-2.52-370.8h0c-.44,0-.88,0-1.32,0-40.25,0-80.5.02-120.75.02-6.71,0-13.41,0-20.07,1.15-7.86,1.35-13.1,6.08-14.86,13.82-1.09,4.78-1.38,9.64-1.38,14.52-.02,61.56-.05,123.11-.03,184.67,0,24.06.13,48.12.21,72.18.01,3.32.71,6.5,2.29,9.45,2.57,4.79,6.75,7.71,11.61,9.72,11.84,4.89,23.72,9.66,35.55,14.56,32.98,13.68,65.95,27.4,98.92,41.12,6.26,2.61,12.51,3.01,18.85.35,13.06-5.48,26.11-10.99,39.2-16.4,26.81-11.08,53.64-22.09,80.46-33.14,5.57-2.29,11.22-4.42,16.66-6.99,6.22-2.94,10.7-7.6,12.49-14.48.89-3.41.78-6.88.77-10.36-.03-83.7-.02-167.4-.1-251.1,0-4.29-.46-8.62-1.11-12.87-1.22-8.06-6.22-13.33-14.22-14.81-4.34-.8-8.8-1.25-13.21-1.31-13.75-.18-27.5-.11-41.25-.11-29.58,0-59.16,0-88.73,0Z"/>
      <path d="m166.09,7.44c29.58,0,59.16,0,88.73,0,13.75,0,27.5-.07,41.25.11,4.41.06,8.87.51,13.21,1.31,7.99,1.48,13,6.76,14.22,14.81.64,4.25,1.1,8.57,1.11,12.87.08,83.7.07,167.4.1,251.1,0,3.48.11,6.95-.77,10.36-1.79,6.88-6.27,11.54-12.49,14.48-5.44,2.57-11.09,4.7-16.66,6.99-26.82,11.05-53.65,22.06-80.46,33.14-13.09,5.41-26.14,10.92-39.2,16.4-6.34,2.66-12.59,2.25-18.85-.35-32.96-13.73-65.93-27.44-98.92-41.12-11.83-4.91-23.71-9.68-35.55-14.56-4.87-2.01-9.05-4.93-11.61-9.72-1.58-2.95-2.28-6.13-2.29-9.45-.08-24.06-.21-48.12-.21-72.18-.02-61.56.01-123.11.03-184.67,0-4.88.29-9.74,1.38-14.52,1.76-7.73,7-12.47,14.86-13.82,6.66-1.14,13.36-1.14,20.07-1.15,40.25,0,80.5-.01,120.75-.02.44,0,.88,0,1.32,0h0Zm118.57,98.37c.02-.45.05-.84.06-1.22.04-2.52.14-5.04.11-7.55-.1-9.31,0-18.63-.45-27.92-.33-7-3.72-12.46-10.16-15.71-3.08-1.56-6.39-2.23-9.8-2.53-8.3-.73-16.6-.6-24.9.19-9.21.87-15.71,6.18-18.19,15.06-1.09,3.88-1.39,7.86-1.39,11.86-.01,30.66-.03,61.32.03,91.98,0,2.97.36,5.99.96,8.91,1.94,9.39,7.69,14.86,17.16,16.43,6.01,1,12.1,1.09,18.17.95,3.78-.09,7.62-.16,11.32-.85,7.86-1.47,13.51-5.9,16.3-13.58,1.28-3.53,1.74-7.21,1.75-10.95.03-11.03.02-22.06.03-33.1,0-.35,0-.7,0-1.12h-21.78c-.03.39-.07.7-.08,1.02-.06,7.35-.12,14.71-.17,22.06-.02,3.44,0,6.88-.07,10.31-.08,3.6-1.89,6.24-4.88,6.63-3,.39-6.06.62-9.07.46-4.58-.24-6.69-2.49-7.11-7.01-.13-1.35-.21-2.71-.21-4.07-.02-29.14-.02-58.28-.02-87.42,0-1,.08-2,.22-2.98.47-3.21,2.44-5.49,5.63-5.81,2.99-.31,6.07-.29,9.06,0,3.54.34,5.47,2.53,5.9,6.05.13,1.03.2,2.07.2,3.11.03,8.47.03,16.95.04,25.42,0,.46,0,.92,0,1.39h21.34ZM112.81,51.58v143.64c.48,0,.87,0,1.27,0,5.6,0,11.19,0,16.79.03,3.52.02,4.09-.54,4.08-4.08-.03-15.79-.05-31.57-.08-47.36,0-.42,0-.85,0-1.22,2.22,0,4.26-.04,6.29,0,5.35.12,10.71.31,16.02-.61,10.1-1.73,16.73-8.85,17.14-18.65.35-8.22.72-16.46.72-24.68,0-9.31-.15-18.63-.75-27.91-.49-7.48-4.27-13.2-11.27-16.45-3.37-1.57-6.97-2.39-10.66-2.48-7.39-.17-14.78-.2-22.18-.24-5.75-.03-11.5,0-17.37,0Zm-13.09,60.63c-.41-.02-.69-.05-.97-.05-7.15.01-14.31.04-21.46.05-3.22,0-3.97-.74-3.99-3.93,0-.08,0-.16,0-.24.02-10.99.04-21.98.08-32.97,0-.87.19-1.75.17-2.62-.03-1.2.55-1.39,1.62-1.38,8.03.04,16.07.02,24.1.02.47,0,.93,0,1.46,0v-19.22h-49.37v143.02h49.72v-19.84h-27.34v-43.25h25.98v-19.6Zm107.8-60.29h-21.75v142.98h21.75V51.92Zm-43.49,221.45v-1.39c0-7.11,0-14.23.02-21.34,0-.41.25-.81.38-1.22.34.28.77.5,1.01.85,3.15,4.62,6.27,9.26,9.4,13.89.26.38.53.75.85,1.21.31-.43.55-.75.77-1.07,3.21-4.72,6.41-9.45,9.64-14.16.23-.34.66-.54.99-.81.17.43.49.86.49,1.28.03,7.07.02,14.15.02,21.22v1.43h11.22v-42.82c-.59,0-1.1,0-1.61,0-1.88-.01-3.78.18-5.63-.08-3.33-.47-5.55.75-7.26,3.6-2.58,4.32-5.38,8.5-8.09,12.74-.12.19-.28.35-.5.61-1.49-2.36-2.9-4.62-4.34-6.87-1.57-2.46-3.15-4.91-4.74-7.35-1.11-1.7-2.49-2.8-4.72-2.7-2.79.13-5.59,0-8.39.01-.26,0-.52.09-.73.13v42.84h11.2Zm-57.44,52.17c-.04.06-.08.13-.11.19.94.39,1.85.85,2.81,1.17,18.13,6.03,36.27,12.02,54.39,18.08,2.39.8,4.69.86,7.04.1,19.68-6.3,39.35-12.6,59.02-18.91.26-.08.5-.25.75-.38l-.07-.26h-123.83Zm-23.76-68.1c-.04.82-.18,2.03-.7,3.38-.2.52-.4,1.03-.78,1.54-1,1.34-2.53,1.76-3.25,1.96-2.33.64-9.28.79-13.28-4.56-2.05-2.74-2.96-6.47-2.06-10.74,1.47-6.96,7.85-10.69,14.67-8.73,2.48.71,4.86,1.79,7.3,2.66.31.11.88.15,1.04-.04,2.09-2.35,4.13-4.75,6.16-7.11-.12-.17-.15-.25-.21-.3-.18-.16-.37-.3-.56-.45-6.52-4.99-13.86-6.34-21.85-5.09-12.71,1.98-21.3,14.31-18.54,26.86,1.91,8.71,7.39,14.12,15.86,16.55,3.48,1,6.11,1.04,11.39,1.03,2.34,0,4.28-.03,6.48-.93,2.01-.82,3.37-1.99,4-2.58,1.48-1.39,2.25-2.76,2.76-3.67.5-.91,1.33-2.43,1.69-4.52.13-.71.08-.78.19-3.8.09-2.47.13-2.49.19-4.2.05-1.4.09-3.36.04-5.75h-19.61c.05,2.85.11,5.7.16,8.56,2.98-.02,5.96-.04,8.94-.06Zm125.86,15.75h34.89v-9.4h-23.37v-7.43h20.69v-9.18h-20.66v-7.19h23.11v-9.37h-34.67v42.58Zm-61.53.42c-.58-1.5-1.04-2.85-1.61-4.16-4.62-10.65-9.26-21.28-13.91-31.92-.73-1.68-1.52-3.34-2.37-4.96-.73-1.4-1.94-2.24-3.53-2.35-1.79-.12-3.59-.12-5.38-.22-2.25-.13-3.63.89-4.52,2.96-5.62,13.12-11.3,26.22-16.95,39.33-.18.41-.32.84-.51,1.31,3.3,0,6.41.05,9.53-.02,2.1-.05,2.86-.74,3.4-2.78.94-3.49,3.27-5.4,6.9-5.53,1.39-.05,2.79.11,4.18.16.96.03,1.92.13,2.87.05,5.47-.49,6.42.08,8.48,5.13.73,1.8,1.98,2.99,4.05,3,3.03.01,6.06,0,9.36,0Zm137.81-38.16c-.09-.16-.11-.25-.17-.29-8.06-5.69-16.83-7.08-26.16-3.91-5.37,1.83-8.27,6.37-8.29,12.09-.02,5.53,2.53,9.07,8.14,11.27.56.22,1.12.44,1.69.6,2.77.74,5.53,1.55,8.34,2.17,2.74.6,4.49,2.25,5.7,4.71-.74.56-1.51,1.13-2.26,1.71-.91.71-1.91.95-3.04.71-4.82-1.05-9.76-1.73-14.02-4.51-.05-.03-.15,0-.31.02-1.99,2.32-4.01,4.68-6.09,7.1.64.53,1.19,1.06,1.8,1.49,6.38,4.58,13.55,6.28,21.29,5.68,3.55-.27,6.9-1.33,9.8-3.5,3.99-3,5.39-7.11,4.89-11.93-.5-4.77-3.39-7.69-7.7-9.35-1.52-.59-3.1-1.03-4.67-1.5-3.21-.96-6.44-1.85-9.63-2.85-1.23-.38-2.06-1.24-2.03-2.65.04-1.57.93-2.85,2.43-3.17.95-.2,2.03-.29,2.95-.05,3.7.97,7.36,2.1,11.04,3.14.38.11,1.06.11,1.23-.11,1.75-2.27,3.42-4.6,5.09-6.88Z"/>
      <path class="cls-1" d="m284.66,105.81h-21.34c0-.47,0-.93,0-1.39-.01-8.47-.01-16.95-.04-25.42,0-1.04-.08-2.08-.2-3.11-.43-3.52-2.36-5.71-5.9-6.05-3-.28-6.07-.3-9.06,0-3.2.33-5.17,2.6-5.63,5.81-.14.98-.22,1.99-.22,2.98,0,29.14,0,58.28.02,87.42,0,1.36.08,2.72.21,4.07.42,4.52,2.53,6.77,7.11,7.01,3.01.16,6.08-.07,9.07-.46,3-.39,4.81-3.03,4.88-6.63.07-3.44.04-6.87.07-10.31.05-7.35.11-14.71.17-22.06,0-.32.05-.63.08-1.02h21.78c0,.42,0,.77,0,1.12,0,11.03,0,22.06-.03,33.1,0,3.74-.47,7.42-1.75,10.95-2.79,7.68-8.44,12.11-16.3,13.58-3.7.69-7.54.76-11.32.85-6.07.14-12.16.05-18.17-.95-9.47-1.57-15.22-7.04-17.16-16.43-.6-2.91-.95-5.94-.96-8.91-.07-30.66-.04-61.32-.03-91.98,0-4,.3-7.98,1.39-11.86,2.48-8.87,8.98-14.18,18.19-15.06,8.3-.79,16.59-.92,24.9-.19,3.4.3,6.72.98,9.8,2.53,6.44,3.26,9.83,8.71,10.16,15.71.44,9.29.35,18.61.45,27.92.03,2.52-.07,5.04-.11,7.55,0,.39-.04.78-.06,1.22Z"/>
      <path class="cls-1" d="m112.81,51.58c5.86,0,11.62-.03,17.37,0,7.39.04,14.79.07,22.18.24,3.7.09,7.29.91,10.66,2.48,7,3.25,10.78,8.96,11.27,16.45.61,9.28.75,18.6.75,27.91,0,8.23-.37,16.46-.72,24.68-.41,9.8-7.04,16.91-17.14,18.65-5.32.91-10.67.73-16.02.61-2.03-.05-4.07,0-6.29,0,0,.37,0,.8,0,1.22.03,15.79.05,31.57.08,47.36,0,3.54-.56,4.1-4.08,4.08-5.6-.03-11.19-.02-16.79-.03-.39,0-.79,0-1.27,0V51.58Zm22.06,19.27v4.91c0,12.99,0,25.98,0,38.96,0,.96.05,1.92.16,2.87.38,3.2,2.35,5.5,5.54,5.87,2.22.26,4.54.14,6.76-.18,2.82-.41,4.5-2.29,5.01-5.09.23-1.29.37-2.62.37-3.93.04-9.83.05-19.66.03-29.49,0-2.52-.05-5.04-.22-7.55-.22-3.23-2.05-5.68-4.8-5.91-4.16-.35-8.35-.32-12.86-.46Z"/>
      <path class="cls-1" d="m99.73,112.21v19.6h-25.98v43.25h27.34v19.84h-49.72V51.88h49.37v19.22c-.53,0-1,0-1.46,0-8.03,0-16.07.02-24.1-.02-1.07,0-1.65.18-1.62,1.38.02.87-.17,1.75-.17,2.62-.04,10.99-.06,21.98-.08,32.97,0,.08,0,.16,0,.24.02,3.19.76,3.93,3.99,3.93,7.15-.01,14.31-.03,21.46-.05.28,0,.56.03.97.05Z"/>
      <path class="cls-1" d="m207.52,51.92v142.98h-21.75V51.92h21.75Z"/>
      <path class="cls-1" d="m164.04,273.37h-11.2v-42.84c.21-.04.47-.13.73-.13,2.8,0,5.6.12,8.39-.01,2.23-.1,3.61,1,4.72,2.7,1.59,2.44,3.17,4.89,4.74,7.35,1.44,2.25,2.85,4.51,4.34,6.87.22-.26.38-.42.5-.61,2.71-4.24,5.51-8.42,8.09-12.74.91-1.52,1.96-2.57,3.25-3.16,1.07-.48,2.28-.43,4.01-.45,1.2,0,1.55.08,2.97.13,1.02.04,2.47.06,4.26-.05v42.82h-11.22v-1.43c0-7.07,0-14.15-.02-21.22,0-.43-.32-.86-.49-1.28-.34.27-.76.47-.99.81-3.23,4.71-6.43,9.44-9.64,14.16-.22.33-.46.64-.77,1.07-.32-.45-.59-.82-.85-1.21-4.43-6.56-5.18-10.13-9.4-13.89-.26-.23-.7-.62-1.28-1.06-.04.48-.07.95-.11,1.43-.55,7.82-.52,15.41-.02,22.73Z"/>
      <path d="m106.6,325.54h123.83l.07.26c-.25.13-.49.3-.75.38-19.67,6.31-39.35,12.61-59.02,18.91-2.35.75-4.65.69-7.04-.1-18.12-6.06-36.26-12.05-54.39-18.08-.96-.32-1.87-.78-2.81-1.17.04-.06.08-.13.11-.19Z"/>
      <path class="cls-1" d="m82.84,257.44c-2.98.02-5.96.04-8.94.06-.05-2.85-.11-5.7-.16-8.56h19.61c.01.47.03,1.17.04,2.01.02,1.51.05,4.25-.06,6.65-.17,3.63-.24,5.46-.87,7.15-.32.86-1.34,3.36-3.71,5.56-3.43,3.19-7.47,3.69-10.73,4.09-1.88.24-6.18.47-11.39-1.03-8.47-2.42-13.95-7.84-15.86-16.55-2.75-12.55,5.84-24.88,18.54-26.86,8-1.25,15.34.1,21.85,5.09.19.15.38.29.56.45.06.05.09.13.21.3-2.03,2.36-4.07,4.76-6.16,7.11-.16.18-.72.15-1.04.04-2.44-.87-4.82-1.95-7.3-2.66-6.82-1.96-13.2,1.77-14.67,8.73-.9,4.27,0,8,2.06,10.74,0,0,2.28,3.03,6.66,4.28,1.15.33,3.71,1.11,6.63.28.84-.24,1.97-.57,2.94-1.58,1.18-1.21,1.5-2.72,1.63-3.37.17-.79.18-1.47.16-1.94Z"/>
      <path class="cls-1" d="m208.7,273.19v-42.58h34.67v9.37h-23.11v7.19h20.66v9.18h-20.69v7.43h23.37v9.4h-34.89Z"/>
      <path class="cls-1" d="m147.17,273.6c-5.27-.17-8.3-.17-9.36,0-.2.03-.94.16-1.81-.11-.14-.04-.63-.2-1.06-.54-.87-.69-1.05-1.8-1.18-2.36-.36-1.58-1.45-3.72-2.95-4.63-1.18-.72-2.78-.74-5.53-.49-.95.09-1.91-.01-2.87-.05-2.61-.09-3.1-.18-3.68-.18-.07,0-.26,0-.5.02-.53.04-1.3.09-2.07.35-.52.18-.84.38-1.49.79-.85.54-1.27.81-1.68,1.26-.65.73-.99,1.62-1.67,3.13,0,0,0,0,0,0-.66,1.47-.69,1.81-1.18,2.18-.52.4-1.22.57-2.23.6-3.11.07-6.23.02-9.53.02.18-.47.33-.89.51-1.31,5.65-13.11,11.33-26.21,16.95-39.33.89-2.07,2.27-3.08,4.52-2.96,1.79.1,3.59.1,5.38.22,1.59.11,2.8.95,3.53,2.35.85,1.62,1.64,3.28,2.37,4.96,4.65,10.63,9.28,21.27,13.91,31.92.57,1.3,1.03,2.65,1.61,4.16Zm-29.58-17.56h10.14c-1.67-4.19-3.29-8.26-5-12.56-1.76,4.31-3.42,8.35-5.14,12.56Z"/>
      <path class="cls-1" d="m284.63,237.21c-.48,1.8-1.63,5.21-4.08,5.81-.61.15-1.1.08-3.55-.77-1.86-.65-6.47-2.3-9.39-2.95-.38-.09-1.56-.25-2.95.05-1.5.32-2.39,1.6-2.43,3.17-.03,1.41.8,2.26,2.03,2.65,3.2.99,6.43,1.89,9.63,2.85,1.57.47,3.15.91,4.67,1.5,4.31,1.66,7.2,4.58,7.7,9.35.5,4.81-.9,8.93-4.89,11.93-2.9,2.18-6.24,3.23-9.8,3.5-7.74.59-14.91-1.1-21.29-5.68-.61-.44-1.16-.96-1.8-1.49,2.08-2.43,4.1-4.79,6.09-7.1.16-.01.26-.05.31-.02,4.26,2.78,9.2,3.46,14.02,4.51.54.12,1.05.12,1.53.02.68-.14,1.16-.48,1.5-.73.34-.24.83-.65,1.28-1.29.06-.42.11-1.21-.26-2.07-.43-1.02-1.19-1.56-1.72-1.93-1-.69-1.92-.96-2.73-1.14-2.8-.62-5.56-1.42-8.34-2.17-.58-.15-1.14-.38-1.69-.6-5.61-2.21-8.16-5.74-8.14-11.27.02-5.72,2.92-10.26,8.29-12.09,5.19-1.77,9.64-1.76,12.83-1.47,3.41.32,5.68,1.21,10.24,2.99,1.18.46,2.98,1.22,3.27,2.68.14.7-.11,1.33-.35,1.77Z"/>
      <path d="m134.88,70.85c4.51.14,8.7.11,12.86.46,2.75.23,4.58,2.69,4.8,5.91.17,2.51.22,5.03.22,7.55.02,9.83,0,19.66-.03,29.49,0,1.31-.14,2.64-.37,3.93-.5,2.81-2.18,4.69-5.01,5.09-2.22.32-4.54.44-6.76.18-3.19-.37-5.17-2.67-5.54-5.87-.11-.95-.16-1.91-.16-2.87,0-12.99,0-25.98,0-38.96v-4.91Z"/>
      <path d="m117.58,256.04c1.72-4.21,3.37-8.25,5.14-12.56,1.71,4.3,3.33,8.36,5,12.56h-10.14Z"/>
    </g>
  </g>
</svg>