<?xml version="1.0" encoding="UTF-8"?>
<svg id="_Слой_2" data-name="Слой 2" xmlns="http://www.w3.org/2000/svg" viewBox="0 0 820.51 781.89">
  <defs>
    <style>
      .cls-1 {
        fill: #fff;
      }
    </style>
  </defs>
  <g id="_Слой_1-2" data-name="Слой 1">
    <g>
      <path d="m410.17,781.88c118.49,0,236.98,0,355.47,0,32.72,0,54.85-22.24,54.85-54.96,0-168.15.01-336.3.01-504.45,0-55.99.05-111.99-.05-167.98-.06-31.93-22.15-54.46-53.27-54.46C528.87,0,290.56,0,52.24.01,22.9.02,0,23.08,0,52.43c0,224.98,0,449.96,0,674.94,0,32.39,22.18,54.51,54.7,54.52,118.49,0,236.98,0,355.47,0Z"/>
      <path class="cls-1" d="m410.17,781.88c-118.49,0-236.98,0-355.47,0-32.51,0-54.7-22.13-54.7-54.52C0,502.39,0,277.41,0,52.43,0,23.08,22.9.02,52.24.01c238.31-.02,476.62-.02,714.93,0,31.12,0,53.22,22.53,53.27,54.46.1,55.99.05,111.99.05,167.98,0,168.15-.02,336.3-.01,504.45,0,32.73-22.13,54.96-54.85,54.96-118.49,0-236.98,0-355.47,0ZM90.68,365.39v44.98c1.69.11,3,.27,4.32.27,49.66-.04,99.32-.01,148.98-.19,19.18-.07,34.38-15.61,34.41-34.93.11-66.66.17-133.32.15-199.98,0-21.02-15.32-36.21-36.37-36.26-38.33-.08-76.66-.09-114.99-.05-21.59.02-36.88,15.28-36.9,36.83-.05,38.33-.06,76.66.02,114.99.04,21.35,15.27,36.53,36.56,36.55,24.16.03,48.33-.03,72.49-.07,1.74,0,3.49-.22,5.12-.33v-44.75c-2.19,0-4,0-5.81,0-15.66,0-31.33.03-46.99-.05-10.25-.05-15.73-5.6-15.74-15.78-.01-21.83,0-43.66.01-65.49,0-11.14,5.02-16.29,16.06-16.31,21.33-.05,42.66-.07,63.99-.06,12.36,0,17.21,4.9,17.22,17.29.02,48.66.04,97.32.06,145.98,0,12.39-5.13,17.46-17.71,17.45-39.5-.03-78.99-.06-118.49-.09-1.99,0-3.98,0-6.41,0Zm451.28.12c0,13.66.21,26.62-.11,39.57-.11,4.59,1.46,5.51,5.71,5.5,48.82-.1,97.64,0,146.47,0,2.97,0,6.04-.15,8.91-.87,16.23-4.05,27.01-17.83,27.03-34.63.06-66.15.05-132.3.05-198.45,0-22.33-14.95-37.39-37.24-37.41-37.99-.04-75.98-.03-113.97.05-21.81.05-36.87,14.89-36.92,36.66-.1,38.66-.06,77.31.12,115.97.09,20.62,15.24,35.54,35.8,35.6,24.16.07,48.32.07,72.48.08,1.78,0,3.56-.16,5.48-.25v-44.92c-2.23,0-4.04,0-5.84,0-15.66,0-31.33.06-46.99,0-10.06-.04-15.8-5.81-15.82-15.89-.04-21.83-.02-43.66.04-65.48.03-10.86,5.5-16.3,16.3-16.29,21.33.01,42.66.04,63.98.09,12.45.03,17.09,4.74,17.09,17.29.02,48.49.02,96.98.04,145.46,0,12.86-4.89,17.8-17.76,17.82-39.16.04-78.31.06-117.47.09-2.15,0-4.29,0-7.35,0Zm97.11,276.65c0-2.44,0-4.26,0-6.09-.02-39.5-.06-79-.05-118.5,0-10.56,5.48-15.99,16.03-16.08,5.5-.05,11,0,16.5,0,4.43,0,8.86,0,13.76,0v140.69h44.36v-185.26c-1.3-.1-2.27-.25-3.24-.25-62.83.03-125.67-.05-188.5.19-18.75.07-33.9,15-34.03,33.69-.33,49.16-.19,98.33-.33,147.5,0,3.39.95,4.68,4.53,4.62,12-.19,24-.05,36-.09,1.26,0,2.53-.29,4.15-.49,0-2.14,0-3.95,0-5.76-.02-20.5-.03-41-.05-61.5-.02-19.17-.06-38.33-.04-57.5,0-8.33,3.75-14.66,10.78-15.16,11.53-.81,23.17-.22,35.29-.22v140.22h44.82Zm-229.03-314.77v.04c9.83,0,19.65,0,29.48,0,9.83,0,19.65.03,29.48,0,19.3-.04,34.88-14.95,35.01-34.28.26-39.64.31-79.28.09-118.92-.11-19.69-15.3-34.77-35.02-34.87-39.31-.2-78.62-.19-117.92.04-19.79.11-34.95,15.75-34.97,35.51-.03,39.14-.01,78.28.07,117.42.04,19.53,15.34,34.92,34.82,35.03,19.65.11,39.31.03,58.96.03Zm-36.4,315.05c18.65,0,37.31.03,55.96,0,22.38-.05,37.11-14.88,37.11-37.4,0-36.97-.01-73.95-.08-110.92-.04-22.38-14.88-37.21-37.34-37.25-37.14-.07-74.28-.06-111.42-.04-21.72.01-36.65,15.04-36.67,36.84-.03,37.47-.04,74.95-.04,112.42,0,21.47,14.92,36.33,36.52,36.36,18.65.03,37.31,0,55.96,0Zm-129.9-185.32c-1.09-.13-1.89-.32-2.69-.32-38.83-.04-77.66-.28-116.49.01-19.25.14-33.99,15.86-34.02,35.36-.06,38.16-.06,76.32.02,114.49,0,3.46.39,7.03,1.3,10.35,4.44,16.25,18.1,25.65,37.22,25.67,36.5.03,72.99-.03,109.49-.07,1.75,0,3.51-.18,5.14-.27v-44.67c-2.4,0-4.38,0-6.35,0-28.83-.01-57.66-.01-86.49-.05-10.22-.01-15.62-5.47-15.63-15.8-.03-21-.04-41.99-.02-62.99,0-12.31,5-17.32,17.26-17.34,28.5-.03,56.99-.04,85.49-.06,1.92,0,3.84,0,5.78,0v-44.31Z"/>
      <path d="m90.68,365.39c2.43,0,4.42,0,6.41,0,39.5.03,78.99.07,118.49.09,12.58,0,17.71-5.05,17.71-17.45-.02-48.66-.03-97.32-.06-145.98,0-12.39-4.86-17.29-17.22-17.29-21.33-.01-42.66,0-63.99.06-11.04.03-16.06,5.17-16.06,16.31,0,21.83-.02,43.66-.01,65.49,0,10.18,5.48,15.73,15.74,15.78,15.66.08,31.33.04,46.99.05,1.81,0,3.62,0,5.81,0v44.75c-1.63.11-3.37.33-5.12.33-24.16.05-48.33.1-72.49.07-21.29-.03-36.52-15.2-36.56-36.55-.08-38.33-.07-76.66-.02-114.99.03-21.55,15.31-36.81,36.9-36.83,38.33-.04,76.66-.04,114.99.05,21.05.05,36.36,15.24,36.37,36.26.03,66.66-.04,133.32-.15,199.98-.03,19.32-15.23,34.86-34.41,34.93-49.66.18-99.32.15-148.98.19-1.32,0-2.63-.16-4.32-.27v-44.98Z"/>
      <path d="m541.96,365.51c3.06,0,5.21,0,7.35,0,39.16-.03,78.31-.05,117.47-.09,12.86-.01,17.76-4.96,17.76-17.82-.02-48.49-.02-96.98-.04-145.46,0-12.55-4.64-17.25-17.09-17.29-21.33-.06-42.66-.08-63.98-.09-10.8,0-16.27,5.43-16.3,16.29-.05,21.83-.07,43.66-.04,65.48.02,10.08,5.76,15.85,15.82,15.89,15.66.06,31.33,0,46.99,0,1.81,0,3.61,0,5.84,0v44.92c-1.92.09-3.7.25-5.48.25-24.16-.01-48.32,0-72.48-.08-20.55-.06-35.7-14.98-35.8-35.6-.17-38.66-.21-77.31-.12-115.97.06-21.77,15.11-36.61,36.92-36.66,37.99-.08,75.98-.09,113.97-.05,22.29.02,37.24,15.08,37.24,37.41,0,66.15,0,132.3-.05,198.45-.02,16.81-10.8,30.58-27.03,34.63-2.87.72-5.93.86-8.91.87-48.82.01-97.64-.09-146.47,0-4.24,0-5.82-.91-5.71-5.5.32-12.95.11-25.91.11-39.57Z"/>
      <path d="m639.06,642.16h-44.82v-140.22c-12.12,0-23.75-.59-35.29.22-7.03.5-10.77,6.83-10.78,15.16-.02,19.17.02,38.33.04,57.5.02,20.5.03,41,.05,61.5,0,1.81,0,3.62,0,5.76-1.62.2-2.88.49-4.15.49-12,.03-24-.1-36,.09-3.58.06-4.54-1.23-4.53-4.62.14-49.17,0-98.33.33-147.5.13-18.69,15.28-33.62,34.03-33.69,62.83-.24,125.67-.16,188.5-.19.97,0,1.94.15,3.24.25v185.26h-44.36v-140.69c-4.9,0-9.33,0-13.76,0-5.5,0-11-.05-16.5,0-10.55.09-16.03,5.52-16.03,16.08-.02,39.5.03,79,.05,118.5,0,1.83,0,3.65,0,6.09Z"/>
      <path d="m410.03,327.39c-19.65,0-39.31.09-58.96-.03-19.48-.11-34.78-15.51-34.82-35.03-.09-39.14-.1-78.28-.07-117.42.01-19.76,15.17-35.4,34.97-35.51,39.31-.22,78.62-.24,117.92-.04,19.72.1,34.92,15.18,35.02,34.87.21,39.64.17,79.28-.09,118.92-.13,19.32-15.7,34.24-35.01,34.28-9.83.02-19.65,0-29.48,0-9.83,0-19.65,0-29.48,0v-.04Zm.29-142.72v.03c-10.99,0-21.99-.04-32.98.01-10.26.04-15.88,5.28-15.98,15.62-.22,22.15-.21,44.3-.08,66.45.06,10.06,5.98,15.72,16.04,15.75,21.99.06,43.97.06,65.96,0,9.8-.03,15.68-5.69,15.73-15.47.11-22.32.09-44.64-.05-66.96-.07-9.93-5.71-15.35-15.65-15.42-10.99-.07-21.99-.02-32.98-.02Z"/>
      <path d="m373.63,642.44c-18.65,0-37.31.02-55.96,0-21.6-.03-36.52-14.89-36.52-36.36,0-37.47.01-74.95.04-112.42.02-21.8,14.95-36.83,36.67-36.84,37.14-.03,74.28-.03,111.42.04,22.46.04,37.3,14.87,37.34,37.25.07,36.97.08,73.95.08,110.92,0,22.52-14.73,37.36-37.11,37.4-18.65.04-37.31,0-55.96,0Zm.47-44.74v.02c11,0,21.99.05,32.99-.02,8.95-.06,14.82-5.64,14.88-14.6.16-22.32.18-44.65.06-66.97-.05-8.92-5.9-14.68-14.87-14.73-22.16-.12-44.32-.11-66.47.02-9.32.06-14.82,5.83-14.83,15.13-.02,21.99,0,43.98.04,65.97.02,9.67,5.46,15.11,15.22,15.17,11,.07,21.99.02,32.99.02Z"/>
      <path d="m243.73,457.12v44.31c-1.94,0-3.86,0-5.78,0-28.5.02-56.99.03-85.49.06-12.25.01-17.25,5.03-17.26,17.34-.01,21,0,41.99.02,62.99.01,10.33,5.41,15.79,15.63,15.8,28.83.03,57.66.03,86.49.05,1.97,0,3.95,0,6.35,0v44.67c-1.63.09-3.39.27-5.14.27-36.5.04-72.99.1-109.49.07-19.12-.02-32.78-9.42-37.22-25.67-.91-3.33-1.29-6.89-1.3-10.35-.08-38.16-.08-76.32-.02-114.49.03-19.5,14.77-35.22,34.02-35.36,38.83-.29,77.66-.05,116.49-.01.8,0,1.6.18,2.69.32Z"/>
      <path class="cls-1" d="m410.32,184.67c10.99,0,21.99-.06,32.98.02,9.94.07,15.59,5.49,15.65,15.42.15,22.32.17,44.64.05,66.96-.05,9.78-5.93,15.44-15.73,15.47-21.99.06-43.97.06-65.96,0-10.06-.03-15.97-5.68-16.04-15.75-.13-22.15-.14-44.3.08-66.45.1-10.35,5.72-15.58,15.98-15.62,10.99-.05,21.99-.01,32.98-.01v-.03Z"/>
      <path class="cls-1" d="m374.1,597.69c-11,0-21.99.05-32.99-.02-9.76-.06-15.2-5.49-15.22-15.17-.04-21.99-.06-43.98-.04-65.97,0-9.3,5.51-15.07,14.83-15.13,22.16-.13,44.32-.14,66.47-.02,8.97.05,14.82,5.81,14.87,14.73.12,22.32.1,44.65-.06,66.97-.06,8.96-5.93,14.55-14.88,14.6-11,.07-21.99.02-32.99.02v-.02Z"/>
    </g>
  </g>
</svg>