<?xml version="1.0" encoding="UTF-8"?>
<svg id="_Слой_2" data-name="Слой 2" xmlns="http://www.w3.org/2000/svg" viewBox="0 0 1542.55 582.47">
  <defs>
    <style>
      .cls-1 {
        fill: #fff;
      }
    </style>
  </defs>
  <g id="_Слой_1-2" data-name="Слой 1">
    <g>
      <path class="cls-1" d="m59.34,286.71c6.09.6,11.46,1.12,16.76,1.64.62,6.86,1.02,13.3,1.82,19.69.88,7-2.15,11.84-7.69,15.56-15.62,10.5-31.19,21.08-46.89,31.46-2.79,1.85-3.85,3.43-2.6,6.85,3.15,8.59,5.92,17.32,8.79,26.01,1.32,4.01,3.61,5.67,8.18,5.33,16.11-1.2,32.24-2.01,48.37-2.85,11.18-.58,20.34,2.33,26.23,13.16,3.7,6.81,8.55,13.21,13.85,18.89,7.1,7.6,7.85,15.97,4.76,24.98-4.86,14.16-9.98,28.24-15.46,42.17-4.36,11.07-4.74,11.05,4.75,18.08,5.89,4.35,12.12,8.24,18.04,12.54,2.62,1.9,4.54,1.62,7.05-.3,14.16-10.83,28.66-21.22,42.58-32.35,7.36-5.89,14.79-5.88,22.96-3.18,9.79,3.23,19.47,6.83,29.38,9.61,8.45,2.37,13.25,7.56,15.63,15.78,4.91,16.95,10.2,33.79,15,50.77,1.22,4.32,3.37,5.94,7.66,5.88,8.97-.13,17.94-.12,26.91.05,3.99.08,5.83-1.56,6.94-5.42,5.04-17.43,10.54-34.72,15.55-52.15,2.05-7.11,6.08-11.29,13.34-13.22,10.27-2.74,20.35-6.19,30.48-9.46,9.69-3.13,18.43-3.33,27.12,3.81,12.98,10.67,26.87,20.24,40.22,30.49,3.2,2.46,5.45,3.1,9.02.37,7.13-5.46,14.69-10.35,22.17-15.34,2.6-1.73,3.36-3.34,2.15-6.57-6.37-16.98-12.43-34.08-18.6-51.13-2.61-7.22-2.15-13.48,3.17-19.9,8.48-10.22,15.84-21.36,24.02-31.83,1.75-2.24,4.95-4.51,7.6-4.66,7.92-.45,15.89.08,23.84.36,12.49.45,24.98.88,37.45,1.58,4.74.27,6.78-2.08,8.36-6.1,3.53-8.92,3.67-8.87,13.3-7.13,2.42.44,4.83.9,8.27,1.53-3.35,8.3-6.23,16.25-9.87,23.83-.88,1.84-4.25,3.45-6.5,3.5-11.14.23-22.31.04-33.45-.26-10.49-.28-20.97-1.05-31.45-1.17-2.01-.02-4.66,1.52-5.96,3.17-6.27,7.97-11.93,16.43-18.33,24.29-3.02,3.7-3.55,6.77-1.87,11.2,6.72,17.74,13.01,35.64,19.62,53.41,1.97,5.29,1.7,9.98-3.01,13.4-13.45,9.76-26.94,19.46-40.66,28.82-4,2.73-8.39,1.91-12.48-1.19-16.31-12.39-32.78-24.56-49.09-36.95-2.45-1.86-4.48-1.95-7.3-1.02-10.11,3.34-20.27,6.51-30.52,9.4-2.62.74-3.78,1.81-4.53,4.36-5.78,19.47-11.85,38.85-17.52,58.34-1.47,5.06-3.95,7.71-9.38,7.66-17.15-.15-34.3-.1-51.45-.18-5.32-.03-8.32-2.49-9.86-7.92-5.45-19.21-11.44-38.27-17.03-57.44-1.05-3.59-2.84-5.43-6.5-6.49-9.74-2.81-19.28-6.28-29.02-9.07-1.74-.5-4.43.48-6.03,1.67-15.91,11.81-31.66,23.82-47.48,35.74-6.56,4.95-8.85,5.12-15.6.46-11.23-7.75-22.43-15.54-33.43-23.61-10.29-7.55-10.79-10.48-6.29-22.43,6.57-17.44,12.94-34.95,19.2-52.5.54-1.5.14-3.95-.79-5.27-6.06-8.55-12.2-17.06-18.79-25.21-1.43-1.77-4.81-2.84-7.25-2.78-14.65.37-29.29,1.22-43.94,1.78-5.65.22-11.32-.06-16.97.17-5.76.24-9.14-2.71-10.85-7.74-4.55-13.39-9.15-26.77-13.28-40.29-4.54-14.85-1.87-12.55,7.57-19,15.94-10.89,31.99-21.64,48.08-32.3,2.61-1.73,3.35-3.62,2.98-6.62-.67-5.37-.95-10.78-1.45-16.75Z"/>
      <path class="cls-1" d="m415.17,438.92c-5.09,3.39-10.12,6.88-15.31,10.11-1.46.91-3.35,1.19-5.09,1.55-9.2,1.86-17.1,6.19-23.75,12.94-.28-.33-.56-.65-.83-.98,1.21-1.05,2.4-2.12,3.62-3.16,1.24-1.06,2.51-2.1,3.53-4.1-3.43.4-6.86,1.06-10.31,1.17-8.1.26-16.34,1.26-24.27.14-12.94-1.82-25.24.22-37.43,3.75-6.84,1.98-13.41,4.92-20.56,7.6.3-.81.4-1.59.81-2.1,9.95-12.44,21.92-22.24,37.98-24.82,6.46-1.04,13.54.29,20.09,1.67,18.53,3.9,36.73,4.15,54.32-3.67,8.83-3.92,15.99-10.16,21.19-18.43,2.74-4.35,4.36-8.93,3.01-14.22-.27-1.06.17-2.52.73-3.55,1.9-3.48,4.12-6.79,5.96-10.3.61-1.16.66-2.78.45-4.11-.06-.38-2.28-1.01-2.88-.6-1.23.83-2.84,2.28-2.86,3.5-.04,3.19,2.08,7.47-2.08,8.59-1.9.51-5.45-2.58-7.26-4.83-3.02-3.75-6.58-2.88-10.35-2.61-10.45.75-20.9,1.35-31.4,1.21,12.74-.81,25.48-1.62,38.39-2.45-.76-5.25-2.76-8.12-7.97-9.14-16.4-3.22-32.71-6.94-48.84-11.5,17.7,3.67,35.4,7.33,53.87,11.16-1.33-9.92,5.32-12.24,12.98-14.21,2.35-.6,4.95-3.31,5.92-5.67,4.15-10.16,2.75-20.83-1.31-30.24-8.77-20.3-18.45-40.26-28.77-59.82-3.94-7.47-8.28-14.32-9.73-22.93-2.09-12.45-7.54-23.75-14.4-34.33-.71-1.1-1.29-2.33-1.73-3.57-6.19-17.23-16.69-23.63-34.99-21.69-2.39.25-5.47-.29-7.33-1.68-11.72-8.73-22.94-18.15-34.81-26.66-9.24-6.63-19.11-12.2-30.24-15.63-4.4-1.35-9.37-1.62-13.41-4.83-2.15-1.7-5.62-1.8-8.53-2.48-5.64-1.32-11.37-2.33-16.96-3.84-13.96-3.78-27.87-7.76-41.79-11.68-1.37-.38-2.71-.87-4-2.35,2.7-.26,5.41-.77,8.11-.73,8.6.12,17.19.56,25.79.62,2.07.01,4.27-.7,6.21-1.54,23.36-10.06,48.06-14.05,73.16-13.95,73.2.3,127.53,33.73,164.58,96.18,10.24,17.26,15.89,36.21,19.34,55.87.27,1.51.29,3.07-.63,4.83-.47-1.13-.99-2.25-1.39-3.41-7.89-23.3-19.5-44.8-35.35-63.38-33.45-39.21-75.31-64.62-126.93-72.23-18.48-2.72-36.88-1.07-55.06,3.03-.94.21-1.84.63-3.35,1.16,6.43,2.87,12.46,5.21,18.16,8.19,6.24,3.26,12.45,6.71,18.18,10.77,20.17,14.33,41.31,26.89,64.17,36.42,4.39,1.83,9.24,2.59,13.6,4.47,3.29,1.42,6.62,3.37,9.14,5.88,21.41,21.4,33.85,47.13,36.55,77.39.14,1.61-.97,3.29-1.04,4.96-.09,2.01-.27,4.33.57,6.02,5.59,11.13,11.54,21.86,20.1,31.32,15.46,17.1,23.22,37.83,24.84,60.84,1.42,20.1-4.1,37.77-18.12,52.53-1.72,1.81-3.51,3.57-5.07,5.52-2.63,3.29-4.71,6.46-10.2,4.49-2.01-.72-5.35,2.23-8.07,3.5-.32,0-.65,0-.97.01Z"/>
      <path class="cls-1" d="m1051.31,281.82c3.39-6.24,6.24-11.48,9.44-17.38,7.08,5.24,13.87,10.22,20.57,15.34.53.41.8,2.02.44,2.6-2.77,4.46-5.79,8.77-8.61,13.21-2.22,3.49-4.08,7.21-6.47,10.57-1.1,1.55-3.01,3.38-4.68,3.53-8.95.78-17.95.93-26.91,1.62-3.09.24-4.57-.95-5.7-3.52-4.16-9.5-8.38-18.97-12.64-28.43-.81-1.8-1.91-3.48-3.3-5.99-1.05,5.29-4.24,5.94-8.38,5.83-9.31-.25-18.63-.08-28.37-.08v13c8.88,0,17.51.18,26.12-.07,4.77-.14,6.47,1.63,6.45,6.4-.06,13.86.1,14.01-13.63,14.99-14.28,1.02-28.58,1.79-42.87,2.54-5.41.29-6.41-.77-6.44-6.27-.04-7.16-1.74-14.96.54-21.32,2.44-6.82,1.6-13.25,2.21-19.85.06-.65-.07-1.32-.2-3.21-1.03,1.97-1.67,2.95-2.08,4.01-2.42,6.38-4.52,12.89-7.25,19.13-2.35,5.38-5.44,10.42-8.08,15.68-.73,1.46-1.21,3.13-1.41,4.75-.96,7.79-.89,8.13-8.56,8.72-13.6,1.05-27.23,1.79-40.87,2.36-5.11.21-7.24-4.59-8.62-8-3.21-7.91-6.84-15.7-7.24-24.72-.24-5.41-3.44-10.68-5.32-16.02-.72-2.04-1.67-4.02-2.19-6.11-1.99-7.88-.39-9.91,7.59-9.91,5.16,0,10.33.12,15.49-.05,2.92-.1,4.68.88,5.62,3.72,2.83,8.53,6.06,16.93,8.63,25.53,1.64,5.51,2.25,11.32,3.61,16.92.43,1.76,1.79,3.29,3.38,6.09,1.15-2.96,1.75-4.62,2.43-6.24,5.96-14.29,11.82-28.62,18.05-42.79.68-1.55,3.52-3.02,5.36-3.04,7.26-.04,14.52.84,21.78.79,25.26-.18,50.51-.79,75.77-.87,14.49-.05,10.46-2.47,17.72,10.46,2.84,5.05,5.49,10.2,8.63,16.06Z"/>
      <path class="cls-1" d="m1202.43,307.89v29.93l1.62.35c3.73-9.89,7.45-19.79,11.58-30.75,5.14-.37,11.69-.85,18.25-1.32-.1.49-.2.99-.31,1.48,1.87.78,3.72,2.13,5.63,2.23,5.44.31,10.9.11,16.82.11-.41-1.85-.7-3.17-1.07-4.84,6.86-.43,13.51-1.36,20.1-.99,2.43.14,5.72,2.87,6.82,5.25,3.56,7.68,6.28,15.76,9.35,23.67.58,1.5,1.3,2.96,1.95,4.44.58-.04,1.16-.08,1.74-.12,0-7.92.02-15.83-.01-23.75-.01-2.82-.44-5.66-.13-8.43.1-.94,1.82-2.37,2.88-2.44,14.28-.94,28.57-1.77,42.87-2.36,1.52-.06,3.1,1.58,3.96,2.06,2.71-.99,5.25-2.58,7.89-2.78,13.76-1.03,27.55-1.71,41.39-2.52,6.92,18.38,6.06,37.44,7.7,56.68h-26.62c-.87-12.45-1.75-25.07-2.64-37.69-.36-.08-.71-.16-1.07-.24-.53,1.05-1.17,2.07-1.57,3.17-3.35,9.23-6.77,18.44-9.91,27.74-1.33,3.93-3.62,5.65-7.76,5.39-3.48-.22-7.01-.26-10.49,0-4.44.34-6.72-1.74-8.04-5.75-2.82-8.54-5.82-17.01-8.78-25.5-.57-1.64-1.28-3.23-1.92-4.84-.41.05-.83.11-1.24.16-.53,7.32-1.07,14.63-1.57,21.95-.3,4.31-.32,8.65-.96,12.9-.18,1.17-2.13,2.95-3.29,2.97-14.82.2-29.65.22-44.48-.01-1.37-.02-3.33-1.85-3.95-3.29-2.49-5.81-4.71-11.74-6.73-17.73-.91-2.72-2.38-3.57-5.11-3.48-5.33.17-10.67-.17-15.98.19-1.49.1-3.57,1.58-4.17,2.95-2.4,5.48-4.5,11.11-6.35,16.81-1.14,3.5-2.84,5.12-6.74,4.78-7.53-.67-15.61-2.81-22.51-.91-9.65,2.66-14.27-3.55-20.15-7.74-13.55-9.68-26.79-19.78-40.15-29.73-1.28-.95-2.48-2.01-4.8-3.91,4.92-.31,8.55-.9,12.09-.55,1.25.12,2.84,2.34,3.33,3.89,3.15,10.03,9.92,15.4,20.24,16.67,3.26.4,5.18-.24,4.94-4.05-.18-2.97-.04-5.96-.04-9.79-3.25,0-6.17.09-9.09-.04-1.44-.06-3.2-.09-4.21-.89-1.71-1.36-2.94-3.32-4.37-5.03,1.87-.57,3.71-1.51,5.62-1.65,12.77-.95,25.55-1.74,39.41-2.64Z"/>
      <path class="cls-1" d="m76.61,283.22c-5.65-.63-10.89-1.22-16.38-1.83,0-1.39-.25-2.58.04-3.62,1.07-3.76-.77-5.77-3.72-7.72-16-10.52-31.88-21.23-47.85-31.79-9.58-6.34-10.04-6.4-6.77-17.32,4.04-13.54,8.85-26.85,13.32-40.26,1.45-4.34,3.99-7.05,9-7.01,6.15.05,12.32-.5,18.46-.31,14.97.46,29.94,1.11,44.9,1.9,3.58.19,5.7-.89,7.8-3.9,5.99-8.6,12.31-16.98,18.78-25.22,1.9-2.42,2.28-4.34,1.22-7.19-6.8-18.42-13.34-36.93-20.19-55.33-2.29-6.16-1.28-11.21,3.97-15,12.54-9.05,25.18-17.96,37.88-26.79,5.14-3.57,9.98-2.95,15.08.97,15.83,12.19,31.98,23.97,47.88,36.07,2.57,1.95,4.57,2.1,7.64,1.06,9.6-3.27,19.36-6.12,29.13-8.84,3.17-.88,5.22-2.04,6.08-5.53,1.44-5.81,3.36-11.5,5.27-17.18.41-1.23,1.57-3.01,2.53-3.11,5.38-.56,10.82-.68,16.66-.98-.21,2-.15,3.35-.52,4.56-2.8,9.24-5.59,18.48-8.58,27.66-1.72,5.28-5.54,8.44-10.87,10.07-11.61,3.55-23.12,7.45-34.77,10.87-7.92,2.32-15.36,2.28-22.58-3.43-15.15-11.96-30.83-23.26-46.75-35.17-9.34,6.58-18.66,12.98-27.71,19.73-1.05.79-1.32,3.8-.77,5.37,5.74,16.33,11.59,32.61,17.67,48.81,3.47,9.25,2.71,17.05-4.37,24.77-6.48,7.07-12.2,15.05-17.09,23.32-5.67,9.58-13.73,12.13-23.96,11.44-16.61-1.12-33.23-2.02-49.85-2.96-3.58-.2-6.35.71-7.65,4.73-2.77,8.54-5.74,17.03-8.96,25.42-1.25,3.25-.18,4.75,2.42,6.46,14.21,9.32,28.01,19.3,42.57,28.03,9.69,5.82,13.03,13.5,11.49,24.1-.21,1.47-.27,2.96-.45,5.14Z"/>
      <path class="cls-1" d="m215.26,259.72c1.05-20.03,1.08-19.95,19.67-26.66,5.56-2.01,10.24-2.28,15.23,1.98,6.21,5.3,14.67,5.12,21.33.25,10.35-7.56,14.34-18.11,12.93-30.58-.48-4.25.28-6.4,4.73-6.64,12.76-.68,25.52-1.42,38.28-2.11,5.65-.31,11.29-.76,16.94-.79,9.08-.04,16.96,6.06,19.85,14.73.6,1.81,1.66,3.66,3,5,13.3,13.29,18.38,29.75,16.77,47.88-.93,10.45-5.61,20.56-6.59,31.02-.96,10.19-7.4,15.83-13.55,22.21-2.12,2.2-4.32,3.44-7.55,1.97-1.04-.47-2.8.19-4.06.73-21.13,9.1-42.73,12.27-65.24,5.58-3.56-1.06-5.26-2.45-4.98-6.52.76-10.92-4.73-19.2-12.43-26.08-5.55-4.96-16.88-5.13-22.35-.38-3.11,2.7-6.36,3.3-10.1,3.04-2.16-.15-4.33-.2-6.47-.5-9.77-1.38-11.98-3.33-13.47-13.32-1.02-6.87-1.3-13.86-1.92-20.8Zm60.5-5.95c.11,15.43,2.72,26.66,7.39,37.5,9.87,22.94,36.14,36.65,62.73,24.4,11.99-5.52,18.97-15.5,25.55-26.38,13.73-22.68,12.44-58.26-16.79-78.21-18.38-12.54-40.59-13.22-56.47.22-14.57,12.34-22.97,27.92-22.41,42.46Z"/>
      <path class="cls-1" d="m197.22,421.04c3.6.52,7.19,1.05,12.01,1.75-.64,2.82-1.32,5.81-2.22,9.74h19.39c-.12,1.92-.26,3.98-.42,6.48h8.18c-1.32,1.78-2.04,2.75-3.17,4.28h7.56c-1.28,1.67-2,2.61-3.16,4.12,4.64.49,9.02.95,13.65,1.44-1.63,2.58-3.05,4.85-4.52,7.19,1.85,1.37,3.67,2.73,5.81,4.32,2.94-3.76,5.55-7.51,8.62-10.83,1.15-1.25,3.38-1.5,5.12-2.2.38,1.75,1.25,3.56,1.03,5.23-.56,4.24-1.6,8.43-2.62,13.49,8.46,2.82,17.21,5.74,25.95,8.66-.17.49-.34.98-.51,1.47-41.98-.26-79.68-13.08-112.38-40.17-44.7-37.04-68.4-84.1-67.83-142.6,12.5,24.12,25.01,48.24,37.37,72.09-.65-.27-2.04-.87-4.07-1.72.57,1.25.76,2.23,1.34,2.84,7.5,7.89,13.49,17.63,25.02,20.66.61.16,1.13.66,2.87,1.72-1.18.67-1.97,1.12-3.15,1.79,1.12.67,2.27,1.34,3.38,2-.43,2.17-.81,4.06-1.11,5.59,2.6,2.99,5.57,5.4,8.25,8.15,4.42,4.55,9.15,10.25,16.77,10.54,1.11.04,2.16,1.49,3.24,2.28-.13.57-.26,1.15-.38,1.72Z"/>
      <path class="cls-1" d="m461.57,162.41c-2.47-4.28-5.99-7.83-6.4-11.7-.61-5.73.02-12.01,1.84-17.49,5.36-16.08,11.64-31.86,17.3-47.84.53-1.49-.2-4.45-1.39-5.35-7.83-5.91-16-11.38-23.95-17.14-2.71-1.97-4.76-1.89-7.5.22-13.84,10.69-28.05,20.9-41.7,31.81-7.07,5.65-14.3,6.41-22.42,3.8-11.72-3.76-23.56-7.19-35.06-11.54-3.51-1.33-7.53-4.69-8.74-8.05-4.33-11.99-7.56-24.38-11.65-38.08,6.18,0,11.59-.18,16.98.16,1.01.06,2.32,2.09,2.75,3.44,2.26,7.13,4.39,14.31,6.35,21.52.91,3.35,2.5,5.13,6.15,6.12,9.45,2.57,18.81,5.58,28,8.97,3.29,1.21,5.27.29,7.61-1.48,15.91-12.06,31.85-24.09,47.79-36.12,5.14-3.88,9.2-4.13,14.54-.42,11.34,7.87,22.62,15.83,33.82,23.91,2.54,1.83,5.26,3.93,6.73,6.56,1.47,2.63,2.84,6.57,1.93,9.09-7.3,20.33-14.96,40.55-22.95,60.62-2.56,6.42-6.46,12.31-10.04,18.97Z"/>
      <path class="cls-1" d="m469.06,170.96c5.07-1.99,10.12-4.15,15.32-5.87,1.01-.33,3.34.72,3.8,1.71,3.68,8.06,9.9,8.88,17.99,8.3,16.92-1.22,33.92-1.48,50.89-1.77,10.83-.19,12.2.69,15.7,10.82,4.89,14.14,9.3,28.45,13.71,42.75,1.35,4.35.17,7.66-4.16,10.47-17.87,11.6-35.43,23.67-53.17,35.47-2.37,1.58-2.93,3.28-2.8,6.15.41,9.08.08,18.19.49,27.27.09,2.05,1.49,4.74,3.15,5.9,10.89,7.61,22.02,14.89,34.36,23.13-2.62,0-3.81.11-4.98-.02-9.1-.96-18.21-1.84-27.29-2.98-12.29-1.54-24.77-10.89-22.43-26.28,1.58-10.38.75-20.56-.64-30.78-.87-6.43,1.1-11.32,6.57-15,16.31-10.96,32.5-22.11,48.84-33.02,2.36-1.57,3.1-2.88,2.13-5.6-3.33-9.41-6.31-18.94-9.81-28.28-.54-1.43-3.12-3.01-4.72-2.97-16.11.35-32.22,1.03-48.33,1.62-1.66.06-3.32.26-4.98.35-10.11.57-18.27-2.41-23.16-12.08-1.62-3.2-4.12-5.96-6.49-9.31Z"/>
      <path class="cls-1" d="m691.93,330.72c-8.74.48-17.33.96-26.54,1.47v-15.49h-26.23v16.87c-9.24.59-17.94,1.15-26.59,1.7-1.19-12.48-3.06-24.3-3.25-36.15-.22-13.56,4.17-26.92,2.79-40.68-.09-.94,2.17-2.99,3.4-3.05,6.65-.31,13.31-.12,19.97-.16,3.32-.02,3.66,2.11,3.65,4.69-.03,8.66,0,17.32.02,25.97,0,1.62,0,3.25,0,5.32h22.3c5.89-9.8,3.2-20.27,3.56-30.36.16-4.36,1.52-5.92,5.87-5.7,5.65.29,11.32.17,16.98.04,3.16-.07,4.56,1.11,4.53,4.36-.09,10.32.17,20.65-.12,30.97-.13,4.5-2.91,9.56-1.59,13.35,2.71,7.77.99,15.43,1.65,23.08.1,1.11-.22,2.25-.39,3.77Z"/>
      <path class="cls-1" d="m846.09,304.13c6.83,3.75,7.24,10.51,9.63,17.15-13.57-.11-26.81,6.05-39.1-4.83-.49,3.45-.71,5.05-1.02,7.23-8.7.52-17.4,1.04-27.19,1.62-.83-10.42-3.32-20.52-1.96-30.08,1.7-11.96,2.02-23.82,2.61-35.76.07-1.49,3.23-4,5-4.04,14.47-.33,28.96-.37,43.43-.12,8.97.16,19.22,9.82,20.07,18.71.46,4.78.47,9.69-.08,14.45-.27,2.36-2.03,4.7-3.56,6.71-2.3,3.03-5,5.75-7.83,8.95Zm-31.87-5.17c6.39-.1,9.7-1.76,17.11-8.56,6.14-5.63,4.68-13.98-3.39-16.28-4.62-1.32-9.77-.95-14.67-.9-.94,0-2.45,1.97-2.69,3.23-1.03,5.5-1.65,11.07-2.48,16.6-.65,4.28,1.09,5.99,6.13,5.91Z"/>
      <path class="cls-1" d="m780.27,325.77c-9.15.47-18.31,3.16-25.79.71-7.62-2.49-14.73-1.46-22.02-2.27-2.14-.24-4.25-.35-4.96,2.72-.21.92-2.23,1.92-3.48,2-7.94.54-15.91.84-23.81,1.22-.18-.51-.44-.85-.36-1.09,4.01-12.6,6.59-25.93,12.49-37.57,5.6-11.06,10.47-22.35,15.46-33.63.55-1.25,2.74-2.42,4.23-2.5,5.82-.29,11.67-.4,17.47.05,1.83.14,4.39,1.87,5.1,3.52,3.67,8.56,7.1,17.24,10.11,26.05,1.91,5.59,2.39,11.71,4.55,17.18,2.64,6.68,6.38,12.92,9.6,19.37.51,1.02.73,2.17,1.41,4.25Zm-53.9-16.17h21.29c-2.59-9.48-5.1-18.64-7.54-27.55-2.72,3.96-5.72,7.44-7.68,11.43-2.39,4.88-3.89,10.18-6.08,16.12Z"/>
      <path class="cls-1" d="m1406.49,296.42c14.12-.78,27.41-1.5,40.68-2.26,5.82-.33,11.64-.69,17.44-1.17,3.59-.3,5.04,1.07,5.24,4.77.19,3.53,1.13,7.04,1.98,10.51,1.36,5.57-.62,8.35-6.31,8.38-9.45.04-18.91.01-28.68.01v15.02c8.63,0,17.07.07,25.51-.02,12.75-.13,10.8.06,11.37,11.12.19,3.63.03,7.28.03,11.14h-64.58c0-9.06.35-17.86-.1-26.62-.42-8.11-1.72-16.18-2.54-24.28-.2-1.95-.03-3.94-.03-6.61Z"/>
      <path class="cls-1" d="m1473.31,292.7c8.99-.55,17.63-.49,26.08-1.72,13.82-2.01,23.72,4.39,34.33,12.13,11.53,8.41,8.73,19.28,7.98,29.69-.71,9.88-7.94,16.11-16.38,20.58-1.24.66-2.87.78-4.32.78-13.14.06-26.29.06-39.43.02-5.36-.02-7-1.46-6.68-6.84.32-5.27,1.11-10.55,2.16-15.73.81-4,4.94-5.21,10.35-3.54,4.28,1.32,8.5,3.3,12.87,3.7,3.75.35,7.89-.55,11.44-1.95,3.24-1.28,3.77-4.59.57-6.64-4.28-2.75-8.83-5.28-13.59-7.03-10.34-3.81-18.95-9.51-24.19-19.49-.51-.97-.65-2.13-1.18-3.96Z"/>
      <path class="cls-1" d="m1199.38,265.3c-.37,2.18-.93,5.62-1.52,9.05-1.33,7.7-4.09,9.31-11.9,6.85-6.36-2-12.68-4.03-19.47-1.9-6.3,1.98-11.35,5.46-14.47,11.43-2.16,4.14-6.57,7.12-6.31,12.57.03.55-1.88,1.56-2.98,1.72-3.12.44-6.4.13-9.42.88-6.34,1.57-10.49-2.09-14.61-5.68-.92-.8-1.14-2.89-1.01-4.33.95-10.53,8.53-17.57,14.17-25.48,2.91-4.08,7.34-7.22,11.48-10.23,4.93-3.57,10.53-5.26,16.85-5.05,10.15.34,20.31,0,30.47.13,6.46.08,8.87,2.66,8.72,10.03Z"/>
      <path class="cls-1" d="m252.8,184.38c-2.95-2.49-6.53-5.46-10.06-8.47-14.09-12.03-30.1-12.38-46.49-6.63-5.7,2-9.67,7.27-11.23,13.61-2.49,10.1-8.85,15.81-18.99,16.98-15,1.72-27.79,16.69-29.14,34.1-.85,11.01,3.14,17.99,13.04,23,3.79,1.92,7.51,3.97,12.55,6.65-10,2.01-18.42,2.47-26.8-.41-4.17-1.43-6.83-4.25-8.68-8.34-5.93-13.09-7.95-26.07-.22-39.19,6.23-10.57,15.95-16.86,26.97-21.1,13.4-5.16,21.96-14.68,26.89-27.77,1.13-3,2.79-4.41,5.87-5.2,15.61-4.04,30.98-3.01,46.25,1.64,11.2,3.41,15.97,12.57,20.03,21.14Z"/>
      <path class="cls-1" d="m339.19,36.36c-5.82.31-10.94.72-16.06.73-1,0-2.51-1.4-2.9-2.47-1.66-4.52-3.17-9.12-4.39-13.77-.83-3.15-2.09-4.74-5.74-4.64-9.96.26-19.93.2-29.89.04-2.92-.05-4.15,1.17-4.9,3.76-1.56,5.43-3.08,10.9-5.11,16.17-.61,1.57-2.77,3.39-4.38,3.55-4.75.47-9.58.17-15.07.17,2.3-7.92,4.33-15.73,6.86-23.39,6.36-19.28,2.98-16.23,22.29-16.42,13.32-.13,26.65-.03,39.97.02,6.09.02,9.17,2.47,10.86,8.16,2.69,9.07,5.45,18.11,8.46,28.1Z"/>
      <path class="cls-1" d="m1436.81,279.1c-.21,3.46-.36,6.09-.56,9.36-9.79.59-19.46,1.17-29.91,1.8,4.94-10.8,1.88-21.42,3.02-31.73.14-1.23,2.53-3.14,3.9-3.16,18.64-.21,37.28-.21,55.92.01,1.29.02,3.56,2.1,3.66,3.35.41,5.29.28,10.64.13,15.96-.1,3.74-2.69,4.45-5.88,4.43-9.96-.06-19.92-.02-30.28-.02Z"/>
      <path class="cls-1" d="m1013.2,353.93h-63.82v-31.49c8.73-.48,17.3-.94,26.31-1.44.22,1.45.56,2.69.59,3.93.13,7-1.09,6.73,7.27,6.74,7.99,0,15.98.1,23.97-.04,3.95-.07,5.86,1.38,5.72,5.54-.18,5.46-.04,10.92-.04,16.75Z"/>
      <path class="cls-1" d="m1215.74,299.48c3.05-5.14,6.11-10.27,9.13-15.42.67-1.14,1.24-2.34,1.73-3.56,2.29-5.72,4.51-11.46,6.79-17.19,3.88-9.78,2.39-7.9,12.11-8.07,3.5-.06,7.02.25,10.49-.08,4.1-.38,6.01,1.5,7.31,5.13,2.8,7.84,6.16,15.48,8.78,23.37,1.38,4.17,1.69,8.7,2.63,13.91-6.86.46-13.78,1.5-20.57.97-1.67-.13-3.33-5.25-4.28-8.3-.83-2.65-.66-5.62-.92-8.45l-1.26.1c-2.99,5.13-5.9,10.31-9.01,15.36-.69,1.12-1.99,2.52-3.12,2.62-6.1.56-12.23.75-18.35,1.07-.48-.49-.97-.98-1.45-1.47Z"/>
      <path class="cls-1" d="m1503.47,284.77c-9.24.51-18.47,1.03-27.65,1.54-2.99-17.09,8.6-31.08,25.26-31.08,9.66,0,19.32-.05,28.99.02,5.83.04,7.69,1.75,7.34,7.47-.31,4.95-1.1,9.91-2.09,14.78-.86,4.27-4.5,5.55-10.14,3.96-3.2-.9-6.32-2.15-9.57-2.72-2.39-.42-5.13-.55-7.33.24-2.09.76-3.69,2.89-5.51,4.41.23.46.47.92.7,1.39Z"/>
      <path class="cls-1" d="m1340.69,293.99c-15.49.87-30.07,1.68-46.31,2.59,1.62-4.69,3.09-8.31,4.09-12.05.8-3,1.16-6.14,1.49-9.24.54-5.12,1.05-10.25,1.26-15.39.14-3.36,1.42-4.79,4.86-4.71,6.5.15,13.01-.17,19.49.19,1.71.09,4.25,1.59,4.84,3.07,3.5,8.81,6.69,17.76,9.62,26.78.84,2.57.45,5.54.66,8.77Z"/>
      <path class="cls-1" d="m1349.32,292.23c1.45-2.45,2.9-4.91,4.36-7.36.9-1.52,2.07-2.95,2.68-4.58,2.54-6.87,5-13.77,7.3-20.72,1.04-3.15,2.78-4.52,6.2-4.4,6.32.22,12.67-.15,18.98.21,1.59.09,4.27,1.87,4.43,3.12,1.21,9.88,1.94,19.83,2.78,29.76.05.62-.24,1.28-.48,2.49-7.55.45-15.14.91-22.74,1.36-7.45.45-14.91.9-22.36,1.35-.38-.41-.77-.82-1.15-1.23Z"/>
      <path class="cls-1" d="m788.89,343.7v-11.92c8.97-.59,17.65-1.16,26.73-1.76v24.18c-5.68,0-11.42,0-17.16,0-11.31,0-22.62-.11-33.92.07-3.21.05-4.73-1.02-5.7-4.06-1.69-5.31-3.83-10.49-6.08-16.5,10-.56,19.22-1.16,28.46-1.45.92-.03,2.24,1.66,2.79,2.83,1.37,2.92,2.41,5.99,3.59,9.01.43-.13.87-.26,1.3-.39Z"/>
      <path class="cls-1" d="m1117.8,311.98c3.6.83,7.44.69,9.9,2.45,16.71,12.04,33.14,24.47,49.65,36.79.78.58,1.47,1.3,3.33,2.97h-7.29c-4.65,0-9.32-.22-13.96.05-8.51.49-16.39-.31-23.23-6.39-8.25-7.33-13.9-15.93-15.81-26.91-.44-2.51-1.4-4.93-2.59-8.97Z"/>
      <path class="cls-1" d="m879.56,326.43c15.84-.89,30.88-1.73,46.8-2.62-3.74,10.07-7.14,19.39-10.72,28.64-.31.8-1.74,1.64-2.66,1.66-6.99.14-13.99.14-20.99.01-.96-.02-2.49-.72-2.78-1.48-3.26-8.49-6.32-17.06-9.65-26.21Z"/>
      <path class="cls-1" d="m1064.03,315.87v37.96h-26.88v-36.28c8.82-.55,17.5-1.09,26.88-1.68Z"/>
      <path class="cls-1" d="m693.78,345.37c.43-10.22,7.37-8.75,13.29-9.07,6.1-.34,12.21-.64,19.01-.99-2.21,5.95-4.11,11.4-6.34,16.72-.42,1.01-2.19,2.06-3.34,2.07-16.8.13-33.59.09-51.23.09,0-4.69-.13-9.12.12-13.52.04-.77,1.66-2.01,2.62-2.08,7.93-.59,15.87-.96,24.11-1.41.19,2.51.36,4.61.52,6.72.41.49.82.98,1.23,1.48Z"/>
      <path class="cls-1" d="m543.92,341.63c11.21,1.24,22.42,2.36,33.61,3.74,7.23.89,10.58,6.11,8.72,13.16-1.4,5.29-2.74,10.61-4.49,15.79-.43,1.28-2.44,2.98-3.59,2.89-5.07-.43-10.1-1.45-15.56-2.32,1.33-4.07,2.28-7.75,3.75-11.22,1.33-3.15.85-4.92-2.2-6.83-7.1-4.46-13.91-9.4-20.84-14.14.2-.36.41-.71.61-1.07Z"/>
      <path class="cls-1" d="m864.53,354.18c-10.34,0-18.62.05-26.88-.08-.88-.01-2.28-.94-2.53-1.73-2.32-7.4-4.44-14.86-6.82-22.97,9.57-.54,18.44-1.09,27.32-1.46.82-.03,2.22.98,2.44,1.76,2.16,7.73,4.13,15.52,6.46,24.48Z"/>
      <path class="cls-1" d="m247.71,218.31c-.27-14.04,13.63-21.75,24.15-21.25,5.52.26,10.47,7.95,9.96,15.17-.77,10.85-8.8,19.37-19.63,20.83-7.67,1.03-14.93-6.36-14.47-14.75Zm25.49-7.7c.15-5.8-2.8-9.56-7.27-9.26-9.23.61-16.16,12.46-11.64,20.51,1.02,1.82,4.15,3.65,6.16,3.51,6.05-.42,12.59-8.52,12.75-14.76Z"/>
      <path class="cls-1" d="m246.72,307.81c-.04-6.79,3.89-13.18,9.35-15.19,4.97-1.83,11.4-.14,15.32,5.55,3.2,4.65,5.62,10.16,7.03,15.64,1.52,5.92-2.41,10.51-8.56,11.88-10.57,2.35-23.08-7.32-23.14-17.88Zm24.49,1.67c.09-6.89-5.4-13.27-11.52-13.36-4.79-.08-8.69,3.84-8.85,8.9-.18,5.77,6.1,12.5,11.87,12.71,5.16.19,8.43-2.98,8.5-8.24Z"/>
      <path class="cls-1" d="m161.38,245.75c-5.78-3.92-11.6-7.34-16.6-11.69-.98-.85.52-5.74,2.03-7.99,1.86-2.78,4.87-4.84,7.54-7.01.51-.41,2.04-.28,2.59.19,4.53,3.85,8.96,7.82,13.39,11.78,2.59,2.31,2.29,4.34-.37,6.54-2.75,2.28-5.2,4.92-8.59,8.18Z"/>
      <path class="cls-1" d="m1157.94,304.39c-1.58-9.25-.41-10.78,7.83-10.85,9.16-.08,18.32-.08,27.48,0,6.43.06,7.46,1.39,6.45,8.42-13.78.8-27.67,1.61-41.77,2.42Z"/>
      <path class="cls-1" d="m638.81,339.5v14.37h-26.61v-13.01c8.84-.45,17.55-.89,26.61-1.36Z"/>
      <path class="cls-1" d="m1085.46,275.62c-7.49-5.56-14.53-10.78-23.02-17.07,2.82-1.43,4.64-3.05,6.57-3.19,5.3-.38,10.65-.14,15.98-.13,6.65,0,8.77,2.71,6.4,8.95-1.45,3.82-3.76,7.32-5.94,11.44Z"/>
      <path class="cls-1" d="m187.97,214.72c-.61-1.6-1.22-3.2-1.83-4.8.25-.17.49-.34.74-.51,1.66,1.83,3.33,3.67,5.8,6.4-.36-3.88-.62-6.67-.88-9.45.27-.08.54-.16.81-.24,1.27,2.47,2.54,4.94,4.34,8.47,1.05-3.63,1.64-5.63,2.22-7.63l1.79.14c.12,2.14.76,4.4.28,6.39-1.61,6.62-8.73,11.79-15.4,11.34-.66-.05-1.22-1.81-1.79-2.8-.28-.49-.34-1.22-.74-1.51-2.36-1.76-4.78-3.42-8.09-5.76,2.76.32,4.54.52,6.66.76-1.33-2.45-2.54-4.67-3.75-6.9.25-.2.49-.41.74-.61,2.74,2.45,5.49,4.9,8.23,7.34.29-.21.58-.42.87-.62Z"/>
      <path class="cls-1" d="m415.17,438.92c.33,0,.65,0,.97-.01,6.19-2.35,9.04-1.78,9.95,1.96,1.06,4.37-2.17,8.87-7.13,9.74-2.86.5-5.76.78-8.22,1.11-3.03-6.36,1.54-9.24,4.43-12.8Z"/>
      <path class="cls-1" d="m464.99,163.89c2.81-5.18,5.62-10.37,8.8-16.21,2.99,3.63,5.58,6.77,8.66,10.5-5.87,2.37-11.17,4.5-16.47,6.64-.33-.31-.66-.62-.98-.93Z"/>
      <path class="cls-1" d="m291.35,239.69c1.6-1.55,3.2-3.11,4.89-4.75,5.79,2.12,12.63,3.83,18.69,7.02,12.26,6.46,16.71,17.91,16.04,30.97-.37,7.32-2.73,14.62-4.93,21.7-.61,1.96-3.65,3.58-5.92,4.48-2.4.95-5.21.84-8.46,1.27,11.08,9.54,24.08,7.41,37.86,7.28-21.87,11.38-43.33,9.8-56.3-10.93-14.57-23.3-16.97-47.33-1.8-71.39,12.4-19.69,35.18-24.59,55.81-14.12,35.36,17.94,32.85,60.85,18.25,82.48-6.59,9.77-15.1,11.38-26.29,10.04,22.76-16.49,29.37-37.37,18.56-63.81-9.78,4.27-14.47,13.17-21.44,21.32,1.03-9.38,2.03-17.54,2.78-25.73.37-3.97.51-8,.27-11.97-.09-1.45-1.28-3.45-2.54-4.11-19.78-10.27-42.37,4.17-46.63,19.19.39.35.78.7,1.17,1.05Zm7.41,46.46l.44,1.16c2.51-.68,5.13-1.11,7.52-2.09,9.73-4,15.7-13.72,12.64-21.57-3.93-10.08-13.07-18.05-25.68-15.89-7.04,1.21-8.36,2.54-9.14,9.79,5.08-5.09,13.09-6.38,20.25-3.25,6.6,2.88,10.58,8.77,10.14,15.71-.63,9.86-6.9,14.51-16.16,16.16Z"/>
    </g>
  </g>
</svg>