<?xml version="1.0" encoding="UTF-8"?>
<svg id="_Слой_2" data-name="Слой 2" xmlns="http://www.w3.org/2000/svg" viewBox="0 0 274.57 274.53">
  <defs>
    <style>
      .cls-1 {
        fill: #fff;
      }
    </style>
  </defs>
  <g id="_Слой_1-2" data-name="Слой 1">
    <g>
      <path class="cls-1" d="m137.43,274.53C61.65,274.58.07,213.18,0,137.5-.07,61.56,61.42-.02,137.33,0c75.73.02,137.22,61.5,137.24,137.22.02,75.74-61.44,137.27-137.14,137.31Zm34.75-166.7c-.12-36.23-29.25-65.85-66.08-65.79-36.31.06-65.66,29.62-65.62,66.04.04,36.3,29.74,65.91,65.96,65.75,36.36-.16,65.81-29.72,65.75-66Zm57.26,65.53v-4.83c0-24.36,0-48.72,0-73.08,0-5.47-1.72-7.23-7.12-7.26-8-.05-15.99-.03-23.99-.01-6.67.01-7.93,1.25-7.93,7.85,0,24.24,0,48.47,0,72.71,0,1.45,0,2.9,0,4.62-5.52,0-10.51-.11-15.49.07-1.31.05-3.51.8-3.67,1.58-.26,1.22.5,3.09,1.45,4.07,11.23,11.39,22.63,22.6,33.85,34,2.57,2.62,4.34,2.4,6.78-.09,11.14-11.3,22.44-22.44,33.58-33.73,1-1.01,1.31-2.7,1.94-4.08-1.51-.61-3-1.66-4.54-1.73-4.73-.23-9.48-.08-14.85-.08Zm-148.24,6.66v14c-6.7,0-13.05-.17-19.38.1-1.84.08-3.63,1.4-5.45,2.15.78,1.7,1.15,3.79,2.39,5.03,14.41,14.58,28.94,29.03,43.45,43.51,3.69,3.69,4.52,3.69,8.24-.02,14.51-14.48,29.01-28.97,43.51-43.45.53-.53,1.12-1.02,1.56-1.62,1.97-2.64.86-5.3-2.45-5.61-2.23-.21-4.49-.09-6.74-.09-4.94,0-9.88,0-15.1,0v-13.92c-16.64,5.4-32.97,5.42-50-.08Z"/>
      <path d="m172.18,107.83c.06,36.28-29.39,65.84-65.75,66-36.21.16-65.92-29.46-65.96-65.75-.04-36.42,29.31-65.98,65.62-66.04,36.83-.06,65.97,29.56,66.08,65.79Zm-73.85,7.76c6.36,0,12.41.58,18.3-.14,8.98-1.09,15.23-9.49,14.85-18.74-.37-8.96-7.4-16.7-16.22-17.22-6.73-.4-13.49-.15-20.24-.16-2.65,0-3.81,1.52-3.87,4.03-.03,1.25,0,2.5,0,3.75,0,7.2,0,14.4,0,21.53-3.07.68-7.07-.6-7.24,3.61-.19,4.82,4.37,3.18,6.95,4.03v7.37c-2.92.48-6.84-.7-6.97,3.55-.15,4.86,4.56,2.87,7.25,4.08,0,2.16,0,4.27,0,6.38.01,2.25.77,4.07,3.3,4.16,2.71.09,3.65-1.73,3.69-4.17.03-2.19,0-4.39,0-6.88,4.54,0,8.52,0,12.5,0,2.63,0,5.87.37,5.92-3.37.05-3.68-3.06-3.58-5.78-3.57-4.09.03-8.18,0-12.45,0v-8.27Z"/>
      <path d="m229.43,173.36c5.38,0,10.12-.15,14.85.08,1.54.07,3.03,1.13,4.54,1.73-.63,1.38-.94,3.07-1.94,4.08-11.15,11.29-22.44,22.43-33.58,33.73-2.45,2.48-4.21,2.7-6.78.09-11.21-11.4-22.62-22.61-33.85-34-.96-.97-1.71-2.84-1.45-4.07.16-.77,2.36-1.53,3.67-1.58,4.98-.18,9.97-.07,15.49-.07,0-1.72,0-3.17,0-4.62,0-24.24,0-48.47,0-72.71,0-6.6,1.26-7.84,7.93-7.85,8-.02,15.99-.04,23.99.01,5.4.03,7.12,1.79,7.12,7.26.02,24.36,0,48.72,0,73.08v4.83Z"/>
      <path d="m81.19,180.03c17.03,5.5,33.36,5.47,50,.08v13.92c5.22,0,10.16,0,15.1,0,2.25,0,4.51-.12,6.74.09,3.31.32,4.42,2.97,2.45,5.61-.44.6-1.03,1.09-1.56,1.62-14.5,14.49-29,28.97-43.51,43.45-3.71,3.7-4.54,3.7-8.24.02-14.51-14.48-29.04-28.93-43.45-43.51-1.23-1.25-1.61-3.34-2.39-5.03,1.82-.75,3.61-2.07,5.45-2.15,6.33-.27,12.68-.1,19.38-.1v-14Z"/>
      <path class="cls-1" d="m98.33,115.59v8.27c4.27,0,8.36.02,12.45,0,2.72-.02,5.83-.11,5.78,3.57-.05,3.74-3.28,3.37-5.92,3.37-3.98,0-7.96,0-12.5,0,0,2.49.02,4.68,0,6.88-.03,2.43-.97,4.26-3.69,4.17-2.53-.09-3.29-1.91-3.3-4.16-.01-2.11,0-4.22,0-6.38-2.69-1.2-7.4.78-7.25-4.08.13-4.25,4.05-3.07,6.97-3.55v-7.37c-2.58-.85-7.14.79-6.95-4.03.17-4.21,4.16-2.93,7.24-3.61,0-7.13,0-14.33,0-21.53,0-1.25-.02-2.5,0-3.75.05-2.52,1.22-4.04,3.87-4.03,6.75,0,13.51-.24,20.24.16,8.82.52,15.85,8.26,16.22,17.22.38,9.25-5.87,17.65-14.85,18.74-5.89.72-11.94.14-18.3.14Zm.02-6.8c5.77,0,11.38.35,16.91-.1,5.33-.43,9.29-5.53,9.34-10.96.05-5.59-3.93-10.78-9.46-11.25-5.53-.47-11.12-.1-16.79-.1v22.42Z"/>
      <path d="m98.34,108.78v-22.42c5.66,0,11.26-.37,16.79.1,5.53.47,9.51,5.67,9.46,11.25-.05,5.44-4.01,10.53-9.34,10.96-5.54.45-11.14.1-16.91.1Z"/>
    </g>
  </g>
</svg>