<?xml version="1.0" encoding="UTF-8"?>
<svg id="_Слой_2" data-name="Слой 2" xmlns="http://www.w3.org/2000/svg" viewBox="0 0 388.15 388.19">
  <g id="_Слой_1-2" data-name="Слой 1">
    <g>
      <path d="m194.33,50.13c58.85,0,117.7,0,176.54,0,11.06,0,17.25,6.2,17.25,17.28,0,85.51.08,171.01-.06,256.52-.03,17.3-7.41,31.54-19.37,43.94-10.37,10.75-22.98,16.63-37.14,19.92-1.76.41-3.64.36-5.47.36-87.69.02-175.38.14-263.06-.09-16.39-.04-29.81-7.96-41.88-18.61-7.59-6.7-12.61-15.11-16.29-24.15-2.58-6.34-4.6-13.45-4.63-20.22C-.09,238.56,0,152.05.03,65.54c0-8.48,7.36-15.41,16.26-15.41,59.35-.01,118.7,0,178.04,0Zm-6.62,162.8v-74.39h-74.39v74.39h74.39Zm12.72-74.56v74.39h74.42v-74.39h-74.42Zm-12.53,87.18h-74.57v74.3h74.57v-74.3Zm12.41,74.26h74.4v-74.38h-74.4v74.38Z"/>
      <path d="m112.91,42.65h-25.51c0-3.29.04-8.09.12-13.92.16-11.04.38-15.58,3.36-20.25.56-.88,1.48-2.3,3.09-3.75C99.83-.54,108-.02,110.33.04c22.98.65,106.43-.02,168.01.01,8.93,0,21.19,10.52,21.81,19.54.51,7.44.1,14.94.1,22.85h-25.17c0-4.76-.09-9.23.03-13.69.07-2.6-.99-3.71-3.53-3.51-.33.03-.67,0-1,0-51,0-102.01.03-153.01-.08-3.9,0-4.91,1.47-4.72,5,.22,3.97.05,7.97.05,12.49Z"/>
    </g>
  </g>
</svg>