<?xml version="1.0" encoding="UTF-8"?>
<svg id="_Слой_2" data-name="Слой 2" xmlns="http://www.w3.org/2000/svg" viewBox="0 0 282.18 396.3">
  <defs>
    <style>
      .cls-1 {
        fill: #fff;
      }
    </style>
  </defs>
  <g id="_Слой_1-2" data-name="Слой 1">
    <g>
      <path class="cls-1" d="m159.45,316.38c-4.57-.36-8.86-.47-13.05-1.19-1.13-.2-2.43-2.15-2.78-3.52-.98-3.85-1.5-7.82-2.98-11.98-.79,3.71-2.03,7.4-2.25,11.15-.22,3.7-1.75,4.97-5.18,4.98-2.79,0-5.57.32-8.82.53.85-6.84,2.17-13.19,2.36-19.57,1.29-44.3,2.65-88.59,3.35-132.9.39-24.65-.42-49.32-.69-73.98-.02-1.83.5-3.91-.18-5.46-3.03-6.86-1.03-12.56,3.42-17.91.38-.46.36-1.24-.17-2.93-2.95,1.82-5.92,3.62-8.84,5.48-8.38,5.32-13.57,11.66-13.57,22.89.02,43.15-1.55,86.3-1.42,129.45.08,27.97,2.05,55.93,3.26,83.89.15,3.45.86,6.87,1.41,11.09-4.47-.4-8.59-.51-12.58-1.27-1.13-.22-2.41-2.18-2.75-3.55-.91-3.68-1.35-7.48-2.97-11.5-.8,3.66-1.91,7.29-2.31,11-.32,3.01-1.18,4.51-4.45,4.51-3.26,0-6.52.53-9.97.85,1.19-9.73,2.63-18.74,3.33-27.81,3.82-49.4,3.55-98.9,3.08-148.4-.12-12.49-.49-25-1.34-37.46-.53-7.72-2.18-15.37-3.46-23.97,2.32-1.25,5.62-3.02,9.17-4.92-2.93-1.9-5.7-3.69-9.28-6.01,1.68-.68,2.23-1.08,2.77-1.09,17.35-.19,30.88-8.49,42.48-20.44,1.92-1.98,2.98-5.52,3.07-8.38.18-5.63-.8-11.3-.89-16.95-.07-3.74-1.56-5.03-5.16-4.68-2.45.23-4.93.04-8.08.04,2.37,15.17.93,28.14-17.42,30.45-9.13,1.15-17.29-4.01-19.47-11.54,1.04.06,1.99.07,2.92.19,7.6,1,11.18-2.15,10.49-9.77-.77-8.5-4.92-15.45-10.85-21.39-1.04-1.04-2.34-1.82-3.52-2.72.19-.53.39-1.05.58-1.58,6.31.32,12.64.51,18.92,1.12.89.09,1.95,2.14,2.3,3.46,1.01,3.76,1.7,7.62,3.42,11.56.58-3.68,1.39-7.34,1.68-11.05.23-2.9,1.24-4.1,4.28-4.05,9.16.16,18.33.16,27.5.05,3-.04,4.08,1.16,4.36,4.04.33,3.53,1.15,7.01,2.76,10.48.67-3.36,1.47-6.7,1.99-10.08.56-3.62,2.49-5.09,6.13-4.98,2.93.09,5.88-.28,8.27-.41-1.12,18.25-2.22,36.03-3.37,54.69,8.48-2.46,13.97-6.63,18.42-12.11.97-1.19.95-3.47.83-5.21-.84-12.26-1.83-24.5-2.83-37.46,3.69.21,7.5.19,11.2.8,1.06.18,2.33,2.07,2.62,3.37.78,3.52,1.07,7.15,1.56,10.74.42.03.84.06,1.26.1.7-2.94,1.67-5.85,2.05-8.83.55-4.32,2.74-6.1,7.02-5.76,2.44.19,4.91.03,6.75.03-6.22,105.11-4.84,210.06.57,315.73-3.26-.26-7.52-.41-11.7-1.09-.98-.16-2.1-1.98-2.43-3.22-.97-3.63-1.57-7.36-3.43-11.2-.69,3.44-1.8,6.86-1.95,10.32-.15,3.73-1.71,4.98-5.18,4.93-2.96-.04-5.92.25-9.47.42.63-4.35,1.55-8.21,1.7-12.1,1.42-36.95,3.28-73.9,3.88-110.87.59-36.65-.12-73.32-.26-109.99,0-.83.27-1.82-.08-2.48-3.58-6.7-.73-12.1,3.3-17.32.36-.47.39-1.2,1.06-3.43-4.6,2.61-8,4.7-11.54,6.52-10.13,5.22-14.07,12.71-13.83,24.76,1.15,58.31,1.04,116.64,1.84,174.96.22,15.8,2.07,31.57,3.16,47.35.04.62,0,1.25,0,2.58Zm-12.96-109.23l1.81-.08c-.36-6.4-.72-12.8-1.08-19.21-.56.03-1.12.05-1.68.08l.96,19.21Zm-48.68-24.42c-.72-.58-1.44-1.15-2.15-1.73-1.12,1.23-2.24,2.45-3.36,3.68.91.73,1.82,1.47,2.73,2.2.93-1.38,1.86-2.76,2.79-4.15Z"/>
      <path class="cls-1" d="m38.71,395.05c.84-3.81,2.09-6.86,2.04-9.88-.09-5.23-.99-10.45-1.55-15.67-.43-.09-.86-.18-1.29-.28-3.9,8.94-7.8,17.88-11.7,26.82-.67.09-1.34.18-2.01.26-4.39-9.23-8.77-18.46-13.16-27.7-.41.08-.82.17-1.23.25-.58,6.53-1.47,13.06-1.55,19.6-.02,1.99,2.19,4.01,3.7,6.56H0c8.04-10.4,4.85-22.69,6.54-33.99.24-1.59-2.18-3.58-3.36-5.37,6.52-2.46,8.53-1.66,11.27,4.48,3.87,8.65,7.77,17.29,12.01,26.71.91-1.62,1.61-2.62,2.05-3.73,2.9-7.27,5.74-14.56,8.59-21.85,2.92-7.45,3.54-7.77,12.79-5.74-7.14,3.57-4.53,9.28-4.16,14.44.34,4.82.56,9.68,1.45,14.41.66,3.51,2.29,6.85,3.64,10.68h-12.11Z"/>
      <path class="cls-1" d="m216.98,395.08h-12.58c7.4-6.08,4.7-13.25,3.99-19.9-.14-1.29-2.89-3.34-4.26-3.2-1.98.19-4.44,1.62-5.57,3.29-3.24,4.76-1.67,15.16,3.12,19.71h-15.4c6.56-3.74,4.9-9.3,5-14.33.1-5.16.05-10.33,0-15.49-.04-3.74,1.15-8.05-5.29-9.07.34-.38.67-.77,1.01-1.15,2.9-.82,5.8-1.63,10.01-2.82v18.93c1.99-.97,3.37-1.71,4.8-2.33,6.71-2.87,12.56.72,13,8,.14,2.32-.17,4.69.12,6.99.48,3.7,1.3,7.36,2.04,11.37Z"/>
      <path class="cls-1" d="m224.56,354.54c1.24-.36,3.71-1.41,6.24-1.59.74-.05,2.34,2.36,2.38,3.68.24,7.12.11,14.25.11,21.55,5.95-2.17,7.77-4.93,6.59-9.87h11.51c-4.87,3.89-9.02,7.21-14.32,11.45,5.13,5.66,9.63,10.63,13.89,15.33-3.02,2-5.72,1.6-8.89-2.35-2.46-3.07-5.02-6.06-7.53-9.09-.58.24-1.17.48-1.75.72.97,3.43,1.94,6.87,3.02,10.67h-12.23c5.23-2.94,3.82-7.78,3.87-12.08.07-6.32.28-12.66-.1-18.96-.17-2.86-1.62-5.65-2.8-9.46Z"/>
      <path class="cls-1" d="m82.4,381.98c-.17,8.38-6.22,14.27-14.35,13.97-7.99-.29-13.49-6.32-13.25-14.53.24-8.23,6.46-14.25,14.48-14,8.01.25,13.28,6.1,13.11,14.55Zm-6.27.76l.7-.36c-1.3-3.11-2.07-6.63-4.04-9.24-3-3.98-8.57-3-10.43,1.58-1.97,4.85-1.86,9.96,1,14.31,1.2,1.82,4.39,3.51,6.44,3.27,2.03-.24,4.06-2.78,5.5-4.74.86-1.18.59-3.18.83-4.82Z"/>
      <path class="cls-1" d="m281.72,394.09l-9.22.79c0-.19,0-.38,0-.58-3.17.5-6.42,1.64-9.48,1.26-2.01-.25-4.86-2.42-5.33-4.25-.53-2.09.43-5.6,2.04-6.96,2.53-2.14,6.22-2.85,9.26-4.45,1.34-.71,3.42-2.34,3.25-3.16-.42-2.01-1.55-4.54-3.17-5.41-1.12-.6-3.77.9-5.29,2.05-1.11.84-1.5,2.64-2.35,4.28-3.71-4.7-3.08-7.41,1.48-9.03,9.77-3.46,14.96.16,15.49,10.52.23,4.55-1.98,9.85,3.79,13.04-.15.63-.3,1.26-.46,1.88Zm-9.82-11.24c-5.41-.23-8.86,1.71-8.28,5.16.24,1.47,2.49,3.61,3.9,3.67,3.38.15,5.15-3.87,4.38-8.83Z"/>
      <path class="cls-1" d="m140.01,381.89c-.71,9.16,2.94,10.82,16.5,8.72-1.69,1.41-3.17,3.27-5.1,4.15-7.04,3.21-14.75.17-17.49-6.61-3.22-7.98.13-17.18,7.24-19.89,7.19-2.74,13.86,1.14,15.35,8.82.61,3.15-.27,4.85-3.69,4.83-4.29-.04-8.58,0-12.81,0Zm10.34-3.58c-.76-4.17-1.41-7.67-5.89-7.36-4.16.29-5.31,3.26-4.82,7.36h10.71Z"/>
      <path class="cls-1" d="m179.73,377.27c-1.33-1.68-1.95-2.76-2.84-3.54-1.45-1.27-2.95-2.94-4.66-3.29-1.33-.27-3.02,1.22-4.56,1.92.65,1.36.93,3.29,2.01,3.97,2.5,1.58,5.4,2.52,8.1,3.8,3.23,1.54,5.49,3.83,5.17,7.72-.34,3.99-2.76,6.7-6.48,7.21-3.84.53-7.85.15-11.73-.28-1.05-.12-2.63-1.82-2.7-2.88-.12-1.95.69-3.96,1.12-5.95,1.12,1.2,2.05,2.66,3.39,3.52,1.97,1.27,4.15,2.63,6.38,2.94,1.27.18,3.68-1.41,4-2.61.29-1.11-1.21-3.29-2.49-4.1-2.64-1.67-5.82-2.49-8.49-4.12-5.56-3.39-5.38-9.82.49-12.52,2.57-1.18,5.8-1.59,8.64-1.35,5.95.51,6.74,2.13,4.65,9.55Z"/>
      <path class="cls-1" d="m86.5,394.93c6.41-7.63,6.4-19.85.53-24.51,5.38-3.71,8.46-3.54,10.6.61,1.54-.93,2.99-2.35,4.65-2.67,1.77-.35,4.69-.32,5.41.72,1.02,1.48.49,4.03.62,6.12-1.25-.04-3.07.43-3.66-.22-2.91-3.18-5.08-3.18-6.51,1.03-1.08,3.19-1.59,6.95-1.02,10.23.51,2.93,2.84,5.53,4.59,8.68h-15.2Z"/>
      <path class="cls-1" d="m112.77,369.44c.8-2.25,1.5-5.09,2.81-7.62.85-1.62,2.6-2.77,4.34-4.53,1.43,5.24,4.98,9.91,8.86,12.08-.84.62-1.56,1.62-2.22,1.58-5.33-.35-5.94,2.78-5.56,6.98.21,2.31.02,4.65.04,6.98.04,7.18.44,7.58,7.39,7.63-1.36,2.71-4.24,4.44-7.32,3.13-2.21-.94-4.8-3.32-5.28-5.48-.88-3.97-.03-8.3-.49-12.41-.31-2.77-1.63-5.43-2.57-8.34Z"/>
    </g>
  </g>
</svg>