<?xml version="1.0" encoding="UTF-8"?>
<svg id="_Слой_2" data-name="Слой 2" xmlns="http://www.w3.org/2000/svg" viewBox="0 0 479.52 112.54">
  <defs>
    <style>
      .cls-1 {
        fill: #fff;
      }
    </style>
  </defs>
  <g id="_Слой_1-2" data-name="Слой 1">
    <g>
      <path class="cls-1" d="m111.7,112.54H0V0h111.7v112.54Zm-4.2-4.14V4.12H3.97v104.28h103.53Z"/>
      <path class="cls-1" d="m185.17,81.24h-7.3v-30.14c-.41-.16-.81-.31-1.22-.47-4.19,6.38-8.38,12.75-13,19.79-4.42-6.77-8.54-13.09-12.66-19.4-.33.04-.66.08-.98.11v30.05h-7.53v-45.05c5.56-1.67,9.14.06,11.74,5.26,2.59,5.17,6.02,9.93,9.52,15.58,3.42-5.46,6.97-10.22,9.53-15.46,2.57-5.25,6.16-6.89,11.9-5.38v45.11Z"/>
      <path class="cls-1" d="m282.15,80.82c-4.47,1.66-7.1.08-9.55-3.36-6.46-9.06-13.23-17.89-20.76-27.99v31.63h-7.68v-44.92c4.48-1.38,7.62-.36,10.46,3.76,6,8.7,12.55,17.02,19.75,26.65v-30.51h7.78v44.73Z"/>
      <path class="cls-1" d="m226.01,54.09c-3.2,1.15-5.31,1.91-8.82,3.18,5.62-7.67,10.48-14.29,15.67-21.37,0,11.3.79,21.91-.24,32.33-.91,9.17-8.61,14.19-18.39,14-9.88-.19-16.41-5.37-17.85-14.76-.7-4.57-.59-9.29-.62-13.95-.07-12.64-.03-25.28-.03-38.32h8c0,5.08,0,10.03,0,14.98,0,10.33-.22,20.67.13,30.98.11,3.32.97,7.14,2.84,9.77,4.56,6.38,15.54,4.53,17.78-2.97,1.23-4.13,1.01-8.69,1.52-13.87Z"/>
      <path class="cls-1" d="m293.71,81.39v-45.15c7.22,0,14.59-.92,21.63.21,11.44,1.84,18.66,11.79,18.03,22.92-.68,12.18-8.96,21-21.12,21.94-5.94.46-11.94.08-18.55.08Zm7.88-7.57c8.44.28,16.64,1.29,21.3-7.15,3.31-6,3.08-12.29-1.11-17.84-5.16-6.84-12.64-5.98-20.19-5.61v30.6Z"/>
      <path class="cls-1" d="m472.23,62.66h-20.62v18.42h-7.78v-44.98h7.46v18.16h20.69v-18.18h7.55v44.98h-7.3v-18.39Z"/>
      <path class="cls-1" d="m400.36,74.66c1.66-2.05,3-3.71,4.34-5.37,3.13,1.64,5.89,3.54,8.95,4.54,2.43.8,5.42,1.19,7.78.48,2-.59,4.59-2.86,4.83-4.67.22-1.69-1.88-4.49-3.69-5.48-3-1.64-6.6-2.17-9.91-3.25-8.29-2.72-11.33-7.07-10.31-14.65.87-6.44,6.27-10.89,13.88-11.22,6.19-.27,11.8,1.36,16.92,5.8-1.32,1.99-2.55,3.87-3.54,5.35-4.25-1.35-8.06-2.96-12.03-3.71-3.33-.62-6.54.69-7.38,4.41-.86,3.78,2.08,5.3,5.01,6.33,3.45,1.21,7.05,2,10.47,3.28,6.67,2.5,9.5,6.92,8.84,13.35-.64,6.25-5.04,10.85-11.69,11.82-8.35,1.21-15.78-.87-22.48-7.02Z"/>
      <path class="cls-1" d="m375.17,36.01v6.82h-24.31v12.62h21.27v7.27h-21.54v18.42h-7.77v-45.12h32.36Z"/>
      <path class="cls-1" d="m384.11,80.96v-44.95h7.29v44.95h-7.29Z"/>
      <path class="cls-1" d="m66.34,62.82c-2.87,1.13-4.95,1.95-8.43,3.33,5.53-7.28,10.15-13.37,15.49-20.39,0,10.26.61,19.37-.16,28.36-.85,10-8.38,15.23-19.13,14.61-9.98-.58-16.03-6.76-16.25-17.26-.24-11.66-.06-23.32-.06-34.98,0-2.97,0-5.94,0-9.27h7.22c.08,1.68.22,3.44.23,5.2.02,12.33-.1,24.66.07,36.98.11,7.88,3.45,11.93,9.54,12.32,5.98.39,10.03-2.6,10.96-8.51.5-3.2.36-6.49.53-10.4Z"/>
    </g>
  </g>
</svg>