<?xml version="1.0" encoding="UTF-8"?>
<svg id="_Слой_2" data-name="Слой 2" xmlns="http://www.w3.org/2000/svg" viewBox="0 0 646 627.44">
  <defs>
    <style>
      .cls-1 {
        fill: #fff;
      }
    </style>
  </defs>
  <g id="_Слой_1-2" data-name="Слой 1">
    <g>
      <path class="cls-1" d="m309.69,539.52c-8.48-1.05-17.01-1.77-25.42-3.21-28.03-4.8-53.65-14.97-74.56-34.96-20.13-19.24-30.86-43.21-34.76-70.49-3.41-23.83-.86-47.39,3.54-70.81,2.05-10.94,4.86-21.75,7.26-32.62.71-3.24,2.33-5.53,5.79-5.89,3.32-.35,5.05,1.77,6.74,4.31,3.06,4.62,6,9.46,9.83,13.4,5.1,5.25,11.57,7.06,18.37,4.59-1.9-7.76-4.31-15.19-5.47-22.8-2.84-18.61,1.07-36.38,8.18-53.54,6.29-15.21,14.8-29.1,25.27-41.79,3.9-4.73,6.08-4.86,11.29-1.84,4.23,2.46,8.61,4.84,13.22,6.41,6.2,2.11,10.8.33,12.85-5.85,2.34-7.04,4-14.52,4.49-21.91,1.2-17.81-.94-35.47-4.04-53.04-.39-2.19.4-5.41,1.9-6.88,1.32-1.3,4.77-1.75,6.62-.98,34.4,14.23,65.23,33.69,88.76,63.13,27.54,34.46,38.82,73.9,34.89,117.77-.05.61,0,1.23,0,2.4,9.44-4.43,15.39-11.08,16.73-21.17.51-3.81,1.69-6.62,5.73-7.12,4.15-.51,5.91,2.31,7.2,5.73,8.26,21.83,13.25,44.44,15.98,67.56,2.02,17.15,3.18,34.36,1.82,51.65-4.27,54.31-35.55,93.39-87.6,109.4-14.33,4.41-28.98,6.93-43.92,7.89-1.4.09-2.79.43-4.19.65h-26.48Zm137.94-218.02c-7.62,10.41-17.32,15.69-28.7,18.22-5.83,1.3-9.46-2.13-8.5-7.88,6.6-39.37-.88-75.87-22.98-109.11-18.77-28.25-45.19-47.52-75.17-62.38-1.8-.89-3.66-1.67-6-2.73.21,2.28.43,3.93.51,5.59.71,13.71,1.85,27.42,1.93,41.13.06,9.47-1.8,18.86-6.57,27.33-5.28,9.39-13.72,13.53-24.18,11.11-5.58-1.29-10.86-3.82-16.53-5.89-8.82,11.2-16.22,23.65-21.56,37.24-9.11,23.16-11.11,46.25,1.15,69.12,1.96,3.66.83,6.49-2.86,8.9-11.46,7.46-25.88,6.71-36.64-1.99-2.37-1.92-4.52-4.12-7.03-6.44-.74,3.35-1.47,6.37-2.07,9.41-4.41,22.57-7.9,45.21-6,68.35,3.98,48.6,33.32,84.4,80.28,97.88,32.58,9.36,65.5,10.01,98.57,3.51,22.09-4.34,42.37-13,59.37-28.17,23.94-21.37,34-49.01,35.19-80.31.87-23.04-1.72-45.85-6.32-68.42-1.62-7.93-3.78-15.76-5.91-24.49Z"/>
      <path class="cls-1" d="m274.3,470.97c-5.81-.09-8.81-4.89-6.7-8.89.7-1.34,1.85-2.48,2.94-3.57,31.98-32.01,63.97-64,95.97-95.99.91-.91,1.81-1.9,2.88-2.59,2.77-1.77,5.5-1.45,7.78.85,2.15,2.18,2.46,4.83.85,7.48-.66,1.09-1.63,2.01-2.54,2.92-32.08,32.09-64.15,64.19-96.29,96.23-1.65,1.65-3.82,2.79-4.89,3.56Z"/>
      <path class="cls-1" d="m291.59,408.67c-13.71-.08-24.84-11.43-24.72-25.19.12-13.71,11.49-24.79,25.28-24.62,13.54.16,24.57,11.39,24.53,24.99-.03,13.72-11.34,24.91-25.09,24.83Zm12.63-24.92c0-6.76-5.6-12.39-12.36-12.43-6.75-.05-12.45,5.53-12.53,12.27-.09,6.92,5.65,12.69,12.56,12.63,6.75-.06,12.34-5.7,12.34-12.46Z"/>
      <path class="cls-1" d="m354.13,470.97c-13.74.02-24.98-11.22-24.96-24.95.02-13.74,11.28-24.92,25.04-24.86,13.57.06,24.7,11.18,24.77,24.75.07,13.75-11.13,25.04-24.85,25.07Zm-.09-37.36c-6.77.01-12.38,5.6-12.42,12.38-.04,6.77,5.52,12.44,12.28,12.52,6.91.09,12.68-5.66,12.62-12.58-.06-6.76-5.71-12.34-12.48-12.32Z"/>
    </g>
    <path class="cls-1" d="m642.09,262.1c27.54,170.62-93.42,332.87-269.2,361.1C196.84,651.47,31.02,535.48,3.83,365.05-23.37,194.48,97.13,32.85,272.76,4.33c175.86-28.56,341.81,87.27,369.33,257.77ZM64.72,362.95c2.36,8.33,5.71,23.87,11.14,38.66,19.45,52.96,53.23,95.48,102.03,125.65,76.3,47.16,157.49,54,242.36,22.12,32.32-12.14,60.56-30.79,85.45-54.26,7.17-6.76,6.93-12.5-.88-18.33-1.06-.79-2.16-1.51-3.25-2.27-130.87-91.3-261.74-182.59-392.6-273.89-1.26-.88-2.5-1.81-3.8-2.63-7.64-4.82-13.46-3.35-17.47,4.63-24.5,48.78-32.25,99.9-23,160.31ZM271.23,63.83c-10.36,3.33-30.86,8.84-50.51,16.46-30.45,11.81-57,29.91-80.56,52.14-7.18,6.77-6.86,12.44,1.06,18.29.88.65,1.8,1.26,2.71,1.89,131.24,91.56,262.48,183.11,393.71,274.66,1.08.76,2.14,1.55,3.26,2.25,7.6,4.76,13.45,3.22,17.4-4.82,28.63-58.26,35.53-118.72,17.69-180.47-19.76-68.39-61.5-120.8-126.22-154.83-52.64-27.69-108.9-35.96-178.54-25.57Z"/>
  </g>
</svg>