<?xml version="1.0" encoding="UTF-8"?>
<svg id="_Слой_2" data-name="Слой 2" xmlns="http://www.w3.org/2000/svg" viewBox="0 0 384 384">
  <defs>
    <style>
      .cls-1 {
        fill: #fff;
      }
    </style>
  </defs>
  <g id="_Слой_1-2" data-name="Слой 1">
    <g>
      <path d="m180,0c8,0,16,0,24,0,6.54.85,13.11,1.49,19.61,2.6,35.92,6.15,67.73,21.13,95.01,45.31,33.57,29.76,54.55,66.76,62.44,111.01,1.24,6.98,1.98,14.05,2.95,21.08v24c-.21.96-.55,1.92-.62,2.89-2.25,29.49-10.68,57.12-26.03,82.37-30.46,50.11-74.54,80.92-132.29,91.8-6.96,1.31-14.03,1.98-21.06,2.94h-24c-4.68-.58-9.38-1.08-14.05-1.75-38.48-5.51-72.43-20.98-101.4-46.9-33.02-29.55-53.66-66.22-61.56-109.89-1.28-7.1-2.01-14.3-2.99-21.45v-24c.58-4.69,1.07-9.39,1.74-14.07,6.05-41.85,23.69-78.06,53.32-108.23C83.8,28.42,118.47,10.08,158.93,2.95c6.98-1.23,14.04-1.98,21.07-2.95Zm-11.81,192.39c-17.31,17.3-34.68,34.65-51.67,51.62,7.91,7.92,15.64,15.66,23.85,23.88,17.09-17.1,34.45-34.47,52.4-52.44,17.38,17.38,34.74,34.75,51.42,51.44,7.63-7.62,15.37-15.35,23.47-23.44-16.94-16.94-34.24-34.23-51.87-51.85,17.31-17.3,34.68-34.65,51.67-51.62-7.91-7.92-15.64-15.66-23.85-23.88-17.09,17.1-34.45,34.47-52.4,52.44-17.38-17.38-34.74-34.75-51.42-51.44-7.63,7.62-15.37,15.35-23.47,23.45,16.94,16.94,34.24,34.23,51.87,51.85Z"/>
      <path class="cls-1" d="m168.19,192.39c-17.63-17.62-34.93-34.91-51.87-51.85,8.11-8.1,15.84-15.82,23.47-23.45,16.69,16.69,34.05,34.06,51.42,51.44,17.95-17.97,35.31-35.34,52.4-52.44,8.21,8.22,15.94,15.96,23.85,23.88-16.98,16.97-34.35,34.33-51.67,51.62,17.62,17.62,34.92,34.91,51.87,51.85-8.11,8.1-15.84,15.82-23.47,23.44-16.69-16.69-34.05-34.06-51.42-51.44-17.96,17.97-35.31,35.34-52.4,52.44-8.22-8.22-15.94-15.96-23.85-23.88,16.98-16.97,34.35-34.33,51.67-51.62Z"/>
    </g>
  </g>
</svg>