<?xml version="1.0" encoding="UTF-8"?>
<svg id="_Слой_2" data-name="Слой 2" xmlns="http://www.w3.org/2000/svg" viewBox="0 0 405.98 406.08">
  <defs>
    <style>
      .cls-1 {
        fill: #fff;
      }
    </style>
  </defs>
  <g id="_Слой_1-2" data-name="Слой 1">
    <g>
      <path d="m.04,207.21C-2.21,98.48,84.4,6.07,191.99.29c114.29-6.15,213.46,87.55,213.99,201.91.5,107.56-86.4,199.47-194.98,203.73C98.74,410.34,2.37,319.53.04,207.21Zm119.63,88.47c57.49-35.13,114.59-40.14,171.84.21,4.84-6.5,9.59-12.87,14.43-19.36-32.43-24.06-68.15-35.66-108.05-32.66-33.61,2.53-64.29,13.82-92.57,32.62,5.07,6.78,9.79,13.08,14.35,19.19Zm61.2-125.26c-7.44-7.41-14.89-14.82-22.36-22.26,7.58-7.56,14.96-14.91,21.99-21.92-6.02-5.95-11.75-11.62-18.01-17.8-6.94,7.09-14.22,14.52-21.59,22.06-7.42-7.46-14.77-14.84-21.64-21.74-5.95,5.96-11.64,11.66-17.8,17.83,6.99,6.99,14.34,14.33,22.25,22.24-7.33,7.25-14.78,14.63-21.65,21.42,5.69,5.72,11.3,11.35,17.45,17.52,7-7.13,14.28-14.55,22.04-22.44,7.42,7.44,14.81,14.85,22.14,22.2,5.67-5.65,11.26-11.21,17.18-17.11Zm85.43-39.4c-7.75-7.77-15.11-15.13-22.18-22.22-5.67,5.67-11.33,11.33-17.66,17.66,7.24,7.2,14.69,14.6,22.42,22.27-7.26,7.24-14.63,14.59-21.75,21.7,5.71,5.7,11.36,11.35,17.63,17.61,7.23-7.26,14.65-14.71,22.38-22.47,7.27,7.3,14.61,14.66,21.74,21.81,5.66-5.68,11.3-11.33,17.46-17.51-7.25-7.22-14.71-14.63-22.47-22.35,7.39-7.37,14.76-14.72,21.89-21.84-5.66-5.66-11.3-11.31-17.2-17.22-7.13,7.22-14.44,14.64-22.26,22.56Z"/>
      <path class="cls-1" d="m119.67,295.68c-4.57-6.11-9.28-12.4-14.35-19.19,28.28-18.8,58.96-30.09,92.57-32.62,39.9-3,75.63,8.59,108.05,32.66-4.84,6.49-9.59,12.87-14.43,19.36-57.25-40.35-114.35-35.34-171.84-.21Z"/>
      <path class="cls-1" d="m180.87,170.42c-5.92,5.9-11.51,11.46-17.18,17.11-7.33-7.35-14.72-14.76-22.14-22.2-7.75,7.89-15.04,15.31-22.04,22.44-6.15-6.17-11.76-11.81-17.45-17.52,6.87-6.8,14.32-14.17,21.65-21.42-7.91-7.91-15.26-15.25-22.25-22.24,6.16-6.17,11.85-11.87,17.8-17.83,6.87,6.9,14.21,14.28,21.64,21.74,7.38-7.53,14.65-14.97,21.59-22.06,6.26,6.19,11.99,11.85,18.01,17.8-7.03,7.01-14.41,14.36-21.99,21.92,7.47,7.44,14.92,14.86,22.36,22.26Z"/>
      <path class="cls-1" d="m266.3,131.02c7.82-7.92,15.13-15.33,22.26-22.56,5.9,5.91,11.54,11.56,17.2,17.22-7.14,7.12-14.51,14.47-21.89,21.84,7.76,7.72,15.22,15.14,22.47,22.35-6.17,6.18-11.8,11.83-17.46,17.51-7.13-7.15-14.47-14.52-21.74-21.81-7.73,7.76-15.15,15.21-22.38,22.47-6.27-6.26-11.92-11.9-17.63-17.61,7.12-7.11,14.5-14.46,21.75-21.7-7.73-7.68-15.17-15.08-22.42-22.27,6.33-6.33,11.99-11.98,17.66-17.66,7.08,7.09,14.43,14.45,22.18,22.22Z"/>
    </g>
  </g>
</svg>