<?xml version="1.0" encoding="UTF-8"?>
<svg id="_Слой_2" data-name="Слой 2" xmlns="http://www.w3.org/2000/svg" viewBox="0 0 432.15 469.69">
  <defs>
    <style>
      .cls-1 {
        fill: #fff;
      }
    </style>
  </defs>
  <g id="_Слой_1-2" data-name="Слой 1">
    <g>
      <path class="cls-1" d="m431.96,75.55c0,20.09.5,39.75-.1,59.37-1.71,56.04-11.67,110.58-33.26,162.47-6.99,16.8-16.54,32.64-25.88,48.34-14.7,24.73-32.14,47.53-53.84,66.55-26.82,23.52-55.91,43.62-90.11,55.32-8.23,2.82-15.8,2.83-24.2-.32-22.73-8.52-44.38-19.19-64.28-32.86-13.09-9-24.89-19.96-36.79-30.58-16.47-14.71-29.06-32.81-41.11-51.03-9.61-14.53-18.27-29.94-25.36-45.84-12.45-27.89-20.91-57.14-27.22-87.12C.08,173.57-.62,126.82.3,79.87c.07-3.7,2.34-4.03,4.6-4.63,20.16-5.41,40.63-9.84,60.44-16.29,25.67-8.36,51.04-17.76,76.12-27.76,23.26-9.27,45.96-19.93,68.95-29.9,3.75-1.62,7.46-1.81,11.53,0,22.18,9.93,44.2,20.29,66.8,29.18,25.84,10.17,51.98,19.71,78.43,28.1,20.89,6.63,42.46,11.1,63.73,16.55.62.16,1.2.49,1.05.42ZM129.36,206.59c-3.26.44-6.55.74-9.78,1.33-9.45,1.72-19.35,11.62-20.94,21.1-2.14,12.71,3.31,22.14,13.18,29.55,1.33,1,2.79,1.84,3.99,2.97,20.33,19.17,40.87,38.14,60.84,57.69,8.6,8.43,22.94,8.85,31.55,2.77,10.54-7.43,20.6-15.77,29.85-24.76,35.09-34.13,69.62-68.84,104.69-102.99,10.88-10.59,10.58-29.87,1.31-38.77-13.91-13.35-29.96-14.45-42.5-2.22-20.62,20.12-41.27,40.22-61.68,60.55-11.91,11.86-23.61,23.94-34.98,36.31-5.18,5.63-4.85,6.13-10.66,1.01-12.72-11.22-25.27-22.65-38.11-33.74-7.59-6.56-16.38-10.62-26.75-10.81Z"/>
      <path d="m129.36,206.59c10.36.19,19.16,4.25,26.75,10.81,12.84,11.09,25.39,22.51,38.11,33.74,5.81,5.12,5.48,4.62,10.66-1.01,11.37-12.37,23.07-24.46,34.98-36.31,20.42-20.33,41.06-40.43,61.68-60.55,12.54-12.23,28.59-11.13,42.5,2.22,9.27,8.9,9.56,28.18-1.31,38.77-35.07,34.15-69.6,68.86-104.69,102.99-9.25,8.99-19.31,17.33-29.85,24.76-8.61,6.08-22.95,5.65-31.55-2.77-19.96-19.55-40.5-38.52-60.84-57.69-1.2-1.13-2.66-1.97-3.99-2.97-9.87-7.41-15.31-16.84-13.18-29.55,1.59-9.48,11.49-19.37,20.94-21.1,3.23-.59,6.52-.9,9.78-1.33Z"/>
    </g>
  </g>
</svg>