<?xml version="1.0" encoding="UTF-8"?>
<svg id="_Слой_2" data-name="Слой 2" xmlns="http://www.w3.org/2000/svg" viewBox="0 0 43.9 43.89">
  <defs>
    <style>
      .cls-1 {
        fill: #fff;
      }
    </style>
  </defs>
  <g id="_Слой_1-2" data-name="Слой 1">
    <path class="cls-1" d="m0,23.24v-2.57c.04-.31.07-.62.11-.93.53-4.72,2.33-8.89,5.51-12.42C9,3.57,13.19,1.22,18.17.34,19,.2,19.83.11,20.67,0c.86,0,1.72,0,2.57,0,.11.02.22.05.33.07,1.27.2,2.56.31,3.8.62,10.84,2.76,18.11,13.33,16.24,24.79-.93,5.71-3.74,10.38-8.36,13.89-5,3.79-10.65,5.18-16.84,4.21-4.53-.71-8.45-2.72-11.74-5.92-3.38-3.29-5.49-7.26-6.32-11.9-.15-.84-.23-1.69-.35-2.53Zm8.38,13.82c.35-.2.71-.41,1.07-.61,1.87-1.02,3.73-2.05,5.6-3.05.79-.42,1.18-1.04,1.16-1.93-.01-.57.01-1.14-.01-1.71,0-.21-.08-.45-.19-.63-.96-1.4-1.72-2.89-2.19-4.53-.05-.18-.16-.37-.29-.5-.51-.54-.82-1.17-.83-1.92-.02-1.06-.05-2.12.02-3.17.03-.47.3-.93.46-1.4.07-.22.19-.45.2-.67.01-1.29,0-2.57,0-3.86-.02-2.54,1.46-4.84,3.81-5.8,2.95-1.2,5.98-1.21,8.97-.24,2.76.9,4.41,3.25,4.4,5.99,0,1.29-.02,2.57,0,3.86,0,.25.14.5.22.75.15.46.41.9.43,1.37.07,1.07.05,2.14.02,3.21-.03.98-.52,1.72-1.32,2.28-.19.14-.36.35-.46.56-.48.94-.79,1.99-1.42,2.82-.85,1.12-1.18,2.29-1.01,3.65,0,.04,0,.09,0,.13,0,.77.32,1.36,1.01,1.71,2.48,1.26,4.97,2.5,7.46,3.75,5.69-4.91,8.54-13.43,5.76-21.69C38.46,7.18,30.62,1.57,21.92,1.61c-8.91.04-16.68,5.71-19.38,14.25-2.57,8.1.3,16.4,5.84,21.21Z"/>
  </g>
</svg>