<?xml version="1.0" encoding="UTF-8"?>
<svg id="_Слой_2" data-name="Слой 2" xmlns="http://www.w3.org/2000/svg" viewBox="0 0 319.93 319.92">
  <defs>
    <style>
      .cls-1 {
        fill: #fff;
      }
    </style>
  </defs>
  <g id="_Слой_1-2" data-name="Слой 1">
    <g>
      <path class="cls-1" d="m160.35,319.92C71.65,320.04.26,248.82,0,159.96-.26,71.79,71.53,0,159.97,0c88.14,0,159.87,71.38,159.96,159.21.09,88.94-71.05,160.59-159.58,160.71Zm63.82-202.54c-.34-3.22-.57-6.84-1.13-10.41-5.2-32.81-35.45-55.66-69.75-52.73-31.79,2.72-57.59,31.35-57.23,63.51.1,9,6.66,15.87,15.37,16.09,8.88.23,15.75-6.03,16.45-14.99.13-1.62.21-3.25.45-4.85,2.04-13.54,9.62-22.72,22.63-26.64,12.92-3.89,24.35-.35,33.21,9.8,13.94,15.97,8.93,38.74-10.38,49.83-19.07,10.96-28.97,27.66-29.7,49.65-.3,9.21,5.8,16.07,14.28,16.56,9.15.53,16.86-6.08,17.46-15.34.72-11.06,5.98-18.73,15.59-24.29,21.33-12.34,31.79-31.31,32.75-56.2Zm-48.27,132.75c.04-8.98-6.83-15.98-15.75-16.07-8.93-.08-16,6.85-16.06,15.74-.06,8.95,6.82,15.96,15.75,16.07,8.91.1,16.03-6.87,16.06-15.74Z"/>
      <path d="m224.17,117.38c-.95,24.89-11.42,43.87-32.75,56.2-9.61,5.56-14.88,13.23-15.59,24.29-.6,9.26-8.3,15.86-17.46,15.34-8.48-.49-14.58-7.35-14.28-16.56.72-21.99,10.62-38.69,29.7-49.65,19.31-11.09,24.32-33.86,10.38-49.83-8.86-10.15-20.29-13.69-33.21-9.8-13.01,3.91-20.59,13.09-22.63,26.64-.24,1.6-.32,3.23-.45,4.85-.71,8.96-7.57,15.22-16.45,14.99-8.7-.22-15.26-7.09-15.37-16.09-.36-32.16,25.43-60.79,57.23-63.51,34.3-2.93,64.55,19.91,69.75,52.73.57,3.57.79,7.19,1.13,10.41Z"/>
      <path d="m175.9,250.13c-.04,8.87-7.15,15.84-16.06,15.74-8.93-.1-15.81-7.12-15.75-16.07.06-8.89,7.14-15.82,16.06-15.74,8.92.08,15.78,7.09,15.75,16.07Z"/>
    </g>
  </g>
</svg>