<?xml version="1.0" encoding="UTF-8"?>
<svg id="_Слой_2" data-name="Слой 2" xmlns="http://www.w3.org/2000/svg" viewBox="0 0 2226 2045.68">
  <defs>
    <style>
      .cls-1 {
        fill: #fff;
      }
    </style>
  </defs>
  <g id="_Слой_1-2" data-name="Слой 1">
    <g>
      <path d="m2226,344.47v1357.34c-.92,6.83-1.64,13.68-2.77,20.48-19.36,116.2-79.09,205.59-179.54,267.04-64.39,39.39-135.23,56.37-210.5,56.36-478.84-.08-957.68-.02-1436.52-.11-13.31,0-26.65-.62-39.92-1.68-67.75-5.39-130.49-26.13-186.77-64.25-92.31-62.53-147.23-149.19-164.39-259.53-1.68-10.8-3.72-21.54-5.59-32.3,0-443.12,0-886.23,0-1329.35,1.23-5.11,2.67-10.18,3.66-15.34,3.83-19.91,5.77-40.37,11.54-59.69C53.53,155.03,137.54,69.24,262.35,22.68,308.09,5.62,355.79-.03,404.59,0c475.59.26,951.19.16,1426.78.16,5.33,0,10.66.06,16,.08,53.03.17,104.16,10.45,152.28,32.47,123.82,56.65,198.29,152.2,222.64,286.36,1.53,8.41,2.49,16.93,3.71,25.39Zm-1113.33,1656.4c237.97,0,475.95.08,713.92-.16,18.24-.02,36.51-1.81,54.69-3.57,39.14-3.78,76.3-14.94,111.58-32.11,72.84-35.44,126.41-89.81,160.25-163.56,21.81-47.54,29.88-98,29.92-149.58.35-422.41.21-844.83.16-1267.24,0-25.68-2.3-51.22-8.06-76.26-22.5-97.88-77.3-171.92-164.88-221.35-54.7-30.88-114.21-43.36-176.42-43.39-463.62-.17-927.23-.11-1390.85-.02-22.64,0-45.28,1.03-67.93,1.58-28.81.7-56.88,6.01-84.39,14.19C150.28,101.15,46.72,225.37,46.75,385.64c.08,425.41-.03,850.82.21,1276.24.01,18.89,1.39,37.99,4.37,56.64,10.33,64.73,37.07,121.97,81.48,170.53,59.49,65.06,134.08,100.15,221.09,109.58,19.14,2.07,38.56,2.16,57.85,2.17,233.64.14,467.28.09,700.92.09Z"/>
      <path class="cls-1" d="m1112.67,2000.87c-233.64,0-467.28.05-700.92-.09-19.29-.01-38.71-.09-57.85-2.17-87.01-9.43-161.6-44.52-221.09-109.58-44.41-48.56-71.15-105.8-81.48-170.53-2.98-18.65-4.36-37.75-4.37-56.64-.24-425.41-.13-850.82-.21-1276.24-.03-160.26,103.54-284.48,243.93-326.23,27.51-8.18,55.58-13.49,84.39-14.19,22.64-.55,45.28-1.58,67.93-1.58,463.62-.09,927.23-.15,1390.85.02,62.21.02,121.72,12.51,176.42,43.39,87.57,49.44,142.38,123.48,164.88,221.35,5.76,25.04,8.06,50.58,8.06,76.26.04,422.41.18,844.83-.16,1267.24-.04,51.58-8.11,102.04-29.92,149.58-33.84,73.75-87.41,128.12-160.25,163.56-35.28,17.16-72.44,28.33-111.58,32.11-18.18,1.75-36.46,3.55-54.69,3.57-237.97.24-475.95.16-713.92.16Zm-493.29-803.28c5.13.42,8.95,1.01,12.78,1.02,65.66.06,131.32.04,196.99.04,2.33,0,4.67-.04,7-.12,3.4-.11,5.63-1.73,6.43-5.13.54-2.27,1.19-4.51,1.67-6.79,8.13-38.4,16.25-76.8,24.35-115.2,11.46-54.35,22.89-108.71,34.33-163.06,2.42-11.49,2.43-11.54,14.31-11.54,47.33,0,94.66-.22,141.99.27,11.21.12,22.65,1.67,33.53,4.35,32.2,7.95,53.28,28.09,61.07,60.57,3,12.52,5,25.59,5.15,38.43.29,23.62-.99,47.26-1.89,70.88-.44,11.64-1.31,23.26-2.3,34.87-2.09,24.62-2.77,49.22.82,73.74,2.65,18.11,9.04,33.86,22.47,47.7,47.57,49.01,94.09,99.05,140.99,148.71,6.74,7.13,6.84,7.23,2.63,16.28-20.34,43.78-40.75,87.53-61.17,131.28-22.1,47.37-44.24,94.73-66.32,142.11-1.46,3.13-2.55,6.42-3.82,9.64.64.56,1.28,1.11,1.91,1.67,3.9-2.18,7.85-4.27,11.69-6.55,89.63-53.28,179.23-106.62,268.89-159.84,10.78-6.4,8.24-7.95,19.76.9,30.91,23.75,61.82,47.51,92.74,71.27,35.41,27.2,70.79,54.44,106.26,81.55,2.95,2.26,5.48,5.86,11.04,5.13-.28-3.83-.33-7.41-.83-10.93-2.33-16.46-4.8-32.91-7.19-49.36-5.03-34.56-10.02-69.12-15.06-103.68-4.9-33.57-9.75-67.14-14.85-100.68-1.18-7.77.99-12.73,7.78-17.42,45.52-31.41,90.71-63.31,136-95.05,32.2-22.56,64.42-45.09,96.57-67.72,2.76-1.94,6.62-3.18,7.19-8.95-4.67-.13-8.84-.34-13.02-.34-83.66-.02-167.32,0-250.98-.05-4.2,0-8.39-.48-13.09-.77-2.64-16.3-5.16-31.7-7.62-47.1-6.34-39.74-12.65-79.48-18.97-119.22-5.43-34.16-10.81-68.33-16.33-102.47-.32-1.99-1.79-3.79-3.43-7.12-2.82,4.22-4.95,7.09-6.75,10.14-48.75,82.61-97.4,165.28-146.26,247.82-11.67,19.72-5.52,16.04-29.27,16.87-7.95.28-12.06-2.6-15.13-9.75-10.62-24.73-17.1-50.48-18.64-77.24-1.07-18.59-.59-37.3-.34-55.94.57-42.29,2.08-84.59,1.85-126.87-.09-16.82-2.49-33.91-6.11-50.37-8.3-37.76-31.2-63.24-68.21-75.56-2.57-.86-5.11-1.79-9.25-3.25,7.6-1.49,13.47-2.55,19.3-3.81,40.13-8.66,76.64-24.68,106.77-53.28,41.41-39.31,58.51-89.39,63.86-144.67,2.52-26,1.69-51.87-2.05-77.67-4.56-31.39-14.28-60.88-33.07-86.85-21.47-29.67-50.78-48.58-84.84-60.63-40.92-14.47-83.45-19.93-126.56-20.04-142.66-.37-285.31-.17-427.97-.19-1,0-2-.02-3,0-8.13.2-8.26.18-10.08,7.85-1.61,6.79-2.88,13.67-4.33,20.5-27.85,131.46-55.7,262.92-83.55,394.38-26.47,124.95-52.94,249.91-79.39,374.86-2.18,10.32-4.15,20.68-6.49,32.38Z"/>
      <path d="m619.37,1197.6c2.34-11.7,4.31-22.06,6.49-32.38,26.44-124.96,52.92-249.91,79.39-374.86,27.85-131.46,55.7-262.92,83.55-394.38,1.45-6.83,2.72-13.71,4.33-20.5,1.82-7.67,1.95-7.64,10.08-7.85,1-.03,2,0,3,0,142.66.02,285.32-.19,427.97.19,43.11.11,85.63,5.57,126.56,20.04,34.06,12.05,63.37,30.95,84.84,60.63,18.79,25.97,28.51,55.46,33.07,86.85,3.74,25.8,4.57,51.67,2.05,77.67-5.35,55.28-22.45,105.36-63.86,144.67-30.13,28.6-66.64,44.62-106.77,53.28-5.83,1.26-11.71,2.32-19.3,3.81,4.14,1.45,6.68,2.39,9.25,3.25,37.01,12.32,59.91,37.8,68.21,75.56,3.62,16.47,6.02,33.55,6.11,50.37.23,42.29-1.28,84.58-1.85,126.87-.25,18.65-.73,37.35.34,55.94,1.54,26.76,8.02,52.51,18.64,77.24,3.07,7.15,7.18,10.02,15.13,9.75,23.75-.83,17.59,2.85,29.27-16.87,48.86-82.54,97.5-165.21,146.26-247.82,1.8-3.05,3.93-5.92,6.75-10.14,1.64,3.32,3.11,5.13,3.43,7.12,5.53,34.14,10.91,68.31,16.33,102.47,6.31,39.74,12.63,79.48,18.97,119.22,2.46,15.4,4.98,30.8,7.62,47.1,4.7.29,8.9.77,13.09.77,83.66.04,167.32.03,250.98.05,4.17,0,8.35.22,13.02.34-.57,5.77-4.43,7.01-7.19,8.95-32.15,22.63-64.37,45.16-96.57,67.72-45.3,31.74-90.48,63.64-136,95.05-6.79,4.69-8.97,9.65-7.78,17.42,5.1,33.54,9.95,67.11,14.85,100.68,5.04,34.56,10.03,69.12,15.06,103.68,2.39,16.45,4.86,32.9,7.19,49.36.5,3.52.55,7.11.83,10.93-5.55.73-8.08-2.87-11.04-5.13-35.47-27.12-70.86-54.35-106.26-81.55-30.91-23.75-61.82-47.51-92.74-71.27-11.51-8.85-8.98-7.29-19.76-.9-89.66,53.23-179.26,106.56-268.89,159.84-3.84,2.28-7.79,4.37-11.69,6.55-.64-.56-1.28-1.11-1.91-1.67,1.26-3.22,2.36-6.51,3.82-9.64,22.08-47.38,44.22-94.74,66.32-142.11,20.41-43.75,40.82-87.5,61.17-131.28,4.2-9.05,4.1-9.14-2.63-16.28-46.9-49.66-93.42-99.69-140.99-148.71-13.43-13.84-19.82-29.58-22.47-47.7-3.59-24.53-2.91-49.13-.82-73.74.99-11.6,1.85-23.23,2.3-34.87.9-23.62,2.17-47.27,1.89-70.88-.16-12.85-2.15-25.91-5.15-38.43-7.79-32.48-28.87-52.62-61.07-60.57-10.89-2.69-22.33-4.24-33.53-4.35-47.33-.49-94.66-.26-141.99-.27-11.88,0-11.89.05-14.31,11.54-11.45,54.35-22.88,108.71-34.33,163.06-8.1,38.4-16.22,76.8-24.35,115.2-.48,2.28-1.13,4.52-1.67,6.79-.81,3.4-3.03,5.02-6.43,5.13-2.33.08-4.66.12-7,.12-65.66,0-131.32.02-196.99-.04-3.83,0-7.65-.59-12.78-1.02Zm868.22,256.69c53,41.05,105.55,81.74,158.09,122.44.57-.36,1.14-.73,1.71-1.09-9.8-66.98-19.6-133.96-29.36-200.63,53.87-37.72,106.81-74.79,159.75-111.88.81-.56,1.52-1.27,2.22-1.97.21-.21.32-.61.33-.93,0-.3-.19-.59-.62-1.84h-179.82c-10.59-66.36-21.05-131.92-31.89-199.84-3.26,5.1-5.28,8.04-7.09,11.1-34.91,59.05-69.96,118.01-104.5,177.28-4.32,7.41-8.99,9.67-17.29,9.62-53.99-.38-107.98-.2-161.97-.2h-10.46c-.24.72-.47,1.45-.71,2.17,36.98,39.04,73.96,78.08,111.27,117.47-30.82,65.8-61.37,131.02-91.92,196.23.58.49,1.16.98,1.74,1.47,66.5-39.59,132.99-79.19,200.53-119.4Zm-543.27-715.6c1.88.31,3.15.72,4.41.71,63.9-.49,127.81-.92,191.71-1.62,18.74-.21,37.01-3.88,54.63-10.22,26.42-9.5,47.46-25.3,58.93-51.83,8.38-19.38,10.92-39.81,8.85-60.57-3.07-30.74-19.87-51.41-48.66-62.44-15.03-5.76-30.63-9.4-46.68-9.53-57.6-.49-115.2-.52-172.81-.72-1,0-2,.1-3,.03-4.91-.35-7.35,2.27-8.26,6.77-.2.98-.46,1.94-.67,2.91-12.56,59.15-25.13,118.31-37.62,177.47-.6,2.83-.55,5.8-.84,9.04Z"/>
      <path class="cls-1" d="m1487.59,1454.29c-67.54,40.21-134.03,79.81-200.53,119.4-.58-.49-1.16-.98-1.74-1.47,30.55-65.22,61.1-130.43,91.92-196.23-37.31-39.39-74.29-78.43-111.27-117.47.24-.72.47-1.45.71-2.17h10.46c53.99,0,107.98-.19,161.97.2,8.3.06,12.97-2.21,17.29-9.62,34.54-59.26,69.59-118.23,104.5-177.28,1.81-3.06,3.83-6,7.09-11.1,10.84,67.93,21.3,133.48,31.89,199.84h179.82c.44,1.24.63,1.54.62,1.84,0,.32-.11.71-.33.93-.7.7-1.41,1.41-2.22,1.97-52.93,37.08-105.88,74.16-159.75,111.88,9.75,66.67,19.56,133.65,29.36,200.63-.57.36-1.14.73-1.71,1.09-52.55-40.7-105.1-81.39-158.09-122.44Z"/>
      <path class="cls-1" d="m944.32,738.69c.28-3.24.24-6.21.84-9.04,12.5-59.17,25.07-118.32,37.62-177.47.21-.97.47-1.94.67-2.91.91-4.5,3.35-7.12,8.26-6.77.99.07,2-.04,3-.03,57.6.2,115.21.23,172.81.72,16.05.14,31.64,3.77,46.68,9.53,28.79,11.03,45.59,31.7,48.66,62.44,2.07,20.76-.47,41.18-8.85,60.57-11.47,26.54-32.51,42.34-58.93,51.83-17.62,6.34-35.89,10.01-54.63,10.22-63.9.7-127.81,1.12-191.71,1.62-1.26,0-2.53-.39-4.41-.71Z"/>
    </g>
  </g>
</svg>