<?xml version="1.0" encoding="UTF-8"?>
<svg id="_Слой_2" data-name="Слой 2" xmlns="http://www.w3.org/2000/svg" viewBox="0 0 449.01 444.42">
  <defs>
    <style>
      .cls-1 {
        fill: #fff;
      }
    </style>
  </defs>
  <g id="_Слой_1-2" data-name="Слой 1">
    <g>
      <path class="cls-1" d="m361.66,355.48c6.32-.68,11.7-1.66,17.1-1.76,9.27-.17,18.68-.66,27.8.62,8.65,1.22,16.27,5.81,18.78,15.1,2.69,9.95.04,19.11-7.6,25.91-4.24,3.77-4.11,6.49-1.43,10.79,3.86,6.2,7.17,12.75,10.69,19.17,3.8,6.92,8.54,12.71,16.84,14.4.79.16,1.5.69,2.25,1.06.59.3,1.17.62,2.94,1.56-6.93,2.64-12.66,2.8-17.58.41-4.57-2.22-8.25-6.27-12.31-9.53-1.03-.83-1.97-1.77-3.01-2.58-2.62-2.03-4.04-4.05-5.16-7.79-2-6.66-7.03-12.51-11.37-18.27-.85-1.13-4.34-.44-6.6-.31-6.81.39-6.79.44-6.68,7.42.06,3.83.08,7.66.08,11.48,0,6.45,2.03,11.42,9.14,12.82.73.14,1.38.67,2.01,1.9-11.7,1.41-23.36,1.02-35.22,1,.25-1.3.25-1.87.38-1.9,7.72-1.77,9.11-7.46,9.29-14.28.29-10.84.87-21.64-.17-32.5-.5-5.21.58-10.55.5-15.83-.06-3.61-.92-7.2-1.35-10.81-.54-4.54-4.3-4.94-7.56-6.05-.38-.13-.61-.69-1.74-2.04Zm25.6,34.57c-.6.1-1.21.21-1.81.31,1.01,2.39,1.55,6.42,3.12,6.88,5.61,1.62,11.55,1.82,16.52-2.43,5.49-4.69,7.6-13.97,4.85-21-3.85-9.81-9.66-14.05-18.44-13.8-2.89.08-4.28,1.05-4.25,4.05.06,8.66.02,17.33.02,26Z"/>
      <path class="cls-1" d="m270.51,355.3c4.59-.53,9.18-1.49,13.78-1.51,14.8-.07,29.6.27,44.4.3,3.5,0,4.69.83,3.91,4.65-1.08,5.27-1.36,10.7-1.99,16.06-.51.08-1.03.16-1.54.24-.62-1.54-1.49-3.02-1.81-4.62-1.09-5.33-4.69-7.52-9.67-7.61-7.14-.13-14.28.07-21.42.19-.78.01-1.55.46-1.69.5-.41,8.13-.75,15.86-1.22,23.58-.18,2.92.8,4.3,3.93,4.24,6.99-.13,13.99-.04,20.99-.04,3.53,0,5.95-1.53,7.42-4.83.45-1.02,1.75-1.66,2.66-2.47.46,1.11,1.34,2.24,1.3,3.33-.27,6.56-.75,13.12-1.21,20.42-1.76-.83-2.91-.99-3.31-1.63-3.26-5.17-8.09-6.36-13.81-6.14-3.64.14-7.3-.43-10.95-.62-5.13-.27-6.89,1.52-6.93,6.7-.04,4.95-.6,9.93-.22,14.84.18,2.33,1.47,5.22,3.23,6.67,9.1,7.5,26.86,4.73,33.48-4.95.83-1.22,1.16-2.8,2.05-3.95.9-1.18,2.22-2.04,4.14-3.73,1.11,8.57-1.28,14.94-4.22,21.04-.76,1.58-3.28,3.28-4.99,3.28-18.76-.06-37.53-.44-57.44-.76,1.38-1.62,1.81-2.57,2.52-2.88,5.98-2.58,7.18-7.2,7.1-13.34-.16-11.1.9-22.22.86-33.33-.03-7.77-.71-15.58-1.8-23.26-.36-2.54-2.82-4.85-4.55-7.09-.71-.91-2.04-1.34-3.09-1.99.04-.43.07-.87.11-1.3Z"/>
      <path class="cls-1" d="m140.19,408.18c-5-10-13.94-7.88-22.05-8.33-1.16-.06-2.31-.36-3.47-.46-6.14-.53-8.17,1.67-7.72,7.82.27,3.62.71,7.41-.04,10.88-1.16,5.34.64,8.61,5.14,11.1,8.58,4.76,23.86,2.46,29.93-4.81,1.46-1.75,2.21-4.08,3.59-5.93.84-1.13,2.24-1.84,3.39-2.74.66.42,1.31.84,1.97,1.26-1.65,6.13-2.93,12.4-5.17,18.31-.71,1.87-3.98,3.94-6.07,3.93-18.32-.08-36.63-.61-54.94-1.04-.25,0-.5-.33-.75-.51,0-.31-.1-.85.02-.9,8.28-3.48,8.86-10.24,8.62-18.08-.3-9.77.92-19.59.82-29.37-.09-8.12-.61-16.34-2.06-24.31-.6-3.31-4.13-6.1-6.6-9.5.58-.14,1.97-.74,3.38-.76,12.45-.24,24.9-.4,37.36-.54,5.83-.07,11.66-.17,17.48.05,1.21.05,3.42,1.56,3.37,2.26-.46,5.79-1.33,11.55-2.13,17.31-.06.44-.53.83-1.33,2.02-.9-2.24-1.76-3.65-2.03-5.16-1-5.63-4.81-7.81-9.94-7.92-6.97-.15-13.96.07-20.94.18-.79.01-1.58.31-1.82.36-.49,8.28-.96,16.15-1.44,24.01-.16,2.62.74,4.05,3.67,4,7.16-.11,14.33-.05,21.5-.04,3.59,0,5.85-1.77,7.35-4.98.46-.97,1.81-1.53,2.75-2.28.43,1.14,1.28,2.31,1.22,3.42-.33,6.57-.88,13.14-1.35,19.71-.56.34-1.13.69-1.69,1.03Z"/>
      <path class="cls-1" d="m257.9,355.22c-1.44.58-2.83,1.46-4.33,1.68-4.43.67-6.79,3.1-8.53,7.27-6.11,14.66-12.77,29.08-18.96,43.7-3.76,8.86-6.92,17.98-10.65,26.86-.77,1.83-2.62,3.72-4.44,4.45-2.35.94-4.86.46-5.7-2.9-.72-2.92-1.83-5.76-2.82-8.61-1.83-5.26-3.7-10.5-5.65-16.02,3.44-1.54,6.88-3.08,10.31-4.61-.15-.65-.3-1.31-.45-1.96-2.97.21-5.95.3-8.9.65-2.4.29-3.75-.05-4.82-2.77-4.97-12.7-10.1-25.35-15.67-37.8-1.3-2.9-4.36-5.13-6.93-7.3-1.44-1.21-3.52-1.67-5.18-3.63,6.42.28,12.84.85,19.26.78,6.68-.08,13.36-.77,20.03-1.19.15.4.31.81.46,1.21-1.22.54-2.4,1.31-3.68,1.59-5.74,1.23-6.47,2.09-4.71,7.79,2.25,7.3,4.9,14.48,7.28,21.75,2.71,8.28,5.27,16.61,8.01,24.89.31.94,1.31,1.66,1.99,2.48.96-.8,2.37-1.41,2.81-2.44,2.09-4.83,3.86-9.79,5.85-14.66,3.09-7.56,6.31-15.07,9.4-22.64,1.48-3.63,3.49-7.27,3.89-11.04.22-2.04-2.23-4.59-3.93-6.51-.81-.92-2.67-.91-3.95-2.18h29.59c.13.39.26.77.4,1.16Z"/>
      <path class="cls-1" d="m50.82,378.17c-.42-1.81-.88-3.62-1.26-5.44-1.34-6.43-5.1-10.62-10.95-11.46-7.66-1.1-15.48-2.2-20.84,5.51-2.75,3.95-2.09,10.15,2.13,13.52,4.24,3.38,9.06,6.09,13.78,8.82,4.74,2.74,9.81,4.92,14.48,7.76,7.86,4.79,10.65,12.31,9.34,21.04-1.34,8.99-6.36,15.83-15.05,18.98-4.46,1.61-9.39,2.08-14.16,2.57-3.08.32-6.64.96-8.47-3.08-.32-.71-2.06-.79-3.6-1.31-.17,1.21-.3,2.13-.55,3.84-4.2-1.22-8.34-2.3-12.37-3.69-1.09-.38-2.59-1.67-2.64-2.61C.25,425.53.14,418.42,0,411.32c0-.27.68-.56,1.66-1.3.31,1.61.65,2.77.73,3.94.63,8.51,4.73,13.77,13,16.21,6.47,1.91,12.73,2.96,19.77,1.23,6.84-1.68,7.79-6.69,9.23-11.55,1.25-4.23-1.06-8.06-4.54-10.32-5.69-3.7-11.92-6.56-17.65-10.22-5.4-3.44-10.97-6.91-15.49-11.35-5.2-5.11-6.3-16.26-1.6-21.73,5.24-6.1,11.14-12.56,20.23-12.97,5.29-.24,10.62.22,15.92.43,1.83.07,3.65.49,5.47.46,7.54-.11,7.47-.16,6.94,7.19-.3,4.15-.23,8.32-.48,12.48-.09,1.46-.6,2.89-.92,4.33-.49,0-.98.01-1.46.02Z"/>
      <path class="cls-1" d="m217.73,159.92c-2,5.56-3.9,10.88-5.81,16.2-.47-.09-.94-.17-1.42-.26-1.31-5.9-2.62-11.79-4.05-18.23-6.04,1.62-11.74,3.15-17.44,4.68-.3-.25-.59-.51-.89-.76,1.69-2.37,3.11-5.01,5.14-7.04,2.17-2.18,4.92-3.8,7.59-5.8-3.89-4.54-7.48-8.74-11.07-12.94.21-.43.41-.85.62-1.28,5.47,1.27,10.95,2.55,16.91,3.93,1.52-6.07,3.02-12.04,4.51-18.01.51-.03,1.03-.05,1.54-.08,1.51,5.94,3.02,11.89,4.58,18.02h18.59c-5.23,3.79-9.51,6.89-13.69,9.92,4.31,4.94,8.25,9.45,12.93,14.81-6.78-1.18-12.12-2.11-18.04-3.14Z"/>
      <path class="cls-1" d="m357.51,244.95c-21.21-13.96-42.43-27.91-63.64-41.87-.14.16-.27.32-.41.48,6.47,4.78,12.94,9.55,19.41,14.33-.33.44-.67.88-1,1.32-17.16-12.68-34.31-25.37-51.47-38.05.16-.35.32-.71.48-1.06,2.78,1.06,5.88,1.66,8.3,3.27,29.53,19.63,58.97,39.4,88.41,59.16.38.26.59.76.89,1.14-.32.43-.64.86-.96,1.29Z"/>
      <path class="cls-1" d="m165.21,95.42c-13.51-12.81-27.03-25.63-40.54-38.44.16-.15.31-.3.47-.45,16.61,16.19,33.23,32.37,49.84,48.56-.38.52-.77,1.04-1.15,1.56-3.4-2.09-7.18-3.76-10.14-6.36-10.38-9.11-20.46-18.57-30.69-27.84-2.41-2.19-5.01-4.17-7.52-6.25.53-.53,1.05-1.06,1.58-1.59,11.93,11.05,23.86,22.1,35.8,33.15.78-.78,1.57-1.56,2.35-2.34Z"/>
      <path class="cls-1" d="m162.57,106.15c-18.62-14.91-37.24-29.81-55.87-44.72.38-.47.75-.95,1.13-1.42,10.45,8.51,21.23,16.63,31.24,25.62,9.81,8.81,22.76,14.17,29.59,27.64-15.62-10.79-30.56-21.1-45.49-31.42.31-.44.61-.89.92-1.33,12.61,8.8,25.21,17.6,37.82,26.4l.66-.76Z"/>
      <path class="cls-1" d="m255.11,111.96c27.49-26.29,54.99-52.58,82.48-78.86.38.4.76.8,1.14,1.2-27.51,26.27-55.03,52.53-82.54,78.8-.36-.38-.72-.76-1.08-1.13Z"/>
      <path class="cls-1" d="m264.44,126.04c31.85-14.56,63.69-29.12,96.11-43.93-3.51,4.07-89.93,44.02-96.11,43.93Z"/>
      <path class="cls-1" d="m268.04,135.84c34.37-8.6,68.74-17.19,103.11-25.79.13.53.27,1.05.4,1.58-34.38,8.63-68.76,17.26-103.13,25.89-.13-.56-.25-1.12-.38-1.68Z"/>
      <path class="cls-1" d="m336.01,268.84c-26.01-26.42-52.01-52.83-78.02-79.25-.05.05-.1.1-.15.15,26.02,26.45,52.05,52.89,78.07,79.34.03-.08.06-.16.1-.24Z"/>
      <path class="cls-1" d="m95.27,239.37c24.75-17.75,49.5-35.51,75.1-53.87-2.24,3.49-3.51,6.41-5.62,8.48-1.65,1.63-3.18,5.41-6.93,2.57-.32-.24-2.07,1.4-3.15,2.17-18.55,13.27-37.09,26.55-55.65,39.81-.93.66-1.95,1.2-2.92,1.79-.28-.31-.55-.63-.83-.94Z"/>
      <path class="cls-1" d="m76.05,77.62l87.05,43.3c-.26.52-.52,1.04-.78,1.56-29-14.46-58-28.92-87-43.39.25-.49.49-.99.74-1.48Z"/>
      <path class="cls-1" d="m102.35,270.87c23.07-24.67,46.14-49.34,69.21-74,.4.38.81.76,1.21,1.13-23.11,24.65-46.23,49.3-69.34,73.95-.36-.36-.72-.72-1.08-1.08Z"/>
      <path class="cls-1" d="m280.24,173.99c29.4,12.47,58.8,24.95,88.2,37.42-.2.48-.4.96-.6,1.44-29.37-12.41-58.73-24.83-88.1-37.24l.51-1.61Z"/>
      <path class="cls-1" d="m351.37,182.25c-27.23-6.49-54.46-12.98-81.7-19.47.14-.58.28-1.16.42-1.74,27.22,6.46,54.45,12.92,81.67,19.38-.13.61-.26,1.22-.39,1.82Z"/>
      <path class="cls-1" d="m288.61,289.67c-11.61-23.71-23.23-47.41-34.84-71.12.53-.26,1.06-.51,1.59-.77,11.62,23.7,23.24,47.41,34.86,71.11-.53.26-1.07.52-1.6.78Z"/>
      <path class="cls-1" d="m231.53,213.22c5.38,28.31,10.76,56.62,16.14,84.93-.61.12-1.21.23-1.82.35-5.32-28.32-10.64-56.65-15.95-84.97.54-.1,1.09-.21,1.63-.31Z"/>
      <path class="cls-1" d="m183.6,206.16c-14.94,26.6-29.88,53.21-45.05,80.24.14-4.56,38.74-74.2,45.05-80.24Z"/>
      <path class="cls-1" d="m153.36,134.5c-30.43-7.31-60.85-14.62-91.28-21.93.13-.55.26-1.11.4-1.66,30.4,7.4,60.8,14.8,91.19,22.2-.1.46-.21.93-.31,1.39Z"/>
      <path class="cls-1" d="m237.65,201.66c10.46,27.15,20.92,54.31,31.38,81.46l-1.59.61c-10.44-27.12-20.87-54.23-31.31-81.35.51-.24,1.02-.49,1.53-.73Z"/>
      <path class="cls-1" d="m163.78,7.83c10.34,27.02,20.68,54.04,31.02,81.06-.5.19-.99.38-1.49.58-10.39-27-20.78-54-31.18-81,.55-.21,1.1-.42,1.64-.64Z"/>
      <path class="cls-1" d="m189.89,202.74c-12.73,27.47-25.46,54.95-38.19,82.42-.49-.22-.97-.45-1.46-.67l38.25-82.48c.46.24.93.49,1.39.73Z"/>
      <path class="cls-1" d="m243.69,95.5c14.93-25.66,29.86-51.33,44.78-76.99.45.26.9.51,1.34.77-14.91,25.68-29.81,51.35-44.72,77.03-.47-.27-.94-.54-1.41-.81Z"/>
      <path class="cls-1" d="m132.25,273.61c16.85-24.95,33.69-49.91,50.54-74.86.43.29.86.58,1.29.87-16.83,24.96-33.66,49.93-50.49,74.89-.45-.3-.89-.6-1.34-.9Z"/>
      <path class="cls-1" d="m352.74,37.34c-22.5,19.05-45,38.09-67.51,57.14l-1.1-1.29c22.51-19.01,45.02-38.02,67.53-57.03.36.4.72.79,1.08,1.19Z"/>
      <path class="cls-1" d="m77.89,222.41c25.61-12.98,51.22-25.95,76.83-38.93.22.42.44.85.66,1.27-25.4,13.37-50.85,26.67-76.93,38.73l-.56-1.07Z"/>
      <path class="cls-1" d="m262.11,287.07c-8.67-25.53-17.33-51.07-26-76.6.59-.2,1.18-.4,1.78-.61,8.57,25.61,17.14,51.21,25.71,76.82l-1.48.39Z"/>
      <path class="cls-1" d="m155.67,201.83c-23.43,20.06-46.86,40.12-70.29,60.18-.33-.38-.66-.76-.99-1.15,23.43-20.08,46.86-40.15,70.29-60.23.33.4.66.8.99,1.19Z"/>
      <path class="cls-1" d="m74.56,165.32c24.11-2.72,48.23-5.45,72.34-8.17.06.52.13,1.03.19,1.55-24.08,2.86-48.16,5.72-72.24,8.58l-.29-1.95Z"/>
      <path class="cls-1" d="m274.42,141.64c23.82-2.53,47.64-5.06,71.45-7.59.06.58.13,1.16.19,1.75-23.8,2.53-47.61,5.05-71.41,7.58-.08-.58-.16-1.15-.23-1.73Z"/>
      <path class="cls-1" d="m82.89,181.96c21.8-5.43,43.6-10.85,65.4-16.28.14.56.29,1.13.43,1.69-21.8,5.45-43.6,10.9-65.4,16.35-.14-.59-.29-1.17-.43-1.76Z"/>
      <path class="cls-1" d="m173.21,277.46c8.34-24.17,16.68-48.34,25.02-72.52.5.17,1,.34,1.5.52-8.33,24.18-16.66,48.35-24.99,72.53-.51-.17-1.02-.35-1.53-.52Z"/>
      <path class="cls-1" d="m199.94,93.77c-6.36-21.71-12.72-43.43-19.08-65.14l1.54-.45c6.42,21.66,12.85,43.32,19.27,64.99-.58.2-1.15.4-1.73.6Z"/>
      <path class="cls-1" d="m238.69,228.66c6.08,20.67,12.17,41.34,18.25,62.01-.52.15-1.05.31-1.57.46-6.16-20.65-12.33-41.29-18.49-61.94.61-.18,1.21-.36,1.82-.54Z"/>
      <path class="cls-1" d="m232.63,28.41c-2.47,19.53-4.93,39.06-7.4,58.59-.58-.07-1.16-.15-1.74-.22,2.41-19.5,4.83-39,7.24-58.49.63.04,1.26.08,1.89.12Z"/>
      <path class="cls-1" d="m99.72,147.99h56.2c0,.3-.02.59-.02.89h-56.07c-.04-.3-.08-.59-.11-.89Z"/>
      <path class="cls-1" d="m121.74,166.93c-19.61,3.55-39.22,7.11-58.83,10.66-.1-.56-.2-1.11-.31-1.67,19.61-3.57,39.21-7.14,58.82-10.71.11.57.21,1.15.32,1.72Z"/>
      <path class="cls-1" d="m218.35,91.76c.51-17.54,1.03-35.07,1.54-52.61.65.02,1.29.05,1.94.07-.54,17.55-1.09,35.11-1.63,52.66-.62-.04-1.23-.09-1.85-.13Z"/>
      <path class="cls-1" d="m101.98,80.18c19.17,10.73,38.34,21.47,57.52,32.2-.25.45-.51.91-.76,1.36l-57.52-32.19c.26-.46.51-.92.77-1.38Z"/>
      <path class="cls-1" d="m276.26,150.8h53.21c-.01.27-.02.54-.03.82h-53.27c.03-.27.06-.54.09-.82Z"/>
      <path class="cls-1" d="m127.55,191.03c-16.62,7.75-33.25,15.5-49.87,23.26-.25-.55-.5-1.1-.75-1.65,16.64-7.72,33.28-15.45,49.92-23.17.24.52.48,1.04.71,1.56Z"/>
      <path class="cls-1" d="m306,156.24c18.38,1.55,36.76,3.09,55.14,4.64-.05.6-.11,1.2-.16,1.8-18.34-1.59-36.67-3.18-55.01-4.77.01-.56.02-1.11.03-1.67Z"/>
      <path class="cls-1" d="m256.38,201.39c11.42,15.92,22.83,31.84,34.25,47.76-.43.31-.86.62-1.29.93-11.42-15.91-22.84-31.82-34.27-47.73.43-.32.87-.64,1.3-.96Z"/>
      <path class="cls-1" d="m200.37,275.46c2.47-20.09,4.94-40.19,7.41-60.28.5.06,1,.11,1.5.17l-7.27,60.15c-.55-.01-1.09-.02-1.64-.04Z"/>
      <path class="cls-1" d="m220.61,212.45c.84,20.27,1.69,40.55,2.53,60.82-.53.02-1.06.04-1.59.06-.89-20.27-1.77-40.55-2.66-60.82.57-.02,1.15-.04,1.72-.07Z"/>
      <path class="cls-1" d="m268.73,72.13c11.9-16.28,23.81-32.56,35.71-48.85.43.31.85.62,1.28.93-11.93,16.3-23.87,32.61-35.8,48.91-.4-.33-.79-.66-1.19-1Z"/>
      <path class="cls-1" d="m323.93,167.79c-17.34-2.98-34.68-5.96-52.02-8.95.09-.52.17-1.04.26-1.56,17.33,2.88,34.65,5.75,51.98,8.63-.07.63-.14,1.25-.21,1.88Z"/>
      <path class="cls-1" d="m355.29,65.59c-16.28,10.46-32.56,20.92-48.84,31.38-.29-.45-.58-.9-.87-1.34,16.24-10.46,32.49-20.92,48.73-31.38.33.45.65.9.98,1.35Z"/>
      <path class="cls-1" d="m160.59,187.48c-15.28,9.92-30.56,19.83-45.85,29.75-.29-.44-.57-.88-.86-1.32,15.2-9.93,30.41-19.86,45.61-29.79.37.45.73.9,1.1,1.36Z"/>
      <path class="cls-1" d="m158.5,170.72c-18.49,6.92-36.98,13.84-55.46,20.76-.19-.5-.37-1-.56-1.5,18.51-6.86,37.02-13.72,55.53-20.59.16.44.33.88.49,1.32Z"/>
      <path class="cls-1" d="m234.12,67.06c2.91-16.34,5.83-32.69,8.74-49.03.6.11,1.21.22,1.81.33-2.93,16.28-5.87,32.56-8.8,48.85-.58-.05-1.17-.1-1.75-.15Z"/>
      <path class="cls-1" d="m131.39,143.24c-20.62-1.61-41.23-3.22-61.85-4.82.03-.42.06-.83.1-1.25,20.59,1.58,41.19,3.15,61.78,4.73,0,.45-.02.9-.03,1.35Z"/>
      <path class="cls-1" d="m70.18,101.43c15.61,4.91,31.23,9.81,46.84,14.72-.18.58-.36,1.16-.54,1.73-15.6-4.95-31.2-9.89-46.8-14.84.17-.54.33-1.07.5-1.61Z"/>
      <path class="cls-1" d="m306.71,143.11c17.46-1.12,34.93-2.23,52.39-3.35.04.58.08,1.16.12,1.74-17.47,1-34.94,2.01-52.41,3.01-.03-.47-.07-.93-.1-1.4Z"/>
      <path class="cls-1" d="m273.8,137.64c15.17-2.71,30.34-5.42,45.5-8.12.11.56.21,1.12.32,1.68l-45.49,8.22c-.11-.59-.22-1.19-.33-1.78Z"/>
      <path class="cls-1" d="m153.88,122.73l-47.31-19.68c.21-.52.43-1.04.64-1.57,15.76,6.58,31.52,13.16,47.28,19.74-.21.5-.41,1-.62,1.5Z"/>
      <path class="cls-1" d="m260.36,242.4c6.18,15,12.35,30,18.53,45l-1.51.62c-6.21-14.98-12.43-29.97-18.64-44.95.54-.22,1.08-.44,1.62-.66Z"/>
      <path class="cls-1" d="m75.93,46.82c13.77,9.6,27.55,19.21,41.32,28.81-.29.43-.59.86-.88,1.29-13.79-9.55-27.59-19.1-41.38-28.65.31-.48.63-.97.94-1.45Z"/>
      <path class="cls-1" d="m198.34,252.77c-3.08,15.42-6.16,30.84-9.24,46.27l-1.66-.33c3.08-15.46,6.15-30.92,9.23-46.38.56.15,1.11.3,1.67.44Z"/>
      <path class="cls-1" d="m279.11,10.43l-20.57,46.31c-.49-.22-.98-.43-1.47-.65,6.87-15.46,13.74-30.92,20.61-46.38.48.24.95.48,1.43.72Z"/>
      <path class="cls-1" d="m143.88,239.35c9.98-12.58,19.97-25.16,29.95-37.74.41.32.82.64,1.23.96-9.93,12.57-19.87,25.13-29.8,37.7-.46-.31-.92-.62-1.39-.92Z"/>
      <path class="cls-1" d="m302.08,200.25c-13.3-7.87-26.6-15.74-39.9-23.6.27-.47.55-.94.82-1.41,13.28,7.85,26.56,15.7,39.84,23.54-.26.49-.51.98-.77,1.47Z"/>
      <path class="cls-1" d="m177.74,241.65c-5.7,13.48-11.39,26.95-17.09,40.43-.6-.25-1.19-.51-1.79-.76,5.85-13.45,11.71-26.9,17.56-40.35l1.32.68Z"/>
      <path class="cls-1" d="m151.55,16.23c7.16,13.31,14.33,26.61,21.49,39.92-.44.23-.87.47-1.31.7-7.2-13.2-14.4-26.4-21.6-39.6.47-.34.94-.68,1.41-1.02Z"/>
      <path class="cls-1" d="m287.69,122.46c12.68-4.66,25.36-9.31,38.05-13.97.2.53.39,1.05.59,1.58-12.68,4.74-25.36,9.48-38.04,14.22-.2-.61-.39-1.22-.59-1.83Z"/>
      <path class="cls-1" d="m292.13,212.54c11.74,10.41,23.48,20.82,35.22,31.23-.32.37-.64.74-.97,1.11-11.79-10.38-23.58-20.76-35.37-31.14.37-.4.74-.8,1.11-1.2Z"/>
      <path class="cls-1" d="m325.02,128.35c13.1-2.29,26.2-4.58,39.3-6.87.1.56.2,1.12.3,1.68-13.08,2.32-26.15,4.64-39.23,6.96-.12-.59-.25-1.19-.37-1.78Z"/>
      <path class="cls-1" d="m335.6,151.57h37.48c0,.35,0,.7-.01,1.05h-37.37c-.03-.35-.06-.7-.09-1.05Z"/>
      <path class="cls-1" d="m307.24,256.24c-9.36-11.01-18.71-22.02-28.07-33.02.41-.35.81-.7,1.22-1.04,9.35,10.97,18.7,21.95,28.05,32.92-.4.38-.8.76-1.2,1.15Z"/>
      <path class="cls-1" d="m259.2,22.75l-11.64,36.93c-.53-.17-1.07-.34-1.6-.51,3.87-12.31,7.74-24.62,11.61-36.93.54.17,1.08.34,1.63.52Z"/>
      <path class="cls-1" d="m190.49,250.87c3.48-12.97,6.96-25.93,10.44-38.9.5.13,1,.27,1.5.4-3.43,12.96-6.87,25.92-10.3,38.88l-1.65-.39Z"/>
      <path class="cls-1" d="m302.9,88.95c11.62-7.92,23.25-15.84,34.87-23.77.26.38.52.75.78,1.13l-34.74,24.14c-.3-.5-.61-1.01-.91-1.51Z"/>
      <path class="cls-1" d="m207.49,77.01c-1.56-12.21-3.12-24.42-4.67-36.64.58-.08,1.15-.15,1.73-.23,1.58,12.17,3.17,24.35,4.75,36.52-.6.11-1.2.23-1.81.34Z"/>
      <path class="cls-1" d="m159.05,131.48c-12.01-3.82-24.02-7.64-36.04-11.47.18-.56.36-1.12.54-1.67,12.01,3.84,24.01,7.68,36.02,11.52-.18.54-.35,1.08-.53,1.62Z"/>
      <path class="cls-1" d="m116.26,273.57c8.07-10.17,16.14-20.35,24.21-30.52.41.32.82.64,1.23.96-8.07,10.23-16.14,20.45-24.21,30.68l-1.24-1.13Z"/>
      <path class="cls-1" d="m154.55,62.58c-8.1-11.17-16.19-22.34-24.29-33.5.4-.3.81-.6,1.21-.9,8.13,11.09,16.26,22.18,24.39,33.27-.44.38-.87.75-1.31,1.13Z"/>
      <path class="cls-1" d="m68.07,157.63c11.9-.75,23.8-1.5,35.7-2.26l.12,1.72c-11.94.77-23.87,1.54-35.81,2.31,0-.59-.01-1.19-.02-1.78Z"/>
      <path class="cls-1" d="m214.04,254.52v39.51c-.31,0-.62-.01-.93-.02v-39.32c.31-.05.62-.11.93-.16Z"/>
      <path class="cls-1" d="m239.02,98.12l14.63-33.43c.51.22,1.03.45,1.54.67-4.89,11.14-9.77,22.28-14.66,33.41-.5-.22-1.01-.44-1.51-.65Z"/>
      <path class="cls-1" d="m276.06,219.37c-7.95-9.23-15.91-18.47-23.86-27.7.41-.36.82-.72,1.23-1.08,7.93,9.24,15.86,18.47,23.78,27.71l-1.15,1.07Z"/>
      <path class="cls-1" d="m212.21,60.65V24.24c.15-.02.31-.04.46-.06.51,12.14,1.02,24.27,1.54,36.41-.66.02-1.33.03-1.99.05Z"/>
      <path class="cls-1" d="m267.78,113.1c9.87-6.66,19.74-13.33,29.6-19.99.32.46.63.92.95,1.39-9.87,6.66-19.74,13.31-29.62,19.97-.31-.46-.63-.91-.94-1.37Z"/>
      <path class="cls-1" d="m331.27,188.29l-30.51-10.23c.18-.52.36-1.05.53-1.57,10.18,3.37,20.36,6.74,30.53,10.11-.19.56-.37,1.13-.56,1.69Z"/>
      <path class="cls-1" d="m63.43,204.11c11.67-4.26,23.34-8.52,35.02-12.79.17.48.35.96.52,1.44-11.77,4.33-23.54,8.65-35.3,12.98-.08-.54-.15-1.09-.23-1.63Z"/>
      <path class="cls-1" d="m300.08,145.09c-10.4.6-20.79,1.19-31.19,1.79-.04-.56-.08-1.12-.12-1.67,10.39-.64,20.78-1.29,31.18-1.93.04.6.09,1.21.13,1.81Z"/>
      <path class="cls-1" d="m300.23,157.11c-10.37-.7-20.75-1.4-31.12-2.1.04-.58.08-1.16.12-1.74,10.37.72,20.75,1.44,31.12,2.15-.04.56-.08,1.12-.12,1.68Z"/>
      <path class="cls-1" d="m157.36,160.64c-10.42,1.85-20.83,3.71-31.25,5.56-.11-.59-.22-1.17-.33-1.76l31.25-5.56c.11.59.22,1.17.33,1.76Z"/>
      <path class="cls-1" d="m287.74,60.62c7.61-9.42,15.23-18.83,22.84-28.25.4.32.79.63,1.19.95-7.62,9.41-15.24,18.82-22.86,28.23-.39-.31-.78-.62-1.16-.93Z"/>
      <path class="cls-1" d="m293.22,252.36c6.19,8.64,12.39,17.28,18.58,25.92-.48.34-.96.68-1.44,1.03l-18.45-26.09c.43-.29.87-.58,1.3-.86Z"/>
      <path class="cls-1" d="m146.73,215.63c-6.89,7.36-13.77,14.72-20.66,22.08-.06-.06-.12-.12-.18-.17,6.97-7.27,13.94-14.55,20.91-21.82-.03-.03-.06-.06-.08-.08Z"/>
      <path class="cls-1" d="m201.97,34.65c-1.25-9.38-2.51-18.77-3.76-28.15.6-.09,1.21-.18,1.81-.27,1.22,9.39,2.45,18.79,3.67,28.18-.57.08-1.15.16-1.72.24Z"/>
      <path class="cls-1" d="m337.06,188.75c10.16,3.45,20.32,6.91,30.47,10.36-.18.53-.36,1.05-.54,1.58-10.14-3.49-20.29-6.99-30.43-10.48.17-.49.33-.97.5-1.46Z"/>
      <path class="cls-1" d="m330.46,106.77c10.2-3.66,20.39-7.32,30.59-10.98.18.5.36,1,.53,1.5-10.2,3.67-20.39,7.33-30.59,11-.18-.51-.36-1.02-.54-1.53Z"/>
      <path class="cls-1" d="m300.1,281.21c-5.49-9.12-10.98-18.24-16.46-27.37.42-.26.85-.52,1.27-.78,5.56,9.08,11.12,18.16,16.68,27.24-.5.3-.99.61-1.49.91Z"/>
      <path class="cls-1" d="m307.8,54.22c-6.9,7.27-13.81,14.54-20.71,21.81-.38-.35-.77-.7-1.15-1.05,6.91-7.3,13.82-14.6,20.72-21.9l1.14,1.14Z"/>
      <path class="cls-1" d="m272.49,236.15c-5.95-9.35-11.89-18.7-17.84-28.05.38-.25.76-.49,1.14-.74,6.02,9.26,12.03,18.52,18.05,27.78-.45.34-.91.68-1.36,1.01Z"/>
      <path class="cls-1" d="m282.59,179.92c8.98,4.61,17.95,9.21,26.93,13.82-.23.48-.46.96-.7,1.44-8.96-4.59-17.92-9.18-26.88-13.76.22-.5.44-1,.65-1.5Z"/>
      <path class="cls-1" d="m273.82,79.74c-5.99,7.48-11.99,14.96-17.98,22.44-.41-.33-.83-.65-1.24-.98l17.98-22.54c.41.36.83.72,1.24,1.08Z"/>
      <path class="cls-1" d="m120.12,52.84c-5.37-5.76-10.74-11.53-16.11-17.29.12-.12.25-.24.37-.35,5.72,5.43,11.45,10.85,17.17,16.28-.48.46-.95.91-1.43,1.37Z"/>
      <path class="cls-1" d="m221.99.02v26.25h-.71V0c.24,0,.47.01.71.02Z"/>
      <path class="cls-1" d="m172.38,190.22c-6.74,7.88-13.47,15.76-20.21,23.63-.25-.25-.5-.5-.75-.75,7.34-7.32,14.68-14.64,22.02-21.96-.35-.31-.7-.61-1.06-.92Z"/>
      <path class="cls-1" d="m179.21,291.4c2.58-8.84,5.15-17.68,7.73-26.52.54.16,1.07.32,1.61.47-2.56,8.84-5.13,17.69-7.69,26.53-.55-.16-1.1-.32-1.65-.49Z"/>
      <path class="cls-1" d="m112.6,24.81c6.15,7.23,12.31,14.45,18.46,21.68-.43.37-.87.75-1.3,1.12-6.11-7.25-12.22-14.5-18.33-21.76.39-.35.78-.69,1.17-1.04Z"/>
      <path class="cls-1" d="m197.35,248.05c2.08-10.67,4.16-21.35,6.24-32.02.4.07.8.15,1.2.22-1.97,10.68-3.94,21.36-5.91,32.04-.51-.08-1.02-.16-1.54-.24Z"/>
      <path class="cls-1" d="m227.49,218.45c.93,8.56,1.86,17.12,2.78,25.68-.56.07-1.12.13-1.69.2-.97-8.54-1.94-17.09-2.91-25.63.61-.08,1.21-.16,1.82-.24Z"/>
      <path class="cls-1" d="m74.33,63.16c7.89,4.71,15.77,9.41,23.66,14.12-.27.45-.54.91-.81,1.36-7.95-4.73-15.91-9.46-23.86-14.19.34-.43.68-.86,1.01-1.29Z"/>
      <path class="cls-1" d="m336.99,208.91c-8.05-3.96-16.09-7.93-24.14-11.89.22-.45.43-.9.65-1.35,8.07,3.91,16.14,7.82,24.21,11.72-.24.5-.49,1.01-.73,1.51Z"/>
      <path class="cls-1" d="m339.1,219.81c7.58,4.09,15.16,8.18,22.74,12.28-.26.48-.52.96-.78,1.44-7.57-4.07-15.13-8.15-22.7-12.22.24-.5.49-1,.73-1.5Z"/>
      <path class="cls-1" d="m236.4,89.24c2.6-8.05,5.21-16.09,7.81-24.14l1.55.5c-2.61,8.1-5.22,16.2-7.83,24.29l-1.53-.66Z"/>
      <path class="cls-1" d="m273.58,166.61c7.72,2.76,15.45,5.53,23.17,8.29-.19.54-.39,1.08-.58,1.62-7.73-2.76-15.45-5.52-23.18-8.28.19-.54.39-1.09.58-1.63Z"/>
      <path class="cls-1" d="m72.45,124.11c10.19,1.52,20.38,3.03,30.56,4.55-.08.5-.15,1-.23,1.5-10.16-1.7-20.32-3.41-30.48-5.11.05-.31.1-.63.14-.94Z"/>
      <path class="cls-1" d="m311.57,258.86c4.97,5.84,9.94,11.67,14.91,17.51-.4.34-.79.68-1.19,1.02-4.98-5.83-9.97-11.65-14.95-17.48.41-.35.82-.7,1.23-1.06Z"/>
      <path class="cls-1" d="m186.38,85.32c-4.12-7.96-8.23-15.92-12.35-23.89.44-.22.87-.45,1.31-.67,4.17,7.93,8.34,15.85,12.51,23.78l-1.46.78Z"/>
      <path class="cls-1" d="m233.4,289.88c-.8-7.82-1.61-15.63-2.41-23.45.56-.06,1.12-.12,1.69-.18.82,7.87,1.63,15.74,2.45,23.61-.57,0-1.15.01-1.72.02Z"/>
      <path class="cls-1" d="m190.92,21.68c1.65,8.96,3.3,17.91,4.95,26.87-.47.09-.94.19-1.42.28l-5.05-26.93c.51-.07,1.01-.15,1.52-.22Z"/>
      <path class="cls-1" d="m74.32,240.39c7.03-4.4,14.07-8.8,21.1-13.2.29.47.59.93.88,1.4-7.04,4.38-14.09,8.77-21.13,13.15-.28-.45-.56-.9-.84-1.34Z"/>
      <path class="cls-1" d="m137.23,19.54c5.06,7.64,10.11,15.28,15.17,22.92-.47.3-.94.6-1.41.9-4.91-7.73-9.83-15.46-14.74-23.2.33-.21.65-.42.98-.63Z"/>
      <path class="cls-1" d="m160.03,67.5c4.94,7.06,9.88,14.13,14.82,21.19-.37.26-.75.52-1.12.78-5.02-7.02-10.04-14.05-15.06-21.07.45-.3.9-.6,1.35-.91Z"/>
      <path class="cls-1" d="m122.78,132.06c6.55,1.12,13.11,2.25,19.66,3.37-.09.54-.18,1.09-.27,1.63-6.56-1.08-13.12-2.16-19.68-3.23.1-.59.2-1.17.3-1.76Z"/>
      <path class="cls-1" d="m342.5,61.81c6.01-4.51,12.01-9.03,18.02-13.54.32.42.64.85.96,1.27-6.02,4.5-12.03,9-18.05,13.5-.31-.41-.62-.82-.92-1.23Z"/>
      <path class="cls-1" d="m234.39,73.66l-4.02,20.61c-.52-.09-1.04-.19-1.55-.28,1.28-6.85,2.56-13.69,3.84-20.54.58.07,1.16.13,1.74.2Z"/>
      <path class="cls-1" d="m152.45,71.82c4.79,5.56,9.58,11.13,14.37,16.69-.37.33-.74.67-1.11,1-4.81-5.5-9.62-11.01-14.43-16.51.39-.39.78-.78,1.18-1.17Z"/>
      <path class="cls-1" d="m93.46,147.92h-17.57c0-.32.02-.64.03-.97h17.6c-.02.32-.04.64-.06.97Z"/>
      <path class="cls-1" d="m250.97,218.88c2.64,6.47,5.28,12.94,7.91,19.41-.5.21-.99.41-1.49.62-2.65-6.45-5.3-12.9-7.94-19.36.51-.22,1.01-.45,1.52-.67Z"/>
      <path class="cls-1" d="m284.76,78.74c-4.6,5-9.2,10.01-13.8,15.01-.41-.38-.82-.76-1.23-1.14,4.63-5.01,9.27-10.02,13.9-15.04.38.39.76.78,1.13,1.17Z"/>
      <path class="cls-1" d="m236.16,225.47c-1.95-6.92-3.89-13.85-5.84-20.77.54-.15,1.07-.31,1.61-.46,1.93,6.93,3.86,13.86,5.79,20.79-.52.15-1.04.3-1.56.45Z"/>
      <path class="cls-1" d="m108.06,253.36c4.47-4.82,8.93-9.63,13.4-14.45.39.36.78.73,1.17,1.09-4.51,4.79-9.02,9.58-13.53,14.37-.35-.34-.7-.68-1.04-1.02Z"/>
      <path class="cls-1" d="m331.81,235.08c-5.1-4.08-10.2-8.15-15.3-12.23.3-.38.6-.76.89-1.15,5.18,3.99,10.35,7.98,15.53,11.97-.37.47-.74.94-1.11,1.41Z"/>
      <path class="cls-1" d="m214.85,225.2v-17.84c.31.01.62.02.94.04v17.79c-.31,0-.62,0-.94,0Z"/>
      <path class="cls-1" d="m313.25,46.21c4.98-5.32,9.96-10.63,14.93-15.95.36.33.73.66,1.09.99l-14.99,15.9c-.34-.31-.69-.63-1.03-.94Z"/>
      <path class="cls-1" d="m160.7,55.35c3.55,5.45,7.1,10.89,10.66,16.34-.43.28-.87.57-1.3.85-3.55-5.44-7.11-10.89-10.66-16.33.44-.29.87-.58,1.31-.86Z"/>
      <path class="cls-1" d="m179.57,233.51c2.59-5.51,5.18-11.01,7.77-16.52.47.22.94.44,1.41.66l-7.65,16.57-1.53-.72Z"/>
      <path class="cls-1" d="m301.51,100.33c-6.78,4.05-13.56,8.1-20.34,12.16-.22-.37-.44-.74-.66-1.11,6.72-4.14,13.44-8.28,20.16-12.41.28.46.57.91.85,1.37Z"/>
      <path class="cls-1" d="m313.5,204.98c5.85,3.39,11.69,6.78,17.54,10.17-.25.45-.5.9-.75,1.34-5.86-3.37-11.71-6.75-17.57-10.12.26-.46.52-.92.78-1.39Z"/>
      <path class="cls-1" d="m91.13,96.91c-5.12-2.29-10.24-4.57-15.36-6.86.2-.45.4-.9.6-1.36,5.17,2.22,10.34,4.45,15.51,6.67-.25.51-.5,1.03-.75,1.54Z"/>
      <path class="cls-1" d="m337.69,237.44c5.28,3.94,10.57,7.89,15.85,11.83-.3.4-.6.8-.9,1.21l-15.99-11.78c.35-.42.69-.84,1.04-1.26Z"/>
      <path class="cls-1" d="m268.08,97.47c-4.18,3.58-8.36,7.16-12.53,10.73.03.05.05.1.08.15,4.24-3.48,8.48-6.96,12.72-10.43-.09-.15-.18-.3-.27-.45Z"/>
      <path class="cls-1" d="m182.72,92.86c-2.96-4.82-5.91-9.63-8.87-14.45.41-.26.82-.52,1.23-.78,2.99,4.78,5.99,9.55,8.98,14.33-.45.3-.89.6-1.34.9Z"/>
      <path class="cls-1" d="m211.02,13.93V.16c.25,0,.5.02.75.03v13.79c-.25-.01-.5-.03-.75-.04Z"/>
      <path class="cls-1" d="m356.53,171.81c5.33.88,10.66,1.76,15.99,2.64-.09.52-.17,1.05-.26,1.57-5.33-.88-10.66-1.77-15.99-2.65.09-.52.17-1.04.26-1.57Z"/>
      <path class="cls-1" d="m187.24,1.71l2.49,14.25c-.54.1-1.09.2-1.63.29l-2.45-14.25c.53-.1,1.06-.19,1.59-.29Z"/>
      <path class="cls-1" d="m92.4,242.83l-12.36,8.47c-.31-.44-.62-.87-.92-1.31,4.13-2.82,8.25-5.64,12.38-8.46.3.43.61.87.91,1.3Z"/>
      <path class="cls-1" d="m333.36,249.08c3.89,3.32,7.78,6.64,11.67,9.96-.36.42-.72.84-1.07,1.25l-11.49-10.27c.3-.32.6-.63.89-.95Z"/>
      <path class="cls-1" d="m213.66,83.23v-13.67c.29-.03.58-.05.88-.08l.92,13.67c-.6.02-1.2.05-1.8.07Z"/>
      <path class="cls-1" d="m342.18,209.77l13.76,7.09c-.24.48-.49.97-.73,1.45-4.61-2.35-9.23-4.71-13.84-7.06.27-.49.54-.99.82-1.48Z"/>
      <path class="cls-1" d="m367.38,133.44c-4.44.31-8.88.63-13.32.94-.06-.53-.11-1.06-.17-1.59,4.41-.33,8.82-.67,13.23-1,.09.55.18,1.1.26,1.65Z"/>
      <path class="cls-1" d="m202.76,88.27c-1.16-4.24-2.32-8.49-3.47-12.73.62-.16,1.24-.33,1.85-.49,1.02,4.28,2.05,8.56,3.07,12.83-.48.13-.97.26-1.45.39Z"/>
      <path class="cls-1" d="m64.36,186.83c4.32-1.14,8.64-2.29,12.97-3.43.15.48.29.97.44,1.45-4.29,1.18-8.58,2.36-12.87,3.54-.18-.52-.35-1.04-.53-1.55Z"/>
      <path class="cls-1" d="m148.39,154.45c-4.35.29-8.7.58-13.05.88-.04-.59-.08-1.18-.12-1.77,4.35-.27,8.7-.53,13.05-.8.04.56.08,1.12.12,1.69Z"/>
      <path class="cls-1" d="m103.23,43.17c4.05,3.64,8.1,7.29,12.15,10.93-.36.39-.73.78-1.09,1.17-4-3.73-8.01-7.46-12.01-11.19.32-.31.63-.61.95-.92Z"/>
      <path class="cls-1" d="m257.15,88.41c2.84-4,5.67-8,8.51-12,.42.28.83.57,1.25.85-2.77,4.07-5.53,8.14-8.3,12.22-.49-.35-.98-.71-1.46-1.06Z"/>
    </g>
  </g>
</svg>