<?xml version="1.0" encoding="UTF-8" standalone="no"?>
<!DOCTYPE svg PUBLIC "-//W3C//DTD SVG 1.1//EN" "http://www.w3.org/Graphics/SVG/1.1/DTD/svg11.dtd">
<svg xmlns="http://www.w3.org/2000/svg" version="1.1" viewBox="0.00 0.00 149.00 150.00">
<g stroke-width="2.00" fill="none" stroke-linecap="butt">
<path stroke="#ededed" vector-effect="non-scaling-stroke" d="
  M 149.01 74.65
  A 74.43 74.43 0.0 0 0 74.58 0.22
  A 74.43 74.43 0.0 0 0 0.15 74.65
  A 74.43 74.43 0.0 0 0 74.58 149.08
  A 74.43 74.43 0.0 0 0 149.01 74.65"
/>
<path stroke="#6e6e6e" vector-effect="non-scaling-stroke" d="
  M 92.43 103.53
  L 64.12 75.37
  Q 63.82 75.07 64.20 74.68
  Q 78.06 60.80 91.94 46.93
  C 93.40 45.48 93.39 42.67 92.12 40.97
  C 88.78 36.52 84.98 39.18 81.86 42.29
  Q 68.04 56.01 54.16 69.68
  C 51.31 72.49 49.47 75.52 52.71 78.79
  Q 68.22 94.41 83.83 109.92
  C 88.11 114.18 93.92 110.42 92.92 104.48
  Q 92.82 103.93 92.43 103.53"
/>
</g>
<path fill="#ffffff" d="
  M 0.00 0.00
  L 149.00 0.00
  L 149.00 150.00
  L 0.00 150.00
  L 0.00 0.00
  Z
  M 149.01 74.65
  A 74.43 74.43 0.0 0 0 74.58 0.22
  A 74.43 74.43 0.0 0 0 0.15 74.65
  A 74.43 74.43 0.0 0 0 74.58 149.08
  A 74.43 74.43 0.0 0 0 149.01 74.65
  Z"
/>
<path fill="#dbdbdb" d="
  M 149.01 74.65
  A 74.43 74.43 0.0 0 1 74.58 149.08
  A 74.43 74.43 0.0 0 1 0.15 74.65
  A 74.43 74.43 0.0 0 1 74.58 0.22
  A 74.43 74.43 0.0 0 1 149.01 74.65
  Z
  M 92.43 103.53
  L 64.12 75.37
  Q 63.82 75.07 64.20 74.68
  Q 78.06 60.80 91.94 46.93
  C 93.40 45.48 93.39 42.67 92.12 40.97
  C 88.78 36.52 84.98 39.18 81.86 42.29
  Q 68.04 56.01 54.16 69.68
  C 51.31 72.49 49.47 75.52 52.71 78.79
  Q 68.22 94.41 83.83 109.92
  C 88.11 114.18 93.92 110.42 92.92 104.48
  Q 92.82 103.93 92.43 103.53
  Z"
/>
<path fill="#000000" d="
  M 64.12 75.37
  L 92.43 103.53
  Q 92.82 103.93 92.92 104.48
  C 93.92 110.42 88.11 114.18 83.83 109.92
  Q 68.22 94.41 52.71 78.79
  C 49.47 75.52 51.31 72.49 54.16 69.68
  Q 68.04 56.01 81.86 42.29
  C 84.98 39.18 88.78 36.52 92.12 40.97
  C 93.39 42.67 93.40 45.48 91.94 46.93
  Q 78.06 60.80 64.20 74.68
  Q 63.82 75.07 64.12 75.37
  Z"
/>
</svg>
