<?xml version="1.0" encoding="UTF-8" standalone="no"?>
<!DOCTYPE svg PUBLIC "-//W3C//DTD SVG 1.1//EN" "http://www.w3.org/Graphics/SVG/1.1/DTD/svg11.dtd">
<svg xmlns="http://www.w3.org/2000/svg" version="1.1" viewBox="0.00 0.00 149.00 150.00">
<g stroke-width="2.00" fill="none" stroke-linecap="butt">
<path stroke="#ededed" vector-effect="non-scaling-stroke" d="
  M 100.8413 144.2671
  A 74.46 74.37 69.2 0 0 143.9230 48.2507
  A 74.46 74.37 69.2 0 0 47.9587 5.0529
  A 74.46 74.37 69.2 0 0 4.8770 101.0693
  A 74.46 74.37 69.2 0 0 100.8413 144.2671"
/>
<path stroke="#6e6e6e" vector-effect="non-scaling-stroke" d="
  M 62.23 52.34
  C 69.97 59.23 77.13 67.02 84.27 74.13
  Q 85.18 75.04 84.27 75.95
  L 56.55 103.55
  Q 56.22 103.88 56.12 104.35
  C 54.96 110.20 60.72 114.24 65.04 110.04
  Q 71.83 103.43 96.54 78.53
  C 99.26 75.80 97.69 72.52 95.20 70.08
  Q 80.60 55.69 66.05 41.24
  C 60.78 36.01 53.03 40.71 56.79 46.55
  C 57.58 47.78 60.45 50.75 62.23 52.34"
/>
</g>
<path fill="#ffffff" d="
  M 0.00 0.00
  L 149.00 0.00
  L 149.00 150.00
  L 0.00 150.00
  L 0.00 0.00
  Z
  M 100.8413 144.2671
  A 74.46 74.37 69.2 0 0 143.9230 48.2507
  A 74.46 74.37 69.2 0 0 47.9587 5.0529
  A 74.46 74.37 69.2 0 0 4.8770 101.0693
  A 74.46 74.37 69.2 0 0 100.8413 144.2671
  Z"
/>
<path fill="#dbdbdb" d="
  M 100.8413 144.2671
  A 74.46 74.37 69.2 0 1 4.8770 101.0693
  A 74.46 74.37 69.2 0 1 47.9587 5.0529
  A 74.46 74.37 69.2 0 1 143.9230 48.2507
  A 74.46 74.37 69.2 0 1 100.8413 144.2671
  Z
  M 62.23 52.34
  C 69.97 59.23 77.13 67.02 84.27 74.13
  Q 85.18 75.04 84.27 75.95
  L 56.55 103.55
  Q 56.22 103.88 56.12 104.35
  C 54.96 110.20 60.72 114.24 65.04 110.04
  Q 71.83 103.43 96.54 78.53
  C 99.26 75.80 97.69 72.52 95.20 70.08
  Q 80.60 55.69 66.05 41.24
  C 60.78 36.01 53.03 40.71 56.79 46.55
  C 57.58 47.78 60.45 50.75 62.23 52.34
  Z"
/>
<path fill="#000000" d="
  M 62.23 52.34
  C 60.45 50.75 57.58 47.78 56.79 46.55
  C 53.03 40.71 60.78 36.01 66.05 41.24
  Q 80.60 55.69 95.20 70.08
  C 97.69 72.52 99.26 75.80 96.54 78.53
  Q 71.83 103.43 65.04 110.04
  C 60.72 114.24 54.96 110.20 56.12 104.35
  Q 56.22 103.88 56.55 103.55
  L 84.27 75.95
  Q 85.18 75.04 84.27 74.13
  C 77.13 67.02 69.97 59.23 62.23 52.34
  Z"
/>
</svg>
