<?xml version="1.0" encoding="UTF-8"?>
<svg id="_Слой_2" data-name="Слой 2" xmlns="http://www.w3.org/2000/svg" viewBox="0 0 636.89 663.57">
  <defs>
    <style>
      .cls-1 {
        fill: #fff;
      }
    </style>
  </defs>
  <g id="_Слой_1-2" data-name="Слой 1">
    <g>
      <path class="cls-1" d="m83.55,329.83c-.31-24.51,3.69-48.35,10.99-71.49,12.42-39.43,33.8-73.29,64.7-101.13,15.69-14.14,32.91-25.98,51.67-35.29,12.17-6.04,25.23-10.52,38.25-14.56,11.41-3.54,23.31-5.56,35.01-8.14,16.37-3.61,33.01-4.57,49.68-3.71,9.18.47,18.32,2.13,27.43,3.58,7.37,1.18,14.78,2.4,21.95,4.41,8.19,2.3,16.37,4.96,24.13,8.44,14.76,6.62,29.61,13.3,42.43,23.41,11.44,9.01,22.97,17.99,33.64,27.87,13.45,12.45,24.48,27.11,34.18,42.64,10.58,16.95,19.66,34.72,24.74,54.16,3.66,14.03,7.63,28.13,9.41,42.45,1.64,13.25,1.38,26.89.43,40.25-1.03,14.46-2.89,29-6.07,43.12-5.41,24.06-14.62,46.84-28.38,67.46-7.64,11.45-15.46,22.92-24.46,33.29-19.29,22.22-42.16,40.22-68.88,52.83-12.32,5.81-24.9,11.32-37.82,15.57-10.01,3.29-20.67,4.78-31.15,6.41-10.41,1.62-20.91,2.95-31.42,3.43-7.93.36-15.95-.55-23.88-1.37-10.95-1.13-22.12-1.68-32.71-4.37-13.59-3.46-26.83-8.46-40-13.41-26.95-10.13-49.99-26.42-70.8-46.08-23.68-22.37-41.71-48.6-54.37-78.62-7.4-17.54-12.7-35.7-15.58-54.44-1.86-12.11-2.13-24.47-3.12-36.72Zm235.92,223.55c.06.51.12,1.01.19,1.52,14.2-1.82,28.39-3.75,42.61-5.42,12.17-1.43,23.41-5.79,34.87-9.79,14.64-5.12,28.15-12.31,41.14-20.52,30.8-19.45,55.24-45.3,73.69-76.51,18.01-30.47,27.76-63.84,30.23-99.11,1.95-27.73-1.82-55.04-10.29-81.43-6.45-20.1-15.7-39.06-27.63-56.67-25.92-38.28-59.9-66.69-102.85-83.89-11.15-4.47-22.99-7.51-34.76-10.07-11.98-2.61-24.21-4.57-36.43-5.4-9.81-.67-19.8.46-29.65,1.38-10.78,1.01-21.66,1.95-32.19,4.31-10.11,2.26-19.82,6.27-29.7,9.55-14.41,4.78-27.58,12.02-40.39,20.06-23.37,14.67-43.12,33.29-59.48,55.4-16.39,22.14-28.73,46.42-35.55,73.19-2.97,11.66-5.77,23.55-6.66,35.49-1.14,15.36-1.14,30.93-.02,46.29.93,12.73,3.45,25.48,6.6,37.88,5.66,22.3,14.95,43.27,28.13,62.15,8.66,12.4,18.07,24.47,28.49,35.4,14.12,14.8,30.39,27.19,48.41,37.16,14.02,7.75,28.39,14.66,43.86,18.98,8.43,2.36,16.96,4.52,25.57,6.07,9.69,1.74,19.51,2.84,29.31,3.9,4.12.44,8.32.07,12.49.07Z"/>
      <path class="cls-1" d="m72.79,349.65c-.46,4.94-.8,9.9-1.43,14.82-.64,5.04-3.68,6.51-8.71,4.49-26.42-10.61-45.28-28.94-56.54-55.14-6.55-15.24-7.82-30.78-3.9-46.92,1.09-4.49,3.92-4.26,6.67-3.13,17.91,7.37,33.85,17.45,45.67,33.31,11.66,15.63,18.16,32.89,18.23,52.56Z"/>
      <path class="cls-1" d="m100.93,453.65c-1.46.31-3.04,1.04-4.55.92-24.23-1.97-44.79-11.75-62.1-28.82-13.18-13.01-22.23-28.05-24.74-46.64-.07-.49-.18-1-.14-1.49.31-3.59-.31-7.79,1.4-10.5.86-1.36,6.02-.2,9.2.13,15.67,1.63,29.93,7.23,42.83,16.08,20.52,14.06,32.71,33.67,37.3,58.01.7,3.71.51,7.58.79,12.33Z"/>
      <path class="cls-1" d="m67.86,291.02c-15.54-9.77-26.96-23.09-34.4-39.54-5.12-11.32-8.68-23.09-9.46-35.84-.81-13.23.64-25.7,6.41-37.59,5.37-11.05,5.75-11.02,15.26-3.29,19.24,15.64,31.04,35.78,34.32,60.2,2.44,18.18-.54,35.96-9.31,52.41-.72,1.36-1.9,2.48-2.82,3.65Z"/>
      <path class="cls-1" d="m568.48,291.74c-6.92-10.68-10.62-22.04-12.03-34.06-1.81-15.52.21-30.79,6.16-45.15,4.83-11.68,12.1-22.11,21.21-31.02,3.71-3.63,8.08-6.58,11.7-10.29,2.9-2.96,4.81-1.91,6.68.68,5.5,7.61,8.96,16.28,9.92,25.42,2.51,23.94-2.17,46.37-15.71,66.74-7.34,11.04-16.45,20.09-27.93,27.68Z"/>
      <path class="cls-1" d="m630.27,374.91c-.67,12.79-4.71,24.35-11.73,35.15-11.95,18.39-28.63,30.9-48.53,38.92-8.2,3.3-17.48,4.01-26.33,5.56-3.38.59-5.83-.6-5.14-5.01,2.05-13.08,4.81-25.87,11.75-37.43,9.82-16.34,23.34-28.49,40.49-36.73,11.23-5.4,23.31-7.63,35.48-9.35,1.18-.17,3.33,1.62,3.85,2.96.67,1.73.16,3.93.16,5.93Z"/>
      <path class="cls-1" d="m172.01,585.6c-24.16.52-45.14-7.3-62.68-24.08-1.06-1.01-1.94-2.21-3.02-3.19-3.18-2.89-2-5,1.06-6.94,9.89-6.26,19.84-12.33,31.72-14.19,6.94-1.08,13.88-3.68,20.75-3.47,23.06.72,44.92,5.46,61.45,23.54,2.31,2.52,4.38,5.32,6.12,8.25.52.87.01,3.22-.82,3.89-7.53,6.02-16.1,10.05-25.53,12.03-9.54,2-19.15,3.69-28.73,5.51-.11-.45-.22-.9-.32-1.35Z"/>
      <path class="cls-1" d="m567.1,372.24c-4.13-12.3-3.47-23.93-2.05-35.38.82-6.63,2.9-13.31,5.57-19.46,9.5-21.91,25.02-38.19,46.93-48.14,3.66-1.66,7.26-3.45,10.86-5.24,3.22-1.6,4.94-.3,5.83,2.83,3.69,12.92,3.53,25.83-.48,38.62-7.3,23.27-21.53,41.53-41.69,54.86-7.5,4.95-16.33,7.88-24.96,11.93Z"/>
      <path class="cls-1" d="m469.34,585.45c-20.36.81-37.41-4.04-53.13-13.83-5.3-3.3-5.67-4.5-1.82-9.55,6.04-7.93,13.7-13.95,22.47-18.74,11.87-6.48,24.88-8.83,37.95-9.52,8.37-.44,16.89,2.16,25.35,3.35,11.81,1.66,21.72,7.44,31.49,13.83,4.07,2.67,4.45,4.76,1.28,8.23-8.35,9.11-18.58,15.47-29.85,20.1-11.32,4.65-23.12,7.38-33.74,6.13Z"/>
      <path class="cls-1" d="m68.91,463.07c25.22.65,45.5,7.64,62.99,22.11,10.36,8.58,18.16,19.05,22.52,31.97.99,2.94.68,5.34-2.14,5.99-7.44,1.72-15.01,3.93-22.54,4.01-12.27.12-24.13-2.72-35.8-7.09-14.42-5.41-26.83-13.58-36.93-24.83-6.13-6.83-10.64-15.15-15.56-23-.55-.87.56-3.74,1.69-4.49,1.91-1.27,4.4-1.92,6.73-2.26,7.16-1.05,14.35-1.83,19.03-2.41Z"/>
      <path class="cls-1" d="m569.77,462.38c8.04,1.54,17.19,3.16,26.28,5.08,3.83.81,2.96,3.59,1.84,6.16-5.14,11.76-13.21,21.36-22.96,29.41-10.06,8.31-21.23,14.61-33.86,18.78-9.46,3.12-19.07,5.06-28.71,5.26-8.16.18-16.42-2.25-24.56-3.9-2.19-.45-3.54-2.11-2.52-5.2,6.39-19.41,19.62-32.82,36.99-42.54,9.19-5.14,18.92-8.96,29.52-10.27,5.54-.68,11.04-1.7,17.99-2.79Z"/>
      <path class="cls-1" d="m237.83,627.82c-16.96-1.03-30.37-3.56-42.89-10.18-3.14-1.66-2.86-3.06-1.5-5.31,8.49-14.04,20.41-24.3,35.32-30.85,7.3-3.21,14.92-6.29,22.7-7.65,8.33-1.45,17.04-1.16,25.56-.94,5.18.13,10.46,1.06,15.44,2.53,6.07,1.79,11.91,4.4,17.75,6.87,3.99,1.69,3.44,4.81,1.19,7.32-6.02,6.7-11.75,13.85-18.67,19.5-9.11,7.45-19.99,12-31.64,14.32-8.68,1.73-17.4,3.28-23.25,4.38Z"/>
      <path class="cls-1" d="m408.75,627.79c-20.37-.82-36.94-5.23-52.6-13.64-10.76-5.77-19.46-13.71-27.16-22.93-4.52-5.4-3.55-6.79,2.81-10.03,15.64-7.97,32.13-9.09,49.19-7.96,22.1,1.48,40.64,10.38,55.93,26.13,3.5,3.61,6.22,8,9.16,12.12,1.91,2.67,1.08,4.46-1.82,6.08-6.79,3.79-13.65,7.07-21.53,7.96-5.53.63-11.01,1.77-13.97,2.26Z"/>
      <path class="cls-1" d="m277.55,31.55c2.98-.78,5.49-1.7,8.07-2.07,6.03-.85,12.3-.73,18.05-2.45,2.65-.79,4.72-4.74,6.31-7.66,3.25-5.96,5.99-12.19,9.45-19.38,1.96,3.33,3.42,5.58,4.65,7.95,1.96,3.79,3.96,7.58,5.58,11.52,2.14,5.2,4.63,8.41,11.4,8.25,6.71-.16,13.47,2.19,21.81,3.73-6.31,6.12-11.41,11.43-16.91,16.28-3.58,3.16-4.28,6.81-3.51,11.08,1.19,6.66,2.47,13.29,3.88,20.79-2.37-.21-4.81.18-6.63-.7-5.31-2.55-10.26-5.86-15.58-8.36-2.17-1.02-5.43-1.75-7.37-.85-7.34,3.42-14.34,7.57-22.36,11.94,0-3.43-.33-6.41.07-9.27.73-5.22,2.21-10.34,2.74-15.57.23-2.22-.47-5.2-1.9-6.81-5.46-6.16-11.38-11.9-17.75-18.43Z"/>
      <path class="cls-1" d="m349.75,663.57c-2.66-2.25-4.69-3.86-6.6-5.6-6.9-6.34-13.88-12.6-20.56-19.17-2.13-2.1-2.96-1.26-4.61.32-7.94,7.58-15.98,15.06-24.08,22.47-1.04.96-2.65,1.3-4,1.92-.51-1.26-1.53-2.55-1.45-3.77.51-8.21.25-16.64,2.15-24.55,2.85-11.85,11.09-20.36,22.73-23.37,10.36-2.68,20.05.84,27.88,8.84,9.4,9.62,11.06,21.29,9.9,33.87-.23,2.45-.72,4.88-1.35,9.02Z"/>
      <path class="cls-1" d="m256.62,92.91c-6.28-2.97-11.65-4.96-16.39-7.94-3.56-2.23-6.33-2.02-9.73-.18-5.06,2.74-10.28,5.16-16.71,8.36,1.07-7.62,2.11-14.07,2.78-20.55.17-1.66-.35-3.88-1.41-5.07-3.21-3.59-6.92-6.72-10.27-10.19-1.37-1.42-2.32-3.23-3.85-5.41,7.46-.95,13.83-1.63,20.15-2.66,1.45-.24,3.27-1.41,3.95-2.67,2.65-4.91,4.93-10.02,7.32-15.08,1.48-3.14,3.2-3.25,4.82-.24,2.41,4.49,4.77,9.02,6.85,13.67,1.36,3.05,3.07,4.41,6.67,4.58,5.83.27,11.61,1.49,17.99,2.38-.68,1.32-1.12,2.5-1.85,3.47-.88,1.17-1.99,2.18-3.04,3.22q-11.86,11.76-8.11,27.87c.36,1.55.42,3.16.84,6.45Z"/>
      <path class="cls-1" d="m367.58,51.99c7.51-.96,14.02-1.61,20.46-2.73,1.73-.3,3.81-1.67,4.69-3.16,2.65-4.46,4.75-9.24,7.18-13.84.6-1.13,1.65-2.02,2.5-3.02.98.97,2.26,1.78,2.88,2.95,2.25,4.22,4.34,8.52,6.36,12.85,1.4,3.02,3.45,4.24,6.93,4.46,5.85.37,11.65,1.56,18.64,2.58-2.61,2.91-4.7,5.49-7.05,7.81q-10.83,10.71-7.01,25.92c.52,2.08.71,4.24,1.22,7.43-6.68-3.33-11.98-6.38-17.6-8.59-2.38-.94-5.72-.84-8.16.05-4.03,1.48-7.64,4.09-11.53,6.03-1.49.75-3.23.99-5.75,1.72,1.1-7.18,1.93-13.33,3.04-19.43.57-3.14-.53-5.15-2.79-7.23-4.65-4.27-9.01-8.85-14.01-13.81Z"/>
      <path class="cls-1" d="m194.73,88.78c-3.6,4.01-6.75,8.62-10.96,11.85-3.38,2.6-2.62,5.2-2.22,8.17.64,4.68,1.4,9.34,2.35,15.56-4.78-2.15-8.44-3.7-12-5.43-1.69-.82-3.11-2.44-4.86-2.85-1.58-.37-3.62.02-5.13.75-4.01,1.93-7.81,4.31-11.79,6.32-.91.46-2.2.18-3.87.28.8-5.65,1.87-10.95,2.13-16.29.11-2.19-1.06-4.88-2.5-6.62-2.36-2.85-5.54-5-8.14-7.68-.99-1.03-1.33-2.7-1.96-4.07,1.31-.47,2.59-1.13,3.94-1.36,4.05-.69,8.12-1.43,12.2-1.72,2.86-.21,4.15-1.22,5.1-4.05,1.22-3.64,3.4-6.97,5.22-10.41,1.71-3.24,3.59-3.08,5.33-.07,1.06,1.84,2.22,3.73,2.74,5.75,2.03,7.9,8.24,9.61,15.04,10.37,2.62.29,5.31.05,7.97.05.47.48.93.96,1.4,1.45Z"/>
      <path class="cls-1" d="m490.43,124.07c-5.1-2.49-10.15-5.13-15.36-7.39-1.44-.62-3.63-.63-5.05.02-5.02,2.26-9.85,4.92-15.99,8.06.91-6.7,1.51-12.02,2.38-17.29.54-3.25-.32-5.55-3.01-7.58-2.89-2.19-5.49-4.79-8.07-7.36-.72-.72-1.52-2.3-1.19-2.91.52-.99,1.87-1.96,2.99-2.13,5.34-.83,10.73-1.39,16.15-2.05,2.35-4.84,4.57-9.55,6.94-14.18.43-.85,1.52-2.01,2.19-1.94,1.05.11,2.35.92,2.93,1.83,1.31,2.05,2.57,4.23,3.29,6.54,2.33,7.49,8.01,9.48,14.97,9.62,1.66.03,3.35-.11,4.98.13.98.14,2.37.63,2.68,1.35.32.74-.16,2.22-.8,2.91-2.96,3.23-5.84,6.6-9.23,9.33-2.68,2.16-2.87,4.15-2.1,7.23,1.19,4.75,1.73,9.66,2.55,14.5-.42.44-.83.87-1.25,1.31Z"/>
      <path class="cls-1" d="m322.2,538.28c-14.33-1.16-25.38-1.18-36.06-3.16-11.76-2.18-23.2-6.1-34.76-9.35-15.41-4.34-29.39-11.79-42.82-20.27-24.64-15.56-45.06-35.45-61.58-59.57-13.95-20.38-23.9-42.45-29.78-66.3-2.48-10.07-4.23-20.49-4.74-30.83-.75-15.21-1.16-30.59.22-45.72,1.7-18.61,7.07-36.56,14.23-53.93,9.94-24.13,24.1-45.52,42.38-63.99,16.47-16.64,35.03-30.67,56.76-39.97,10.87-4.66,21.71-9.46,32.84-13.41,6.49-2.3,13.59-2.78,20.31-4.5,19.04-4.88,38.44-4.32,57.78-3.76,8.28.24,16.55,2.14,24.75,3.64,5.69,1.04,11.35,2.42,16.87,4.14,8.12,2.53,16.42,4.82,24.09,8.39,20.65,9.59,39.54,21.95,56.32,37.52,22.03,20.45,38.86,44.57,50.62,72.07,11.11,25.97,17.01,53.27,16.53,81.62-.25,14.57-2.3,28.98-5.39,43.36-4.69,21.82-12.97,42.03-24.06,61.15-15.07,26-35.26,47.51-59.73,64.81-15.15,10.71-31.55,19.27-49.18,25.32-10.43,3.58-20.83,6.95-31.92,8.12-12.34,1.3-24.6,3.34-33.69,4.6Zm-2.59-10.93c106.53-.8,192.94-86.92,195.69-192.56,3.01-115.27-90.75-197.71-181.18-201.18-129.29-4.96-210.76,89.24-212.45,192.19-1.87,113.55,89.94,201.06,197.95,201.55Z"/>
      <path class="cls-1" d="m304.04,372.52c0,2.74,0,5.12,0,7.49-.03,15.82-.18,31.63-.01,47.45.04,3.79-1.46,5.02-4.91,5.14-10.57.39-10.89.32-10.93-10.05-.11-26.8-.04-53.59-.04-81.14,7.13,0,13.9-.29,20.61.24,1.32.1,2.85,3.2,3.5,5.18,4.18,12.65,8.15,25.36,12.58,39.31,2.8-8.36,5.27-15.49,7.58-22.67,2.11-6.57,3.96-13.24,6.19-19.77.35-1.02,2.08-2.18,3.21-2.21,6.48-.21,12.97-.1,20.02-.1.16,1.97.41,3.72.42,5.47.06,26.14.1,52.29.1,78.43,0,6.89-.85,7.63-7.75,7.17q-8.38-.56-8.36-8.91c.03-15.82.06-31.64.06-47.45,0-1.53-.19-3.06-1.46-4.73-3.51,10.35-6.79,20.78-10.68,30.98-1.2,3.14-.57,7.95-6.53,8.28-8.27.46-9.19.17-11.71-7.56-3.25-9.97-6.73-19.85-10.14-29.76-.07-.21-.56-.27-1.74-.8Z"/>
      <path class="cls-1" d="m276.09,329.43h-46.35v-90.07c9.09,0,18.03,0,26.97,0,5.33,0,10.67.12,15.99-.04,3.06-.09,4.24,1.34,4.23,4.12-.13,28.14-.27,56.29-.42,84.43,0,.32-.16.63-.41,1.56Zm-16.08-12.39v-63.46h-13.68c-.21,1.45-.51,2.58-.51,3.72-.03,15.82-.03,31.64-.02,47.45q0,13.17,14.21,12.29Z"/>
      <path class="cls-1" d="m169.91,341.58h46.48c0,6.95.18,13.72-.2,20.45-.06.99-3.35,2.95-4.17,2.54-3.73-1.89-9.39,3.23-11.58-3.11-.56-1.62-.08-3.6-.08-5.74h-14.64c0,8.26,0,16.53,0,24.8,0,10.99.3,21.98-.1,32.96-.18,5.03,1.56,6.49,6.22,5.94,2.6-.3,5.26-.05,8.2-.05v-25.69c-2.22-.19-4.14-.35-6.66-.56v-13.56h22.73c.21,4.58.58,9.01.59,13.44.03,11.83-.22,23.65-.09,35.48.04,3.2-1.33,4.21-4.07,4.2-13.15-.02-26.3-.08-39.45-.12-3.18,0-3.76-2-3.74-4.66.05-7.16,0-14.33,0-21.49,0-19.33-.02-38.65.02-57.98,0-2.26.35-4.52.55-6.86Z"/>
      <path class="cls-1" d="m458.37,355.94c-.87-.25-1.33-.5-1.79-.5-16.15.23-12.74-2.6-13.14,12.32-.1,3.62-.01,7.25-.01,11.36h30.28c.26,2.15.64,3.89.65,5.63.04,13.99-.1,27.99.06,41.98.05,4.51-1.31,6.01-6.1,5.85-11.97-.41-23.96-.27-35.94-.02-4.08.08-5.27-1.49-5.15-5.26.18-5.77.05-11.55.05-17.89,4.76,0,8.92-.36,12.96.21,1.26.18,3.06,2.84,3.08,4.39.07,4.42,1.9,5.88,6.12,5.4,2.62-.29,5.31-.05,8.46-.05v-25.97h-30.57v-51.66h46.98c0,6.69.15,13.46-.15,20.22-.05,1.06-2.05,2.69-3.33,2.89-3.1.48-6.34.56-9.45.17-1.11-.14-2.51-1.96-2.86-3.26-.49-1.83-.12-3.88-.12-5.81Z"/>
      <path class="cls-1" d="m216.35,329.55c-10.87,0-21.16,0-31.45,0-2.17,0-4.33-.06-6.5.01-9.27.3-9.01,1.31-8.97-8.6,0-1,0-2,0-3-.14-12.61-.04-10.26,10.85-10.66,4.39-.16,6,1.67,5.85,5.77-.04,1.15.21,2.31.41,4.18,3.77,0,7.53.18,11.25-.13.92-.08,2.39-1.77,2.42-2.75.2-7.45.11-14.91.11-22.89h-30.94c0-3.77,0-7.02,0-10.28.02-12.16.16-24.32,0-36.47-.05-4.01,1.12-5.54,5.38-5.46,13.63.25,27.26.09,41.51.09v21.94h-15.68c-.14-2.43-.28-4.85-.45-7.69h-13.62v23.59h29.83v52.34Z"/>
      <path class="cls-1" d="m244.94,341.38c4.19,0,8.02.13,11.83-.04,3.16-.14,4.64,1.33,5.72,4.19,4.16,11.03,8.54,21.98,12.81,32.97.41,1.06.89,2.2.9,3.3.06,16.47.04,32.94.04,50.14-4.74,0-9.27.22-13.74-.2-.81-.08-1.93-2.78-1.96-4.28-.17-11.13-.09-22.26-.09-33.7h-15.11c0,4.08,0,8.17,0,12.25,0,7.33.13,14.66-.09,21.98-.05,1.44-1.32,3.94-2.29,4.07-3.69.52-7.51.49-11.23.15-.85-.08-2.14-2.22-2.15-3.41-.11-14.97-1.07-30.06.43-44.88.91-8.93,5.7-17.48,8.82-26.17,1.92-5.36,3.99-10.67,6.12-16.34Zm8.96,24.07l-1.59-.32c-1.79,4.54-3.59,9.08-5.47,13.86h12.45c-1.97-4.95-3.67-9.25-5.38-13.54Z"/>
      <path class="cls-1" d="m288.25,239.56h15.19c.21,2.71.6,5.43.61,8.16.02,10.15.27,20.32-.26,30.45-.54,10.48,2.4,19.87,7.84,29.4,3.19-7.75,7.57-14.6,7.25-23.42-.48-13.28-.33-26.59-.21-39.89.03-2.92,1.2-5.36,5.17-4.97,3.6.35,7.26.07,11.27.07,0,15.87.53,31.29-.26,46.64-.32,6.18-3.35,12.27-5.49,18.28-2.96,8.33-6.24,16.54-9.39,24.8-.32.11-.63.32-.94.32-5.15,0-11.36,1.7-15.15-.58-3.36-2.02-4.04-8.5-5.91-13-1.83-4.4-3.61-8.82-5.51-13.2-3.13-7.23-4.59-14.64-4.34-22.63.42-13.29.11-26.6.11-40.44Z"/>
      <path class="cls-1" d="m418.02,341.38q1.5,14.01-11.33,14.01c-4.96,0-9.91,0-15.15,0v23.76h18.7c0,4.23.28,8.02-.18,11.71-.12.99-2.43,2.35-3.81,2.44-4.77.3-9.58.12-15.01.12v25.95c7.98,0,15.28.19,22.57-.08,3.79-.14,5.31,1.24,4.8,4.87-.47,3.29,2.27,8.33-4.43,8.35-11.83.04-23.66.1-35.49.14-4.14.01-4.19-2.91-4.18-5.9.01-23.33,0-46.66,0-69.99,0-.17,0-.33,0-.5.33-4.77-1.08-11.35,1.47-13.82,2.56-2.48,9.08-.99,13.87-1.03,9.3-.08,18.59-.02,28.17-.02Z"/>
      <path class="cls-1" d="m374.44,329.39c0-7.57,0-14.53,0-21.49,0-20.49-.02-40.99,0-61.48,0-7.04.06-7.05,6.83-7.05,10.66,0,21.33-.01,31.99,0,1.62,0,3.24.14,4.61.2.31.51.46.65.46.78-.13,15.34,2.55,12.53-12.21,12.81-4.81.09-9.63.01-14.78.01v24.15h17.9c.47.72.78.97.81,1.25q1.3,12.84-11.47,12.83c-2.16,0-4.31,0-7.23,0,0,7.92-.13,15.67.18,23.4.04.88,2.54,2.31,3.94,2.37,5.99.25,12.01.35,17.98-.01,4.65-.28,5.92,1.77,5.41,5.87-.26,2.1-.49,4.2-.73,6.36h-43.7Z"/>
      <path class="cls-1" d="m442.22,253.22c-3.78,0-7.08-.07-10.38.02-3.67.09-5.63-1.3-5.35-5.27.18-2.62.03-5.26.03-8.6,3.51,0,6.78,0,10.05,0,11.15,0,22.31.18,33.45-.09,4.33-.11,5.71,1.55,5.25,5.53-.11.99-.1,2-.05,2.99.18,3.58-1.11,5.6-5.08,5.4-3.46-.18-6.93-.04-11.26-.04,0,4.6-.02,8.68,0,12.76.09,19.96.17,39.93.31,59.89.02,2.63-.64,3.83-3.65,3.88-13.17.21-13.18.31-13.17-12.86.02-19.64.07-39.28.08-58.91,0-1.31-.13-2.62-.24-4.69Z"/>
      <path class="cls-1" d="m361.96,329.76c-4.53,0-8.53.26-12.45-.16-1.18-.12-3.09-2.1-3.1-3.23-.15-20.48-.12-40.97.04-61.45.03-4.04,6.45-7.23,10.67-5.32,3.23,1.46,5.48,3.24,5.38,7.83-.4,18.81-.16,37.64-.19,56.46,0,1.63-.19,3.27-.35,5.87Z"/>
      <path class="cls-1" d="m353.22,232.09c3.17,4.25,4.6,8.52,9.66,7.61.17-.03,1.14,2.9,1.01,2.96-4.62,2.26-3.27,6.66-3.63,10.7-3.96-.94-7.77-4.53-11.23.84-1.67-5.28-3.05-9.66-4.55-14.43,4.49.13,7.93-1.36,8.75-7.69Z"/>
    </g>
  </g>
</svg>