<?xml version="1.0" encoding="UTF-8"?>
<svg id="_Слой_2" data-name="Слой 2" xmlns="http://www.w3.org/2000/svg" viewBox="0 0 1536.84 484.27">
  <defs>
    <style>
      .cls-1 {
        fill: #fff;
      }
    </style>
  </defs>
  <g id="_Слой_1-2" data-name="Слой 1">
    <g>
      <path class="cls-1" d="m484.08,243.43c2.83,126.73-110.62,241.06-237.47,240.75-105.82,3.21-211.78-70.95-237.44-174.94,28.14,9.35,54.83,23.21,82.7,33.27,7.06,2.02,9.68,6.65,11.92,12.95,11.16,31.29,40.92,49.33,72.81,45.34,32.77-3.37,59.45-31.7,60.1-65.96.08-3.78,1.31-6.33,4.24-8.42,25.23-17.93,50.35-36,75.76-53.67,35.24-4.92,67.16-15.57,84.7-49.28,27.16-44.95,5.74-107.52-42.55-127.76-42.53-19.94-94.68-2.11-117.23,38.81-7.63,12.98-10.52,27.39-12.01,42.33-.48,4.83-4,9.63-6.92,13.91-15.36,22.57-31.06,44.9-46.4,67.47-3.04,4.47-6.44,6.48-11.92,6.38-56.82,6.98-6.13,22.96-80.3-7.71-27.07-11.33-54.59-21.69-81.5-33.37-8.83-8.86,7.62-52.83,10.88-65.17C110.51-94.96,482.26-28.08,484.08,243.43Z"/>
      <path class="cls-1" d="m1378.9,227.5c0,33.37,0,66.75.08,100.12.01,3.58-1.47,5.19-5.05,5.18-8.66-.01-17.33.02-25.99.17-4.31.07-5.68-1.79-5.67-6.08.11-57.15.1-114.29,0-171.44,0-4,1.49-5.28,5.3-5.22,7.39,1.41,31.38-3.45,33.16,3.93,8.53,18.56,17.21,37.06,25.85,55.57,11.56,23.96,21.67,48.01,34,71.66,13.38-28.3,25.1-55.28,37.84-83.57,6.36-14.25,12.69-28.51,18.96-42.8,1.34-3.06,3.27-4.82,6.8-4.78,8.99.11,17.99.11,26.99.09,3.78,0,5.61,1.18,5.61,5.57-.11,56.98-.08,113.96.07,170.94.01,4.36-1.58,6.07-5.75,6.05-8.66-.03-17.32-.02-25.98.12-3.83.06-5.26-1.5-5.24-5.38-.21-34.21.77-68.49-.33-102.66-.46-.11-.92-.21-1.38-.32-14.88,31.86-30.1,63.55-44.66,95.55-3.33,7.41-3.55,6.93-11.27,7.89-10.23,1.28-15.56-2.06-19.73-11.96-13.61-29.77-26.18-60.68-42.26-89.08-.44.15-.89.29-1.33.44Z"/>
      <path class="cls-1" d="m1281.57,332.92c-6.83-1.31-18.54,3.76-21.46-4.79-2.36-7.94-5.5-15.64-8.06-23.53-2.06-6.34-2.94-7.2-9.8-7.22-19.65-.05-39.31-.02-58.96-.13-3.8-.02-5.96,1.02-7.14,5.13-2.57,8.92-5.61,17.73-9.03,26.36-.74,1.88-3.84,3.88-5.94,3.98-9.81.46-19.64.31-29.47.29-4.56,0-5.62-1.77-4.03-6.02,15.86-42.6,31.83-85.16,48.11-127.6,23.24-55.38,4.45-49.03,50.92-49.07,4.28-.03,6.73,1.19,8.37,5.84,11.23,30.15,23.42,59.98,34.75,90.12,10.49,27.1,21.1,54.15,31.56,81.25,4.01,9.12-15.09,4.03-19.81,5.27,0,.04,0,.08,0,.12Zm-67.53-136.35l-1.65.15c-8.07,21.48-14.75,43.46-22.35,65.11-1.66,4.86-1.39,5.61,3.65,5.62,13.13.03,26.27-.02,39.4-.08,4.73-.02,5.45-1.24,3.84-5.84-7.63-21.65-14.84-43.46-22.89-64.96Z"/>
      <path class="cls-1" d="m969.23,241.32c0-28.33.07-56.66-.07-84.99-.02-4.5,1.36-6.14,6.03-6.12,36.83.16,73.66.1,110.49.12,6.27,0,6.47.21,6.48,6.4.02,7.33-.03,14.66.02,21.99.02,3.07-1.02,4.38-4.42,4.36-25.16-.13-50.33,0-75.49-.13-3.73-.02-5.05,1.16-5,4.86.15,10.5.17,21-.04,31.49-.07,3.82,1.43,4.89,5.02,4.87,20.83-.1,41.66.1,62.49-.13,4.78-.05,6.03,1.58,5.81,6.1-.34,6.98-.19,14,0,20.99.1,3.99-1.16,5.57-5.47,5.52-80.46,2.88-66.56-15.62-67.81,38.11-.07,3.92,1.17,5.17,5.17,5.14,24.5-.18,48.99-.02,73.49-.2,4.64-.03,6.65,1.15,6.39,6.18-.38,7.31-.18,14.66-.03,21.99.07,3.62-1.35,5.07-5.01,5.06-36.99-.1-73.98-.11-110.98-.16-6.78,0-7.13-.39-7.13-6.97,0-28.16,0-56.33,0-84.49h.06Z"/>
      <path class="cls-1" d="m682.6,335.59c-15.19.42-30.26-.53-44.68-5.91-6.97-2.6-13.76-5.69-20.67-8.44-3.15-1.25-3.81-3.27-2.67-6.31,3.01-8.08,5.78-16.24,9.08-24.2.42-1,3.62-1.72,5.13-1.26,18.41,8.04,37.75,10.71,57.71,10.05,6.26-.03,12.32-2.63,16.89-7.54,17.5-21.52-14.58-29.87-29.8-35.76-13.65-5.18-27.86-9.22-39.67-18.22-29.91-21.95-20.76-72.11,13.9-84.33,26.74-10.12,57.21-7.95,83.01,3.63,4.22,2.56,12.9,4.86,10.88,11.24-3.68,7.07-7.77,13.93-11.74,20.85-1.72,3-3.84,3.67-7,1.71-17.3-10.66-57.51-21.14-66.9,3.65-4.8,15.72,15.53,21.53,26.77,26.37,14.21,5.92,28.95,10.74,42.65,17.66,15.6,7.88,23.37,21.37,23.29,39.38,1.21,36.23-32.83,58.48-66.16,57.44Z"/>
      <path class="cls-1" d="m870.86,258.11c0,22.66,0,45.32,0,67.98,0,6.34-.6,6.87-6.75,6.83-8.33-.05-16.67-.17-24.99.11-4.61.15-6.56-1.16-6.55-6.16.15-45.49.09-90.97.12-136.46,0-7.35.05-7.34-7.57-7.35-14.16,0-28.32-.16-42.48-.03-4.06.04-5.73-1.24-5.58-5.46.25-7.32.15-14.66.02-21.99-.06-3.76,1.29-5.37,5.27-5.36,46.32.07,92.64.04,138.95-.06,3.41,0,4.97,1.25,4.97,4.6-.01,7.83-.06,15.66.02,23.49.03,3.66-1.62,4.91-5.22,4.87-14.66-.17-29.33.03-43.98-.25-4.76-.09-6.38,1.36-6.33,6.25.22,22.99.1,45.98.1,68.98Z"/>
      <path class="cls-1" d="m321.03,239.73c-80.78-1.61-77.36-122.61,1.26-121.39,80.99,1.8,76.89,122.57-1.26,121.39Zm-.09-15.3c59.92.31,61.07-88.1,2.46-91.07-61.4-.9-61.84,90.31-2.46,91.07Z"/>
      <path class="cls-1" d="m123.63,355.75c8.61,3.53,16.4,6.34,23.84,9.86,47.64,22.92,81.22-47.06,32.9-68.6-9.18-4.27-19.23-6.54-27.49-12.56,37.41-15.83,78.94,27.72,64.22,64.3-13.41,44.36-78.75,45.62-93.47,7Z"/>
    </g>
  </g>
</svg>