<?xml version="1.0" encoding="UTF-8"?>
<svg id="_Слой_2" data-name="Слой 2" xmlns="http://www.w3.org/2000/svg" viewBox="0 0 376.77 368.16">
  <defs>
    <style>
      .cls-1 {
        fill: #fff;
      }
    </style>
  </defs>
  <g id="_Слой_1-2" data-name="Слой 1">
    <g>
      <path class="cls-1" d="m272,349.96c-4.1,9.57-10.84,15.72-20.99,17.72-1.46.29-2.98.41-4.47.41-9.5.04-19.01.14-28.51,0-14.98-.23-26.53-11.76-26.93-26.65-.38-14.39,10.54-26.72,25.15-27.49,10.59-.56,21.26-.47,31.86-.03,10.5.44,18.06,6.02,22.62,15.44.97,2,1.99,2.73,4.16,2.66,9.86-.29,19.81.29,29.58-.77,17.16-1.85,30.49-17.02,31.01-34.23.19-6.48.03-12.97.03-18.92-4.06-1.69-8-2.76-11.3-4.84-7.23-4.54-11.33-11.32-11.38-19.96-.13-24.26-.19-48.52.02-72.78.1-11.47,8-20.68,19.17-23.39.97-.23,1.93-.51,2.87-.76-1.81-64.04-55.2-133.03-137.98-137.79C112.78,13.76,46.11,78.95,41.63,156.22c1.09.31,2.24.67,3.41.96,10.88,2.69,18.81,11.98,18.91,23.23.22,24.26.32,48.53-.01,72.78-.22,16.18-14.56,26.78-31.25,23.81-17.18-3.06-30.56-15.88-31.85-33.61-1.29-17.77-.94-35.75.03-53.57.71-12.93,8.45-22.44,19.72-28.76,1.98-1.11,2.72-2.27,2.93-4.55C30.04,85.36,66.18,35.34,132.96,10.23c94.2-35.42,198.82,24.83,217.51,123.68,1.41,7.47,2.05,15.09,2.84,22.67.21,2.04.68,3.27,2.63,4.36,13.49,7.51,20.42,19.15,20.66,34.54.22,14.25.2,28.52,0,42.77-.21,15.24-7.03,26.84-20.28,34.4-2.22,1.27-2.78,2.63-2.8,4.99-.08,8.74.5,17.61-.79,26.19-4.01,26.68-26.39,45.69-53.4,46.1-9.12.14-18.24.02-27.35.02Zm58.74-133.28c0,11.38,0,22.76,0,34.13,0,.25,0,.5,0,.75.18,5.42,2.9,8.01,8.25,7.83,10.46-.35,19.34-9.07,19.56-19.96.29-15,.28-30.01,0-45.01-.19-10.42-8.52-19.11-18.38-19.97-6.45-.56-9.39,2.03-9.42,8.47-.05,11.25-.01,22.5-.01,33.76Zm-284.67.24c0-11.63.06-23.26-.03-34.88-.04-5.19-2.88-7.76-8.04-7.66-10.39.2-19.49,8.96-19.73,19.79-.32,15.12-.29,30.26,0,45.38.19,10.24,8.45,18.83,18.18,19.75,6.7.63,9.59-1.92,9.61-8.62.04-11.25.01-22.51,0-33.76Zm186.13,133.19c4.61,0,9.23.08,13.83-.02,5.52-.13,9.3-3.89,9.34-9.09.03-5.22-3.64-9.11-9.2-9.21-9.22-.16-18.45-.15-27.67,0-5.6.09-9.37,3.93-9.38,9.06,0,5.35,3.87,9.14,9.61,9.25,4.49.09,8.97.02,13.46.01Z"/>
      <path class="cls-1" d="m130.77,243.15c-6.71-2.14-13.27-3.24-18.83-6.21-13.36-7.15-19.87-18.97-19.95-34.08-.13-25.39-.25-50.77.03-76.16.25-22.97,16.63-38.89,39.65-38.94,37.88-.07,75.77-.08,113.65,0,22.84.05,39.18,15.84,39.49,38.69.34,25.51.33,51.02,0,76.53-.3,22.97-16.77,38.78-39.78,38.86-15.13.06-30.26-.08-45.38.12-1.97.03-4.39,1-5.8,2.36-10.61,10.25-20.89,20.84-31.52,31.07-9.4,9.05-24.63,6.08-29.71-5.76-1.24-2.89-1.61-6.28-1.76-9.47-.27-5.97-.08-11.95-.08-17.02Zm18.01,18.84l.91.5c.97-.9,1.97-1.77,2.92-2.71,10.55-10.48,21.18-20.9,31.6-31.51,3.13-3.19,6.51-4.53,10.97-4.48,16.25.17,32.5.07,48.74.07,14.89,0,22.96-8.04,22.98-22.9.02-24.13.02-48.26,0-72.38-.01-14.9-8-22.82-23-22.82-37,0-73.99,0-110.99,0-14.99,0-22.94,7.91-22.95,22.85-.02,24.13,0,48.26,0,72.38,0,1.62.05,3.25.23,4.86,1,9.02,7.48,16.08,16.44,17.49,3.55.56,7.22.46,10.83.5,8.33.09,11.31,2.98,11.32,11.25.02,8.97,0,17.93,0,26.9Z"/>
      <path class="cls-1" d="m188.34,152.9c-7.27.05-13.37,6.25-13.24,13.47.12,7.13,6.08,13.07,13.2,13.15,7.21.08,13.42-6.06,13.43-13.29.02-7.23-6.16-13.38-13.39-13.33Zm-56.93,13.46c.08,7.28,6.29,13.33,13.51,13.16,7.21-.17,12.95-6.06,12.97-13.28.02-7.36-5.98-13.39-13.28-13.34-7.29.05-13.28,6.15-13.2,13.46Zm114.01-.13c.01-7.29-6.08-13.37-13.34-13.32-7.18.05-13.04,5.89-13.13,13.1-.1,7.37,5.78,13.44,13.1,13.52,7.25.07,13.37-6.01,13.38-13.29Z"/>
      <path class="cls-1" d="m188.34,152.9c7.23-.05,13.41,6.1,13.39,13.33-.02,7.24-6.22,13.37-13.43,13.29-7.12-.08-13.08-6.02-13.2-13.15-.12-7.22,5.97-13.42,13.24-13.47Z"/>
      <path class="cls-1" d="m131.41,166.36c-.08-7.31,5.91-13.41,13.2-13.46,7.3-.05,13.29,5.98,13.28,13.34-.02,7.22-5.76,13.1-12.97,13.28-7.21.17-13.43-5.88-13.51-13.16Z"/>
      <path class="cls-1" d="m245.41,166.22c-.01,7.29-6.13,13.37-13.38,13.29-7.32-.08-13.2-6.14-13.1-13.52.1-7.21,5.95-13.05,13.13-13.1,7.27-.05,13.35,6.03,13.34,13.32Z"/>
    </g>
  </g>
</svg>