<?xml version="1.0" encoding="UTF-8"?>
<svg id="_Слой_2" data-name="Слой 2" xmlns="http://www.w3.org/2000/svg" viewBox="0 0 65.69 65.7">
  <defs>
    <style>
      .cls-1 {
        fill: #131612;
        fill-rule: evenodd;
      }
    </style>
  </defs>
  <g id="_Слой_1-2" data-name="Слой 1">
    <path class="cls-1" d="m29.58.16c5.53-.55,11.2.31,16.31,2.53,7.58,3.26,13.82,9.49,17.09,17.07,3.48,7.93,3.61,17.25.37,25.29-2.55,6.41-7.18,11.95-13.02,15.61-3.62,2.28-7.69,3.85-11.91,4.56-5.75.98-11.77.42-17.23-1.66-7.42-2.79-13.73-8.38-17.42-15.4C1.24,43.38-.08,37.95,0,32.53c.01-7.25,2.59-14.46,7.12-20.12C11.01,7.5,16.34,3.74,22.27,1.74c2.36-.81,4.82-1.33,7.31-1.58h0Zm1.21,2.9c-5.82.38-11.5,2.53-16.12,6.09-4.98,3.8-8.71,9.21-10.48,15.22-1.7,5.73-1.63,11.98.22,17.67,1.27,3.93,3.37,7.6,6.12,10.68,2.76,3.1,6.18,5.63,9.96,7.34,5.01,2.29,10.66,3.12,16.11,2.42,4.59-.58,9.03-2.24,12.86-4.83,5.92-3.95,10.34-10.09,12.19-16.96,1.46-5.36,1.38-11.12-.22-16.44-1.12-3.73-2.99-7.23-5.45-10.25-2.72-3.35-6.18-6.09-10.05-7.99-4.67-2.3-9.96-3.31-15.15-2.96h0Zm-2.49,4.87c4.72-.83,9.68-.28,14.09,1.59,2.2.93,4.26,2.18,6.11,3.68,3.57,2.75,6.39,6.47,8.05,10.66,1.79,4.48,2.2,9.48,1.23,14.2-.88,4.32-2.94,8.4-5.92,11.65-2.77,3.05-6.32,5.37-10.21,6.7-2.81.96-5.79,1.42-8.77,1.36-4.25-.03-8.61-1.03-12.14-3.49-3.63-2.5-6.13-6.42-7.29-10.64-1.18-4.09-.61-8.63,1.51-12.31,2.1-3.73,5.73-6.56,9.87-7.65,4.16-1.14,8.76-.53,12.46,1.69,2.01,1.19,3.78,2.81,5.09,4.75-1.62-1.62-3.66-2.83-5.89-3.38-3.89-1-8.23.05-11.23,2.74-1.62,1.43-2.86,3.29-3.56,5.34-.76,2.21-.86,4.64-.3,6.91.52,2.17,1.67,4.2,3.27,5.76,3.52,3.52,9.19,4.7,13.81,2.81,3.2-1.29,5.74-3.99,7.03-7.17,1.23-2.97,1.43-6.3.9-9.45-.63-3.86-2.56-7.51-5.46-10.14-3.04-2.81-7.06-4.48-11.17-4.83-4.18-.41-8.5.6-12.03,2.88-3.19,2.03-5.74,5.05-7.22,8.53-1.61,3.74-1.96,8-1,11.96,0,.07.02.2.03.27-2.01-4.85-2.51-10.32-1.29-15.44,1.15-5.01,3.92-9.63,7.77-13.04,3.44-3.07,7.75-5.14,12.29-5.92h0Zm-1.25,23.48c1.46-1.35,3.37-2.21,5.35-2.42,1.92-.21,3.9.17,5.59,1.1,1.67.91,3.05,2.34,3.9,4.04.93,1.83,1.22,3.97.85,5.99-.39,2.14-1.56,4.13-3.24,5.52-2.15,1.81-5.17,2.61-7.92,1.98,1.7.08,3.41-.5,4.74-1.56,1.23-.98,2.14-2.38,2.51-3.91.48-1.89.15-3.98-.91-5.63-1.06-1.68-2.83-2.89-4.79-3.24-2.13-.41-4.42.21-6.05,1.64-2.02,1.71-2.95,4.57-2.32,7.14-.64-1.34-.83-2.87-.75-4.34.16-2.39,1.27-4.69,3.04-6.3h0Zm-.73,8.69c.13-1.74,1.27-3.34,2.85-4.06-.88.66-1.52,1.66-1.62,2.77-.23,1.88,1.17,3.76,3.02,4.1,1.79.41,3.74-.7,4.34-2.42.57-1.48.06-3.23-1.13-4.24,1.26.7,2.15,1.99,2.4,3.4.19,1.13.02,2.33-.55,3.33-.73,1.32-2.09,2.27-3.58,2.49-1.47.23-3.04-.22-4.13-1.24-1.14-1.03-1.75-2.6-1.6-4.13h0Z"/>
  </g>
</svg>