<?xml version="1.0" encoding="UTF-8"?>
<svg id="_Слой_2" data-name="Слой 2" xmlns="http://www.w3.org/2000/svg" viewBox="0 0 453.54 132.5">
  <defs>
    <style>
      .cls-1 {
        fill: #fff;
      }
    </style>
  </defs>
  <g id="_Слой_1-2" data-name="Слой 1">
    <g>
      <path class="cls-1" d="m203.04,131.27c-4.02,0-7.97.02-11.92-.04-.34,0-.78-.47-.98-.83-6.08-10.73-12.14-21.47-18.21-32.21-4.59-8.13-9.18-16.26-13.78-24.39-.18-.32-.41-.62-.75-.88.86,19.43.04,38.83.4,58.28h-9.19V62.19c4.03,0,7.98-.02,11.93.04.36,0,.81.54,1.04.93,3.96,6.97,7.9,13.96,11.84,20.95,6.65,11.78,13.31,23.56,19.97,35.34.22.39.49.75.87,1.08-.79-19.42-.01-38.79-.36-58.25h9.13v68.99Z"/>
      <path class="cls-1" d="m224.51,131.21h-9.12V62.19c2.84,0,5.63,0,8.42,0,1.31,0,2.88-.39,3.87.19.99.58,1.41,2.14,2.06,3.29,10.09,17.86,20.17,35.72,30.25,53.58.26.46.56.89.98,1.28-.72-19.42,0-38.79-.33-58.25h9.1v69h-2.83c-2.72,0-5.44-.07-8.15.03-1.13.04-1.68-.39-2.21-1.33-10.35-18.4-20.73-36.77-31.11-55.15-.37-.66-.79-1.31-1.32-1.9.83,19.42.02,38.79.38,58.28Z"/>
      <path class="cls-1" d="m138.12,96.79c-.19,9.28-2.73,17.7-8.95,24.71-7,7.88-15.99,11.25-26.43,10.96-8.49-.24-15.94-3.15-22.1-9.03-5.21-4.97-8.41-11.12-9.78-18.16-1.83-9.46-1.05-18.66,3.72-27.18,6.25-11.16,16.01-16.71,28.73-17.04,9.24-.24,17.39,2.67,24.1,9.12,5.51,5.3,8.69,11.87,9.94,19.37.4,2.39.52,4.84.76,7.26Zm-9.49.03c0-3.78-.54-7.47-1.8-11.05-3.39-9.66-11.74-15.84-21.88-16.18-10.49-.35-19.2,5.15-23.23,14.73-2.47,5.87-2.92,11.98-1.92,18.22,1.99,12.29,10.93,20.76,22.5,21.35,9.04.46,16.35-2.78,21.54-10.27,3.48-5.02,4.77-10.74,4.78-16.78Z"/>
      <path class="cls-1" d="m322.58,92.95v7.6c-5.21,0-10.43,0-15.64,0s-10.45,0-15.73,0v22.22h35.26v8.45h-44.34V62.28h43.76v8.47h-34.64v22.2h31.33Z"/>
      <path class="cls-1" d="m61.41,76.85c-2.41,1.64-4.72,3.2-7.07,4.8-.98-1.45-1.87-2.91-2.9-4.25-4.2-5.5-9.95-7.74-16.72-7.82-12.88-.15-22.71,8.22-24.73,21.12-1.02,6.51-.73,12.93,1.94,19.04,4.01,9.19,11.21,13.81,21.18,14.18,3.17.12,6.31-.16,9.34-1.18,4.67-1.57,7.68-5.01,10.2-9.01.47-.74.89-1.51,1.42-2.41,2.45,1.72,4.88,3.42,7.35,5.16-4.92,8.89-12.04,14.48-22.22,15.7-7,.84-13.81.14-20.23-2.97-8.48-4.11-14.14-10.76-16.88-19.7-3.3-10.77-2.88-21.44,2.61-31.45,6.13-11.18,15.88-16.7,28.58-17,6.04-.14,11.86.87,17.18,3.92,4.86,2.79,8.42,6.77,10.95,11.88Z"/>
      <path class="cls-1" d="m395.43,76.89c-2.36,1.6-4.69,3.18-6.95,4.72-1.33-1.83-2.49-3.65-3.88-5.28-4.16-4.88-9.67-6.69-15.9-6.75-12.53-.12-22.13,7.79-24.48,20.28-1.26,6.69-.99,13.32,1.68,19.64,3.95,9.33,11.18,14.12,21.27,14.37,2.88.07,5.83-.32,8.64-.98,4.71-1.1,7.81-4.46,10.39-8.35.68-1.02,1.29-2.09,1.96-3.21,2.44,1.71,4.81,3.38,7.29,5.12-.23.44-.43.86-.66,1.26-6.22,10.51-15.6,15.09-27.64,14.77-17.36-.46-30.66-12.69-32.58-29.98-.88-7.89-.24-15.57,3.31-22.78,5.45-11.03,14.32-17.33,26.63-18.52,6.76-.65,13.34.18,19.42,3.43,4.9,2.62,8.56,6.5,11.13,11.4.13.24.22.5.36.85Z"/>
      <path class="cls-1" d="m433.22,131.23h-9.1v-60.6h-20.54v-8.38h49.95v8.27h-20.32v60.71Z"/>
      <path class="cls-1" d="m236.29,7.36c-.4-.44-.81-.87-1.44-1.55,1.61-1.06,3.05-2.3,4.71-3.06,8.63-3.95,17.09-3.97,24.81,2.08,5.53,4.34,7.73,10.4,7.64,17.32-.13,9.69-5.75,17.66-14.56,20.16-7.9,2.24-15.33,1.13-21.6-4.54-5-4.52-6.82-10.36-6.23-16.98.46-5.18,2.54-9.59,6.46-13.08.08-.07.12-.2.21-.34Zm6.64,6.52c-2.55,2.19-3.97,4.86-4.17,8.22-.29,4.84,2.29,9.45,6.55,11.44,4.57,2.13,10.32,1.25,13.72-2.07,2.54-2.49,3.59-5.6,3.74-9.06.33-7.87-4.61-14.01-12.75-13.64-3.26.15-6.13,1.24-8.47,3.64.48.51.91.98,1.38,1.47Z"/>
      <path class="cls-1" d="m152.55.6c6.16.23,12.22.39,18.27.73,1.22.07,2.48.64,3.6,1.21,5.69,2.88,7.2,10.32,3.06,15.05-.8.91-1.88,1.57-2.72,2.26,1.2.8,2.61,1.51,3.74,2.54,4.93,4.5,4.13,13.16-1.54,17.31-2.25,1.65-4.82,2.67-7.56,2.74-5.59.16-11.18.05-16.85.05V.6Zm9.03,34.18c2.69-.22,5.22-.21,7.65-.68,2.23-.43,3.38-2.37,3.38-4.76,0-2.4-1.16-4.33-3.39-4.75-2.46-.47-5.02-.46-7.64-.66,0,3.38,0,6.4,0,9.43,0,.35,0,.71,0,1.42Zm.07-17.23c1.97,0,3.89.16,5.78-.04,2.21-.23,3.56-2.01,3.56-4.26,0-2.22-1.34-4.01-3.46-4.22-1.93-.19-3.88-.04-5.87-.04v8.56Z"/>
      <path class="cls-1" d="m138.87.88h8.98c.05.12.12.23.12.33,0,8.71.16,17.42-.06,26.12-.23,9.36-6.71,15.62-16.03,15.95-4.47.16-8.69-.59-12.31-3.43-4.05-3.18-5.89-7.56-5.99-12.55-.18-8.7-.09-17.41-.11-26.12,0-.07.05-.14.1-.29h9.07v1.4c0,7.63,0,15.26,0,22.89,0,.76.02,1.52.13,2.27.47,3.16,1.79,5.8,5.07,6.76,3.19.94,6.29.72,8.77-1.86,1.57-1.64,2.19-3.73,2.2-5.93.06-8.03.04-16.06.06-24.09,0-.47,0-.94,0-1.46Z"/>
      <path class="cls-1" d="m226.42,7.8c-2.41,1.67-4.76,3.3-7.2,5-.24-.41-.46-.78-.67-1.14-1.74-3-4.94-4.35-8.06-3.4-1.38.42-2.47,1.21-2.78,2.69-.32,1.5.29,2.8,1.55,3.49,2.15,1.19,4.4,2.23,6.68,3.15,2.86,1.15,5.71,2.27,8.01,4.42,2.63,2.45,3.25,5.6,3.01,8.98-.49,6.82-5.45,11.69-12.48,12.23-4.54.35-8.85-.31-12.61-3.14-1.82-1.37-3.2-3.11-4.09-5.22-.12-.29-.14-.88.04-1.02,2.23-1.73,4.51-3.4,6.85-5.14.97,2.43,2.47,4.24,4.75,5.3,1.56.73,3.19,1.02,4.89.62,1.71-.41,3.03-1.28,3.45-3.09.42-1.82-.18-3.38-1.71-4.39-1.29-.85-2.72-1.49-4.12-2.15-2.27-1.06-4.66-1.91-6.85-3.11-4.59-2.52-6.61-6.48-5.82-11.69.77-5.13,4.05-8.1,8.85-9.45,4.25-1.19,8.47-.86,12.5,1.05,2.68,1.27,4.47,3.15,5.81,6Z"/>
      <path class="cls-1" d="m304.25,9.43h-19.35v9.55h17.51v7h-17.59v16.53h-9.09V.91h28.52v8.52Z"/>
      <path class="cls-1" d="m319.48,9.42h-11.73V.9h32.41v8.55h-11.6v33.06h-9.07V9.42Z"/>
      <path class="cls-1" d="m185.2.87h8.98v41.62h-8.98V.87Z"/>
    </g>
  </g>
</svg>