<?xml version="1.0" encoding="UTF-8"?>
<svg id="_Слой_2" data-name="Слой 2" xmlns="http://www.w3.org/2000/svg" viewBox="0 0 1485.86 384.6">
  <defs>
    <style>
      .cls-1 {
        fill: #fff;
      }
    </style>
  </defs>
  <g id="_Слой_1-2" data-name="Слой 1">
    <g>
      <path class="cls-1" d="m.76,107.2c.47-5.43.83-10.69,1.42-15.92.69-6.17,1.35-12.36,2.44-18.46,2.63-14.68,7.28-28.6,16.65-40.53,8.35-10.62,19.22-17.69,31.84-22.23,10.37-3.73,21.05-6.06,32.02-7.02,6.89-.6,13.77-1.32,20.68-1.72,42.12-2.46,84.27-.64,126.41-1.18,5.15-.07,10.31-.08,15.46,0,8.72.14,17.45.1,26.15.63,17.76,1.08,35.54,2.27,52.69,7.55,12.53,3.86,23.85,9.88,32.96,19.53,8.16,8.64,13.7,18.88,16.8,30.23,2.33,8.51,3.92,17.26,5.28,25.99,1.18,7.56,1.58,15.24,2.36,23.12H.76Z"/>
      <path class="cls-1" d="m384.66,260.81c-.43,6.59-.82,12.62-1.21,18.66-.21,3.27-.28,6.56-.65,9.81-.84,7.23-1.63,14.48-2.83,21.65-.97,5.85-1.87,11.84-3.92,17.35-4.15,11.18-9.59,21.73-18.35,30.21-8.86,8.58-19.42,14.28-31.14,17.61-8.04,2.28-16.31,3.81-24.55,5.27-4.81.85-9.75.94-14.64,1.26-54.14,3.59-108.35,1.07-162.53,1.66-10.49.11-21.02-.8-31.48-1.72-12.08-1.06-24.12-2.78-35.7-6.46-10.08-3.21-19.46-7.82-27.6-14.86-11.19-9.67-17.94-21.86-22.08-35.85-3.05-10.3-4.99-20.75-5.72-31.43-.66-9.7-1.17-19.41-1.77-29.12-.08-1.3-.32-2.6-.48-3.83,8.97,3.73,17.78,7.61,26.75,11.08,23.7,9.18,48.23,15.54,73.2,19.99,13.4,2.39,26.98,3.84,40.51,5.44,18.83,2.23,37.77,2.98,56.71,2.68,13.58-.22,27.16-1.11,40.72-2.12,37.43-2.78,74.01-9.96,109.49-22.23,11.46-3.96,22.54-9.01,33.79-13.56.97-.39,1.93-.82,3.48-1.49Z"/>
      <path class="cls-1" d="m885.28,288.9c-1.85,0-2.9,0-3.94,0-11.87,0-23.74-.11-35.6.08-3.2.05-5.31-.89-7.43-3.32-22.06-25.38-44.37-50.56-66.28-76.07-3.61-4.21-7.25-5.54-12.61-4.39v83.53h-33.29V92.97h33.11v79.42c4.42.41,7.99.79,11.47-3.28,21.1-24.67,42.59-49.01,63.85-73.55,1.85-2.13,3.71-2.88,6.46-2.84,12.15.14,24.31.06,37.31.06-27.97,31.77-55.52,63.07-83.28,94.61,29.95,33.7,59.82,67.29,90.25,101.53Z"/>
      <path class="cls-1" d="m998.33,225.22v63.47h-33.26V93.02c.67-.08,1.4-.24,2.13-.24,23.73,0,47.47-.43,71.19.19,21.61.56,40.05,8.88,53.93,25.9,22.07,27.06,19.38,80.36-25.9,100.05-9.3,4.05-19.06,6.08-29.17,6.21-11.77.16-23.54.07-35.3.08-1.06,0-2.13,0-3.62,0Zm.14-30.74c13.08,0,25.82.39,38.52-.09,20.6-.78,33.39-13.88,34.32-34.39.87-19.14-12.46-34.96-31.52-36.17-13.46-.85-27-.36-40.51-.45-.24,0-.49.25-.81.42v70.68Z"/>
      <path class="cls-1" d="m512.5,92.77c6.32,0,12.42,0,18.53,0,4.86,0,9.73.13,14.59-.06,2.16-.08,2.98.73,3.64,2.67,15.71,45.99,31.49,91.95,47.25,137.92,2.11,6.15,4.31,12.26,6.3,18.45.62,1.94,1.41,2.76,3.6,2.74,2.17-.02,3.21-.58,3.96-2.72,16.91-47.83,33.89-95.63,50.87-143.44,1.62-4.57,3.17-9.17,4.91-13.7.3-.77,1.36-1.77,2.07-1.78,11.17-.11,22.35-.08,33.9-.08-2.22,6.12-4.31,11.94-6.43,17.75-21.36,58.5-42.74,116.99-64.03,175.51-.8,2.19-1.73,2.95-4.1,2.93-14.4-.12-28.79-.1-43.19-.01-1.98.01-2.89-.58-3.55-2.45-22.5-63.76-45.05-127.5-67.59-191.24-.25-.72-.43-1.46-.72-2.49Z"/>
      <path class="cls-1" d="m1320.92,288.9c-7.64,0-14.92.06-22.19-.09-.73-.02-1.82-1.23-2.09-2.09-1.77-5.64-3.36-11.35-5.02-17.03-.29-.99-.66-1.96-1.12-3.31-5.39,8.26-12.08,14.52-20.27,19.11-17.87,10.01-45.11,7.94-60.36-4.75-13.83-11.51-18.57-26.62-15.41-43.92,3.09-16.95,14.9-26.41,30.37-31.94,9.62-3.44,19.68-4.53,29.83-4.67,10.12-.13,20.23-.04,30.35-.05,1.06,0,2.12,0,3.15,0,1.66-17.87-14.57-33.38-32.39-31.3-10.68,1.24-18.74,6.43-24.51,15.4-.43.67-1.45,1.52-2.07,1.42-9.3-1.45-18.59-3.04-28.18-4.65.24-1,.38-1.82.64-2.6,4.82-14.16,14.48-23.96,27.85-30.18,16.32-7.59,33.42-9.08,50.64-4.22,22.31,6.3,34.37,22.27,38.91,44.32,1.21,5.86,1.74,11.94,1.79,17.93.19,26.72.09,53.44.09,80.17,0,.67,0,1.34,0,2.46Zm-32.39-63.51c-.34-.05-.71-.15-1.07-.15-11.07,0-22.16-.36-33.21.19-5.92.29-11.91,1.65-17.59,3.41-5.55,1.72-9.32,5.79-10.41,11.84-1.74,9.69,2.96,18.07,12.38,21.81,6.3,2.51,12.86,2.69,19.5,1.78,20.66-2.83,31.68-21.55,30.41-38.88Z"/>
      <path class="cls-1" d="m1335.04,144.21c11.17,0,21.95-.05,32.73.1.81.01,1.95,1.32,2.34,2.27,7.59,18.38,15.1,36.79,22.62,55.2,6.05,14.82,12.14,29.62,18.11,44.47.74,1.84,1.7,2.39,3.65,2.41,2.06.01,2.29-1.28,2.77-2.64,11.68-32.91,23.39-65.8,34.99-98.73.85-2.42,1.94-3.2,4.52-3.15,8.65.19,17.31.07,25.97.07h3.13c-.42,1.33-.69,2.35-1.05,3.33-19.26,52.85-38.52,105.71-57.81,158.56-3.04,8.33-6.78,16.3-12.36,23.3-7.56,9.47-17.45,15.04-29.42,15.84-10.42.7-20.93.15-31.66.15-.88-9.21-1.79-18.73-2.73-28.61,3.54,0,6.82,0,10.1,0,6.13,0,12.26.04,18.38-.03,7.03-.09,12.35-3.18,15.58-9.45,1.55-3.01,2.85-6.17,3.91-9.38.36-1.09-.16-2.63-.65-3.81-20.56-48.81-41.16-97.61-61.75-146.41-.44-1.05-.83-2.11-1.37-3.48Z"/>
      <path class="cls-1" d="m211.56,194.31c.36-31.31,25.04-55.71,55.66-55.94,31.64-.24,55.23,25.08,56.27,53.4,1.23,33.43-24.85,56.21-51.15,58.13-35.39,2.59-60.6-25.25-60.78-55.59Zm55.93,17.27c9.35.39,17.49-7.47,17.66-17.37.16-9.55-8.03-17.47-17.67-17.4-9.56.06-17.31,7.86-17.32,17.42,0,9.59,7.73,17.34,17.33,17.35Z"/>
      <path class="cls-1" d="m174.96,224.36c-9.39,9.39-18.37,18.37-27.58,27.57-9.32-9.34-18.77-18.81-28.32-28.37-9.62,9.62-19.07,19.07-28.36,28.36-9.25-9.25-18.23-18.22-27.21-27.2,9.19-9.13,18.68-18.56,28.13-27.95-9.86-9.8-19.33-19.23-28.59-28.43,9.48-9.42,18.47-18.36,27.49-27.33,8.98,9.06,18.39,18.55,28.01,28.26,9.96-10,19.38-19.47,28.55-28.68,9.25,9.25,18.21,18.22,27.26,27.27-9.1,9.05-18.58,18.48-28.06,27.9,9.8,9.78,19.27,19.23,28.66,28.6Z"/>
      <path class="cls-1" d="m1164.15,288.75h-31.69V92.95h31.69v195.79Z"/>
    </g>
  </g>
</svg>