<?xml version="1.0" encoding="UTF-8"?>
<svg id="_Слой_2" data-name="Слой 2" xmlns="http://www.w3.org/2000/svg" viewBox="0 0 658.84 659.5">
  <g id="_Слой_1-2" data-name="Слой 1">
    <g>
      <path d="m1.21,183.77c.8-9.26,1.38-18.28,2.39-27.24,1.18-10.58,2.33-21.19,4.19-31.66,4.49-25.18,12.49-49.03,28.49-69.52,13.62-17.43,31.31-29.3,51.8-37.13,18.56-7.09,37.81-11.34,57.6-13.06,12.13-1.05,24.26-2.35,36.42-2.93,20.02-.95,40.06-1.89,60.1-1.98,56.48-.26,112.97-.42,169.45.04,29.14.24,58.33,1.08,87.39,3.12,23.27,1.63,46.34,5.55,68.49,13.64,34.42,12.57,58.88,35.25,72.43,69.57,6.47,16.37,10.76,33.19,12.74,50.63,1.74,15.34,3.36,30.69,5.09,46.51H1.21Z"/>
      <path d="m0,447.41c11.73,5.02,23.3,10.19,35.03,14.95,41.44,16.8,84.26,28.95,128.26,36.76,23.62,4.19,47.34,8.11,71.17,10.75,21.78,2.41,43.75,3.47,65.67,4.15,21.96.68,43.98.78,65.93-.04,20.56-.76,41.17-2.25,61.57-4.87,27.87-3.58,55.74-7.67,83.3-13.09,49.1-9.65,96.5-24.93,141.89-46.18,1.75-.82,3.56-1.48,6.02-2.5-.72,11.1-1.39,21.45-2.05,31.8-.36,5.61-.48,11.24-1.12,16.82-1.43,12.4-2.78,24.83-4.83,37.14-1.66,10.03-3.22,20.3-6.71,29.76-7.19,19.51-16.7,37.9-32.13,52.53-15.18,14.4-33.09,24.12-53.09,29.63-13.65,3.76-27.62,6.49-41.57,8.96-8.23,1.46-16.71,1.62-25.09,2.18-92.75,6.16-185.62,1.74-278.43,2.9-13.7.17-27.49-.58-41.12-2.04-19.36-2.07-38.75-4.47-57.88-8.03-21.76-4.05-42.06-12.43-59.67-26.15-17.55-13.68-29.61-31.49-37.45-52.23-7.04-18.6-11.27-37.84-13-57.63-1.04-11.97-2.1-23.95-2.97-35.93-.71-9.83-1.17-19.68-1.74-29.61Z"/>
      <path d="m362.31,333.24c.57-53.68,42.65-95.35,94.76-96.03,54.64-.72,95.17,42.91,96.99,91.49,2.15,57.24-42.3,96.44-87.53,99.78-60.72,4.48-103.84-43.21-104.22-95.23Zm95.83,29.52c16.02.66,29.96-12.83,30.24-29.8.27-16.18-13.48-29.68-29.79-29.83-16.58-.16-30.16,13.31-30.15,29.89,0,16.45,13.27,29.72,29.7,29.74Z"/>
      <path d="m252.15,431.99c-15.92-15.93-32.12-32.16-48.59-48.65-16.35,16.39-32.55,32.62-48.52,48.62-15.75-15.79-31.12-31.2-46.58-46.7,15.86-15.77,32.13-31.95,48.41-48.15-16.76-16.73-32.98-32.93-48.81-48.73,16.05-16.01,31.44-31.36,47.01-46.89,15.51,15.66,31.62,31.95,48.2,48.7,16.93-17.02,33.08-33.26,48.84-49.1,15.72,15.76,31.07,31.14,46.63,46.74-15.69,15.66-31.92,31.85-48.21,48.11,16.67,16.66,32.9,32.87,48.79,48.74-15.76,15.81-31.12,31.21-47.18,47.32Z"/>
    </g>
  </g>
</svg>