<?xml version="1.0" encoding="UTF-8"?>
<svg id="_Слой_2" data-name="Слой 2" xmlns="http://www.w3.org/2000/svg" viewBox="0 0 1019.09 1019.57">
  <defs>
    <style>
      .cls-1 {
        fill: #fff;
      }
    </style>
  </defs>
  <g id="_Слой_1-2" data-name="Слой 1">
    <g>
      <path class="cls-1" d="m1019.07,510.03c1.99,276.57-225,509.41-509.18,509.53C226.96,1019.69-1.01,787.94,0,507.77,1.01,229.32,229.24-.3,510.4,0c281.3.3,510.91,231.3,508.67,510.03Zm-524.69,238.91c59.18-1.34,103.29-1.62,147.33-3.56,38.2-1.68,76.38-4.54,114.46-8.11,49.03-4.6,74.88-37.58,81.65-74.91,7.98-44.07,10.36-88.56,11.11-133.14.47-28.26-.4-56.57-1.59-84.82-1.27-30.09-3.79-60.12-9.87-89.71-7.83-38.12-29.97-62.95-68.33-71.4-15.52-3.42-31.57-4.88-47.46-6.17-69.05-5.58-138.27-6.68-207.49-6.82-43.75-.09-87.51,1.26-131.25,2.35-40.09.99-80.13,3-119.96,8.18-44.88,5.83-72.26,30.77-81.14,74.89-8.83,43.91-10.58,88.52-11.34,133.1-.48,28.42.39,56.9,1.6,85.31,1.27,30.09,3.78,60.12,9.91,89.71,7.89,38.12,30.11,63.14,68.54,71.13,19.94,4.14,40.51,6.19,60.89,7.11,65.97,2.98,131.99,5.01,182.94,6.86Z"/>
      <path class="cls-1" d="m617.08,509.15c-59.02,33.51-117.37,66.64-176.3,100.1v-200.2c58.89,33.44,117.3,66.6,176.3,100.1Z"/>
    </g>
  </g>
</svg>