<?xml version="1.0" encoding="UTF-8"?>
<svg id="_Слой_2" data-name="Слой 2" xmlns="http://www.w3.org/2000/svg" viewBox="0 0 363.43 254.77">
  <defs>
    <style>
      .cls-1 {
        fill: #fff;
      }
    </style>
  </defs>
  <g id="_Слой_2-2" data-name=" Слой 2">
    <g id="_Слой_1-2" data-name=" Слой 1-2">
      <g>
        <path class="cls-1" d="m0,60.06c3.73-4.99,6.56-5.23,10.96-.84,8.68,8.64,17.32,17.32,25.99,25.97,3.93,3.93,5.61,3.9,9.64-.1,2.3-2.29,4.55-4.64,6.91-6.88,2.76-2.61,6.01-2.71,8.33-.37,2.36,2.37,2.29,5.53-.44,8.3-2.01,2.03-4.27,3.81-6.71,5.95,7.48,7.47,14.17,14.52,21.28,21.12,3.72,3.45,5.49,7.15,4.97,12.19-.31,2.97.02,6-.07,8.99-.16,5.12,1.76,9.22,5.68,12.44,16.12-11.86,27.88-9.88,35.74,6.29,7.86-2.78,15.43-2.27,21.81,3.7,6.27,5.86,7.66,13.15,5.23,21.54,8.69,2.8,13.67,8.83,15.04,17.84,9.97-.07,17.03,4.26,20.69,13.38,1.93,4.8,1.76,9.84-.45,14.59-.89,1.92-.62,3.06.89,4.49,4.09,3.86,7.93,7.98,11.99,11.87,3.93,3.77,9.28,3.82,12.75.32,3.56-3.59,3.5-8.73-.4-12.72-6.82-6.97-13.73-13.84-20.67-20.69-2.15-2.12-3.34-4.43-2.14-7.37,1.57-3.84,6.23-4.42,9.61-1.1,6.87,6.74,13.56,13.66,20.49,20.33,1.63,1.56,3.82,2.93,5.98,3.46,3.77.93,7.36-1.13,9.07-4.43,1.8-3.48,1.34-7.2-1.69-10.33-5.56-5.75-11.28-11.34-16.93-17.01-1.59-1.59-3.24-3.13-4.75-4.79-2.41-2.65-2.5-5.79-.35-8.05,2.31-2.43,5.59-2.5,8.31.16,7.05,6.91,13.91,14.02,21.03,20.86,1.62,1.55,3.89,2.85,6.06,3.29,3.8.76,6.81-1.1,8.7-4.48,1.87-3.35,1.32-7.31-1.65-10.35-6.55-6.7-13.23-13.28-19.85-19.91-4.28-4.28-4.89-7.43-1.97-10.17,2.77-2.6,5.76-1.93,9.91,2.21,6.54,6.53,13.04,13.12,19.65,19.59,3.41,3.34,7.27,3.83,10.93,1.72,3.26-1.87,5.17-5.54,4.08-9.24-.64-2.15-2.1-4.25-3.7-5.87-12.2-12.37-24.53-24.6-36.79-36.91-1.04-1.05-2.62-2.32-2.61-3.49,0-2.15.48-4.7,1.74-6.32,1.6-2.04,4.27-1.82,6.46-.28,1.11.79,2.06,1.81,3.03,2.78,12.9,12.89,25.79,25.79,39.26,39.25,4.39-4.59,8.63-9.11,12.98-13.53,5.43-5.53,10.93-10.99,16.43-16.45,3.2-3.17,6.3-3.55,8.84-1.16,2.65,2.48,2.36,5.84-.91,9.11-10.32,10.36-20.7,20.66-30.97,31.07-1.04,1.06-2.04,2.61-2.18,4.02-1.14,11.38-7.55,18.04-19.06,19.51-.35.04-.69.19-1,.28-2.23,13.09-7.53,18.39-20.49,20.35-.46,5.22-2.02,10.13-5.87,14.05-3.86,3.93-8.59,5.88-14.31,6.12-.28,1.37-.55,2.67-.82,3.97-1.55,7.62-5.98,12.86-13.34,15.28-7.35,2.42-14.19,1.06-19.82-4.28-4.88-4.63-9.37-9.67-14.5-15.01-3.51,3.71-6.49,6.88-9.49,10.04-5.96,6.27-13.17,8.72-21.43,5.84-8.46-2.94-13.04-9.27-13.87-18.24-.02-.23-.17-.45-.26-.66-13.42-2.85-17.58-7.01-20.08-20.25-8.28-.67-14.63-4.43-18.14-12.26-1.57-3.51-6.03-8.09-9.47-9.52-12.02-5.02-15.99-20.09-7.98-30.39.99-1.27,2.11-2.44,3.43-3.95-8.09-6.82-9.93-15.89-9.04-25.74.41-4.52-1.12-7.7-4.44-10.73-5.89-5.39-11.42-11.19-17.01-16.92-1.67-1.71-3.39-2.17-5.8-2.45-3.67-.43-8.12-1.21-10.62-3.55C20.9,85.31,10.57,74.45.02,63.83v-3.75l-.02-.02Zm112.06,139.56c.94-.45,3.04-.93,4.38-2.21,7.01-6.75,13.93-13.59,20.65-20.62,3.17-3.32,2.73-8.37-.43-11.5-3.08-3.05-8-3.63-11.2-.59-7.24,6.86-14.26,13.96-21.15,21.17-2.45,2.56-2.46,5.95-.86,9.1,1.54,3.03,4.18,4.51,8.62,4.64h-.01Zm52.9,7.97c-.78.36-2.91.78-4.25,2.04-5.52,5.22-10.94,10.56-16.13,16.11-3.15,3.38-2.72,8.18.47,11.49,3.21,3.33,8.08,4.04,11.45.94,5.77-5.31,11.28-10.92,16.64-16.64,2.42-2.59,2.45-5.97.83-9.1-1.6-3.09-4.23-4.82-9.02-4.84h.01Zm-11.87-9.01c-.44-4.59-2.05-7.26-5.34-8.69-3.48-1.52-6.68-.76-9.33,1.79-4.5,4.33-8.95,8.73-13.25,13.25-3.63,3.82-3.62,8.65-.28,12.1,3.44,3.55,8.44,3.59,12.37-.16,4.43-4.22,8.82-8.51,12.95-13.02,1.51-1.64,2.22-4.01,2.88-5.27h0Zm-61.25-19.12c.66-.24,2.53-.37,3.59-1.37,5.06-4.78,10.16-9.57,14.72-14.81,2.76-3.17,1.69-7.96-1.45-10.77-3.01-2.69-7.58-3.16-10.61-.41-4.88,4.43-9.53,9.14-13.99,13.99-2.3,2.5-2.28,5.77-.75,8.77s4.1,4.6,8.49,4.59h0Z"/>
        <path class="cls-1" d="m363.37,111.37c-7.03,7.07-14.05,14.14-21.09,21.19-5.74,5.74-9.85,6.48-18.2,2.68-2.37,2.65-4.9,5.72-7.67,8.55-2.8,2.86-6.25,2.98-8.58.58s-2.14-5.72.8-8.57c2.67-2.6,5.56-4.97,8.59-7.64-20.92-19.98-41.04-39.2-62.21-59.42-6.72,7.2-13.13,14.21-19.72,21.04-4.43,4.6-7.74,5.37-12.94,1.64-13.52-9.69-28.3-13.02-44.78-11.59-10.54.91-21.24.03-31.85.29-2.11.05-4.66,1.12-6.2,2.57-6.64,6.25-13.02,12.78-19.42,19.28-5.13,5.21-5.49,11.61-1.05,16.38,4.28,4.6,10.67,4.77,16.16.35,5.25-4.23,10.34-8.68,15.71-12.76,1.66-1.26,3.98-2.23,6.04-2.29,8.37-.25,16.75-.16,25.12-.09,5.14.04,6.81,2.09,6.57,7.25-.05,1.03.51,2.36,1.23,3.12,3.7,3.89,7.59,7.61,11.34,11.46,2.92,3.01,3.12,6.13.71,8.59-2.34,2.39-5.75,2.24-8.62-.59-5.62-5.52-11.08-11.2-16.77-16.63-1.12-1.07-3-1.34-4.53-1.97-.11-.04-.25,0-.37,0-9.66-1.47-17.85,1.12-24.43,8.59-1.55,1.76-3.61,3.07-5.47,4.54-9.8,7.75-22.99,6.88-31.12-2.04-8.18-8.97-7.91-22.1.82-31.16,6.33-6.57,12.87-12.93,19.32-19.39.87-.87,1.7-1.78,2.99-3.14-2.31-1.57-4.34-3.15-6.57-4.39-1.95-1.09-4.08-1.88-6.19-2.64-8.21-2.95-16.71-5.39-21.8-14.03-4.73,4.81-8.81,9.02-12.94,13.17-9.09,9.12-18.21,18.2-27.3,27.31-2.4,2.4-5.02,3.31-8.01,1.18-2.98-2.12-3.13-5.79-.26-8.77,4.16-4.32,8.45-8.51,12.7-12.76,10.43-10.43,20.87-20.85,31.29-31.28,3.76-3.77,3.76-5.61.02-9.37-6.53-6.55-13.08-13.08-19.61-19.62-3.54-3.55-3.99-6.83-1.34-9.4,2.56-2.47,5.78-2.03,9.15,1.32,6.82,6.79,13.57,13.65,20.44,20.39,5.3,5.2,6.62,11.2,4.2,18.16-.28.81-.43,2.24.02,2.62,2.96,2.57,5.76,5.77,9.26,7.22,10.15,4.22,20.7,7.49,28.23,16.27.77.9,2.68,1.13,4.07,1.14,16.25.08,32.5.11,48.74,0,4.64-.03,8.84,1.01,12.84,3.38,4.83,2.86,9.75,5.58,14.74,8.17.93.48,2.85.56,3.44-.04,6.15-6.21,12.13-12.59,18.43-19.22-3.73-6.42-1.65-12.08,3.99-17.56,13.18-12.79,26.04-25.92,39.03-38.91.8-.8,1.57-1.61,2.39-2.38,2.81-2.63,5.99-2.86,8.35-.64,2.43,2.29,2.37,5.8-.42,8.61-10.92,11-21.9,21.94-32.86,32.89-3.69,3.69-7.42,7.34-11.45,11.32,25.41,24.28,50.49,48.23,75.9,72.51,6.19-6.24,12.15-12.25,18.12-18.26.97-.98,1.91-1.98,2.92-2.91,3.45-3.17,6.15-2.85,10.16,1.18v4.5l-.06.02Z"/>
      </g>
    </g>
  </g>
</svg>