<?xml version="1.0" encoding="UTF-8"?>
<svg id="_Слой_2" data-name="Слой 2" xmlns="http://www.w3.org/2000/svg" viewBox="0 0 536.8 538.01">
  <defs>
    <style>
      .cls-1 {
        fill: #fff;
      }
    </style>
  </defs>
  <g id="_Слой_1-2" data-name="Слой 1">
    <g>
      <path class="cls-1" d="m428.06,337.31c-.86,4.48-1.51,9.02-2.62,13.44-2.06,8.18-5.82,15.52-11.62,21.74-10.98,11.76-28.4,11.96-39.89.65-9.94-9.78-20.05-19.39-30.16-29-1.76-1.68-3.89-2.97-5.85-4.44-7.47-5.59-15.57-8.26-25.21-8.14-33.46.42-66.94.24-100.41.1-5.78-.02-10.89,1.41-15.75,4.33-12.26,7.38-22.51,17.16-32.48,27.26-3.29,3.34-6.37,6.89-9.7,10.19-11.06,10.99-28.42,10.71-39.19-.59-8.6-9.03-12.47-20.14-13.93-32.25-2.06-17.09.98-33.8,4.07-50.45,4.76-25.7,12.25-50.65,21.38-75.13,2.78-7.45,7.07-13.77,13.01-19.06.95-.84,1.64-2.43,1.71-3.72.22-4.04.03-8.1.1-12.15.18-10.76,7.5-20.01,18.03-22.39,11.31-2.56,22.68-4.88,34.04-7.24,8.26-1.71,15.4.59,21.41,6.39,4.07,3.92,8.06,7.92,11.97,11.99,1.45,1.51,2.85,2.03,5.02,1.87,21.61-1.63,43.23-1.64,64.84.01,2.05.16,3.38-.34,4.75-1.77,3.61-3.78,7.39-7.38,11.04-11.12,6.65-6.82,14.56-9.24,23.89-7.18,10.7,2.36,21.45,4.55,32.15,6.95,11.08,2.48,18.36,11.62,18.5,22.98,0,.53.06,1.07,0,1.6-1,7.62.46,13.98,6.85,19.39,3.36,2.85,5.23,7.68,7.22,11.88,1.97,4.16,0,8.44-3.98,10.03-3.89,1.55-7.91-.04-9.68-4.28-3.53-8.48-9.74-13.95-18.09-17.46-17.51-7.36-35.81-11.56-54.55-14.07-24.58-3.29-49.27-3.96-74.02-2.53-26.79,1.54-53.1,5.51-78.37,15.18-11.53,4.41-19.08,11.67-23.22,23.55-10.14,29.13-18.55,58.64-22.47,89.31-1.55,12.11-2.4,24.29,1.74,36.05,1.53,4.33,3.84,8.6,6.67,12.21,5.3,6.78,13.26,6.63,19.41.6,10.34-10.14,20.58-20.41,31.43-29.98,7.83-6.9,16.69-12.6,27.26-14.71,2.27-.45,4.65-.52,6.98-.52,35.17-.03,70.35.15,105.52-.13,9.48-.08,17.8,2.5,25.64,7.4,14.96,9.36,27.32,21.7,39.34,34.43,1.39,1.47,2.7,3.03,4.16,4.42,5.09,4.85,12.62,4.77,17.47-.33,6.98-7.33,9.43-16.53,10.21-26.26,1.19-14.82-1.34-29.34-4.22-43.76-2.19-10.95-5.14-21.74-7.54-32.65-.47-2.16-.5-4.73.24-6.77,1.11-3.08,3.92-4.35,7.23-4.12,3.29.23,5.84,2.43,6.76,6.27,2.9,12.1,5.96,24.18,8.38,36.38,1.78,8.96,2.67,18.11,3.97,27.16.12.82.37,1.63.55,2.44v15.99Zm-218.86-164.2c.17-.35.34-.71.51-1.06-1.61-1.38-3.31-2.66-4.8-4.15-2.55-2.56-5.45-3.45-9-2.68-10.79,2.37-21.61,4.65-32.41,6.96-3.7.79-6.18,2.98-6.74,6.74-.35,2.35-.07,4.79-.07,7.56,17.08-6.7,34.62-10.72,52.51-13.38Zm109.61-.1c18.53,2.77,36.09,6.73,53.33,13.55,0-2.52.16-4.62-.03-6.68-.39-4.05-2.64-6.71-6.62-7.59-11.21-2.47-22.42-4.96-33.7-7.05-2.11-.39-4.84.55-6.76,1.73-2.19,1.34-3.8,3.62-6.21,6.05Z"/>
      <path class="cls-1" d="m303.93,254.1c15.73-.02,28.45,12.58,28.58,28.32.13,15.68-12.88,28.7-28.63,28.65-15.6-.05-28.44-12.94-28.42-28.54.02-15.67,12.78-28.4,28.48-28.42Zm13.51,28.31c-.05-7.36-6.08-13.38-13.43-13.4-7.47-.02-13.54,6.13-13.49,13.66.05,7.4,6.01,13.32,13.43,13.34,7.55.02,13.54-6.03,13.49-13.6Z"/>
      <path class="cls-1" d="m208.94,237.49c.01,15.7-12.69,28.46-28.38,28.52-15.62.06-28.5-12.69-28.64-28.34-.14-15.65,12.92-28.76,28.62-28.71,15.65.05,28.39,12.84,28.4,28.53Zm-28.5,13.5c7.37.02,13.44-5.94,13.54-13.28.1-7.52-5.93-13.63-13.46-13.65-7.47-.01-13.41,5.82-13.48,13.25-.08,7.58,5.88,13.66,13.4,13.68Z"/>
      <path class="cls-1" d="m229.17,290.03c0,2.46.06,4.56-.01,6.67-.17,4.45-3.23,7.52-7.43,7.53-4.22.01-7.23-2.97-7.45-7.49-.1-2.1-.02-4.21-.02-6.71-2.46,0-4.55.06-6.64-.01-4.41-.16-7.62-3.27-7.69-7.36-.07-4.1,3.04-7.22,7.49-7.54,2.18-.16,5.05.36,6.33-.81,1.11-1.01.39-4,.52-6.1.28-4.4,3.5-7.53,7.6-7.41,3.98.12,7.08,3.25,7.27,7.44.09,2.12.02,4.24.02,6.86,2.29,0,4.39-.07,6.47.01,4.74.2,7.78,3.2,7.73,7.54-.05,4.32-3.17,7.25-7.91,7.38-1.91.05-3.82,0-6.29,0Z"/>
      <path class="cls-1" d="m243.48,235.13c-2.02,0-4.04.13-6.05-.03-3.97-.3-6.92-3.54-6.89-7.4.02-3.81,3.04-7.18,6.97-7.36,4.13-.19,8.29-.21,12.42,0,4.01.21,6.82,3.48,6.8,7.43-.02,3.98-2.82,7.04-6.88,7.33-2.11.15-4.24.03-6.37.02Z"/>
      <path class="cls-1" d="m285.27,220.29c1.91,0,3.83-.11,5.73.02,4.09.28,7.2,3.65,7.11,7.57-.09,3.9-3.01,7.05-7.06,7.23-4.03.18-8.07.18-12.1,0-4.23-.18-7.09-3.39-7.03-7.5.06-3.93,2.94-7.02,6.97-7.29,2.11-.14,4.25-.02,6.37-.02Z"/>
      <path class="cls-1" d="m408.98,236.55c-.03,4.21-3.3,7.46-7.49,7.42-4.47-.04-8.03-4.13-7.89-9.06.11-3.97,3.43-7.23,7.41-7.28,4.49-.06,8,3.88,7.97,8.93Z"/>
      <path class="cls-1" d="m365.52,245.01c-4.11.03-7.53-3.42-7.5-7.55.03-4.01,3.26-7.33,7.27-7.46,4.02-.13,7.62,3.33,7.7,7.39.07,4.07-3.38,7.59-7.46,7.62Z"/>
      <path class="cls-1" d="m351.23,244.35c4.19,0,7.53,3.37,7.46,7.52-.06,4-3.34,7.3-7.34,7.38-4.06.08-7.61-3.36-7.65-7.42-.04-4.12,3.35-7.48,7.52-7.48Z"/>
      <path class="cls-1" d="m351.06,230.65c-4.17-.07-7.49-3.52-7.35-7.64.14-3.96,3.5-7.21,7.49-7.22,4.15,0,7.53,3.38,7.49,7.51-.04,4.17-3.41,7.42-7.62,7.35Z"/>
      <path class="cls-1" d="m344.36,237.35c.07,4.19-3.21,7.61-7.34,7.66-4.09.05-7.5-3.38-7.49-7.52,0-4.03,3.19-7.34,7.2-7.49,4.09-.15,7.57,3.2,7.64,7.36Z"/>
    </g>
    <path class="cls-1" d="m252.75,0h32.51c1.33.31,2.65.8,3.99.89,32.75,2.3,64.04,10.43,93.69,24.43,115.89,54.71,176.41,181.55,146.11,306.31-13.23,54.5-41.53,100.09-83.07,137.45-38.22,34.37-82.61,56.23-133.33,64.87-9.78,1.66-19.65,2.72-29.48,4.06h-31.46c-1.35-.29-2.69-.67-4.06-.86-12.43-1.81-25-2.91-37.27-5.48C102.43,509.06,17.64,417.3,3,307.57,1.89,299.29.99,290.97,0,282.67c0-9.11,0-18.21,0-27.32.66-5.52,1.34-11.04,1.96-16.57,6.23-54.93,26.96-103.66,63.04-145.47C107.01,44.63,159.93,14.92,223.25,4c9.77-1.69,19.67-2.69,29.5-4ZM100.25,400.17c99.81-100.91,199.6-201.79,299.46-302.75-89.42-66.86-211.65-56.98-285.22,20.71-80.6,85.11-74.92,209.31-14.24,282.03Zm37.81,37.79c78.25,65.46,210.5,67.62,293.02-29.95,73.47-86.88,59.16-206.45,5.93-269.59-99.56,99.76-199.13,199.52-298.95,299.54Z"/>
  </g>
</svg>